<svg width="528" height="406" viewBox="0 0 528 406" fill="none" xmlns="http://www.w3.org/2000/svg">
<ellipse cx="80.6152" cy="78.1001" rx="64.3848" ry="63.5787" fill="#E5F3FF" fill-opacity="0.2"/>
<ellipse cx="81.1213" cy="78.599" rx="47.6447" ry="47.0482" fill="#E5F3FF" fill-opacity="0.2"/>
<ellipse cx="80.6143" cy="78.0999" rx="32.1924" ry="31.7893" fill="#C7C9D9"/>
<path fill-rule="evenodd" clip-rule="evenodd" d="M78.3385 85.7297C77.9609 85.7297 77.5997 85.5726 77.3411 85.2958L70.6877 78.1614C70.1692 77.6076 70.1979 76.7356 70.7479 76.2149C71.2993 75.6942 72.1653 75.7218 72.6811 76.2755L78.3249 82.3244L89.8285 69.6481C90.3402 69.0847 91.2049 69.0475 91.7631 69.56C92.3199 70.0724 92.3582 70.9444 91.8493 71.5051L79.3483 85.2806C79.0924 85.5644 78.7285 85.7269 78.3481 85.7297H78.3385Z" fill="white"/>
<path d="M194.118 85.8601C202.278 86.0916 216.193 88.1439 217.349 99.342C213.183 102.86 208.18 105.294 202.8 106.421C202.8 106.421 196.965 100.79 195.649 108.351C194.334 115.912 199.595 117.039 199.595 117.039C199.595 117.039 199.759 127.978 204.033 135.057C206.592 139.332 207.741 144.276 207.321 149.214C207.321 149.214 196.636 137.631 176.909 141.009C157.183 144.388 167.375 132.483 167.046 128.622C166.717 124.761 168.197 120.739 171.156 114.947C174.115 109.156 170.897 99.4025 177.567 92.4243C177.766 92.2165 177.966 92.0148 178.168 91.8192C180.278 89.8231 182.779 88.266 185.52 87.2418C188.261 86.2176 191.186 85.7476 194.118 85.8601Z" fill="#00072D"/>
<path d="M217.417 99.332C217.848 101.002 218.083 102.715 218.117 104.437C218.137 105.306 218.102 106.176 218.012 107.041L217.929 107.685L217.887 108.237L217.938 108.77C217.994 108.937 218.017 109.112 218.077 109.277C218.381 109.971 218.834 110.593 219.407 111.099C220.086 111.681 220.7 112.33 221.242 113.036C221.523 113.458 221.645 113.962 221.587 114.463C221.547 114.945 221.352 115.403 221.03 115.771C220.351 116.411 219.444 116.767 218.5 116.764L218.713 116.551C218.761 118.608 218.852 120.66 218.806 122.732C218.805 124.844 218.478 126.945 217.836 128.962C217.643 129.527 217.351 130.054 216.972 130.519C216.86 130.654 216.731 130.774 216.589 130.878L216.362 131.039L216.089 131.165C215.94 131.229 215.786 131.277 215.628 131.31L215.207 131.415C214.13 131.61 213.035 131.692 211.94 131.66C209.816 131.612 207.7 131.379 205.618 130.962L205.898 130.906C205.288 131.229 204.713 131.612 204.183 132.049C203.923 132.263 203.695 132.511 203.507 132.787C203.41 132.916 203.346 133.066 203.321 133.225C203.296 133.383 203.31 133.545 203.362 133.697L203.241 133.761C203.137 133.593 203.077 133.402 203.068 133.205C203.058 133.009 203.099 132.813 203.187 132.636C203.339 132.29 203.542 131.967 203.79 131.678C204.281 131.118 204.841 130.621 205.458 130.198L205.551 130.132L205.738 130.142C207.804 130.258 209.888 130.361 211.93 130.299C212.928 130.281 213.924 130.185 214.907 130.014L215.247 129.93C215.345 129.913 215.441 129.885 215.532 129.846C215.559 129.833 215.588 129.822 215.616 129.814L215.704 129.746C215.772 129.698 215.835 129.642 215.891 129.581C216.175 129.251 216.399 128.877 216.554 128.474C217.199 126.587 217.626 124.636 217.827 122.656C218.127 120.637 218.281 118.601 218.288 116.561L218.286 116.352L218.5 116.348C218.903 116.359 219.304 116.287 219.676 116.136C220.048 115.984 220.382 115.757 220.658 115.469C220.888 115.171 221.003 114.802 220.98 114.428C220.977 114.073 220.844 113.731 220.604 113.465C220.014 112.884 219.369 112.36 218.678 111.898C217.898 111.33 217.29 110.565 216.922 109.684C216.841 109.447 216.777 109.205 216.729 108.961C216.708 108.715 216.696 108.468 216.684 108.223L216.761 107.507L216.86 106.89C217.001 106.076 217.077 105.247 217.146 104.414C217.257 102.746 217.305 101.054 217.282 99.3516L217.417 99.332Z" fill="#00072D"/>
<path d="M213.896 111.286C214.162 111.277 214.415 111.167 214.6 110.98C214.785 110.792 214.888 110.541 214.888 110.281C214.888 110.02 214.785 109.769 214.6 109.582C214.415 109.394 214.162 109.284 213.896 109.275C213.63 109.284 213.377 109.394 213.192 109.582C213.007 109.769 212.904 110.02 212.904 110.281C212.904 110.541 213.007 110.792 213.192 110.98C213.377 111.167 213.63 111.277 213.896 111.286ZM217.348 113.981C217.421 114.212 217.475 114.449 217.508 114.69C217.527 114.815 217.533 114.942 217.528 115.069C217.523 115.152 217.477 115.169 217.413 115.272C217.332 115.475 217.31 115.696 217.348 115.911C217.206 115.982 217.044 116.008 216.886 115.984C216.727 115.96 216.581 115.887 216.468 115.777C216.31 115.622 216.205 115.423 216.167 115.208C216.13 114.993 216.162 114.771 216.258 114.574C216.355 114.377 216.511 114.214 216.707 114.108C216.902 114.001 217.126 113.957 217.348 113.981V113.981ZM209.458 107.224C209.72 106.72 210.146 106.316 210.668 106.074C211.184 105.817 211.757 105.689 212.336 105.7C212.911 105.706 213.476 105.847 213.985 106.11C214.491 106.363 214.916 106.749 215.211 107.224C214.622 107.223 214.139 107.143 213.664 107.116C213.197 107.059 212.753 107.06 212.317 107.04C211.361 107.038 210.405 107.099 209.458 107.224ZM213.896 120.094C214.308 120.016 214.729 119.986 215.148 120.005C215.52 120.023 215.89 120.07 216.254 120.147C216.617 120.224 216.973 120.33 217.319 120.463C217.711 120.614 218.082 120.813 218.422 121.056C218.062 121.285 217.658 121.439 217.235 121.508C216.812 121.577 216.379 121.559 215.963 121.456C215.557 121.371 215.17 121.218 214.818 121.005C214.437 120.782 214.12 120.469 213.896 120.094ZM199.43 115.308C199.696 115.299 199.949 115.189 200.134 115.002C200.319 114.814 200.422 114.563 200.422 114.303C200.422 114.042 200.319 113.791 200.134 113.604C199.949 113.416 199.696 113.306 199.43 113.297C199.164 113.306 198.911 113.416 198.726 113.604C198.541 113.791 198.438 114.042 198.438 114.303C198.438 114.563 198.541 114.814 198.726 115.002C198.911 115.189 199.164 115.299 199.43 115.308Z" fill="#00072D"/>
<path d="M189.73 182.193L200.614 193.992L199.56 194.847L189.73 182.193Z" fill="#00072D"/>
<path d="M260.196 222.374C262.897 217.858 264.961 213.005 266.329 207.947C267.705 202.899 268.686 197.756 269.264 192.563C269.583 189.967 269.811 187.365 270.053 184.747C270.139 183.406 270.35 182.075 270.685 180.772C271.052 179.48 271.521 178.218 272.089 176.997C274.291 172.152 277.201 167.724 278.747 162.767C279.148 161.538 279.481 160.289 279.743 159.025C279.866 158.393 279.978 157.758 280.049 157.122C280.134 156.505 280.162 155.882 280.135 155.26C279.932 154.001 279.593 152.766 279.123 151.576C278.674 150.356 278.171 149.147 277.615 147.971C277.476 147.672 277.331 147.399 277.179 147.098C277.092 146.911 277.038 146.712 277.019 146.507C276.992 146.326 276.987 146.143 277.001 145.961C277.049 145.286 277.158 144.616 277.326 143.959C277.631 142.667 278.003 141.41 278.324 140.141C278.662 138.886 278.899 137.606 279.032 136.314C279.094 135.678 279.097 135.017 279.094 134.374C279.103 133.74 279.025 133.108 278.861 132.495C278.784 132.209 278.635 131.946 278.427 131.731C278.219 131.516 277.959 131.355 277.671 131.264C277.521 131.21 277.37 131.156 277.212 131.109C277.184 131.102 277.108 131.073 277.121 131.083C277.125 131.08 277.115 131.084 277.104 131.086C277.055 131.107 277.01 131.136 276.972 131.171C276.755 131.392 276.569 131.639 276.42 131.908C275.782 133.051 275.227 134.235 274.756 135.453C273.768 137.884 272.866 140.353 271.945 142.816C271.013 145.276 270.119 147.748 269.066 150.179C268.801 150.793 268.504 151.394 268.176 151.979C267.841 152.626 267.307 153.155 266.648 153.489C265.954 153.797 265.169 153.844 264.443 153.62C263.754 153.411 263.113 153.074 262.556 152.628L262.419 152.521L262.417 152.341V152.335L262.557 152.622C261.723 151.979 261.059 151.151 260.619 150.207C260.509 149.959 260.425 149.701 260.368 149.436C260.313 149.156 260.296 148.928 260.266 148.675L260.145 147.214C260.088 146.264 259.971 145.318 259.794 144.382C259.68 143.511 259.306 142.694 258.718 142.031C258.651 141.963 258.573 141.906 258.488 141.861C258.414 141.802 258.33 141.758 258.239 141.731C258.152 141.705 258.055 141.66 257.981 141.642C257.928 141.631 257.874 141.632 257.821 141.643C257.643 141.665 257.374 141.989 257.215 142.388C256.893 143.254 256.688 144.157 256.606 145.075C256.406 146.977 256.343 148.891 256.416 150.801L256.421 150.957L256.324 151.132C255.629 152.277 255.096 153.509 254.739 154.794C254.394 156.083 254.239 157.414 254.279 158.746C254.328 160.085 254.537 161.414 254.901 162.706C255.252 163.993 255.756 165.235 256.404 166.407L256.542 166.651L256.48 166.9C255.926 169.142 255.345 171.379 254.65 173.582C253.983 175.793 253.221 177.975 252.397 180.134C251.582 182.296 250.703 184.433 249.76 186.546C248.818 188.662 247.834 190.742 246.731 192.809L246.469 193.301L245.937 193.147C244.681 192.726 243.511 192.089 242.484 191.265C241.503 190.491 240.568 189.661 239.684 188.781C237.93 187.035 236.328 185.179 234.768 183.298C231.662 179.525 228.755 175.622 225.812 171.76L223.604 168.865L221.297 166.046L216.678 160.409C213.654 156.604 210.428 152.958 207.27 149.255L207.372 149.166C210.66 152.758 214.045 156.272 217.187 159.995L221.961 165.529L224.347 168.3L226.633 171.149C229.643 174.973 232.606 178.822 235.743 182.515C237.315 184.355 238.932 186.158 240.654 187.833C241.5 188.67 242.395 189.459 243.334 190.196C244.218 190.902 245.22 191.453 246.295 191.827L245.501 192.164C246.558 190.165 247.537 188.081 248.458 185.993C249.38 183.901 250.242 181.785 251.044 179.644C251.845 177.505 252.592 175.348 253.285 173.173C253.991 171.002 254.583 168.8 255.15 166.593L255.226 167.086C254.526 165.806 253.986 164.45 253.617 163.044C253.237 161.65 253.026 160.218 252.987 158.776C252.917 155.857 253.723 152.982 255.305 150.507L255.214 150.838C255.176 148.868 255.279 146.897 255.524 144.941C255.635 143.925 255.886 142.929 256.268 141.979C256.385 141.715 256.536 141.467 256.719 141.241C256.943 140.959 257.26 140.76 257.616 140.678C257.806 140.641 258.003 140.644 258.193 140.685C258.343 140.728 258.49 140.78 258.634 140.839C258.777 140.891 258.912 140.964 259.033 141.057C259.162 141.133 259.281 141.225 259.387 141.331C260.114 142.137 260.573 143.141 260.7 144.209C260.867 145.184 260.97 146.169 261.01 147.158L261.102 148.6C261.112 149.045 261.202 149.485 261.367 149.9C261.741 150.735 262.311 151.47 263.032 152.047L263.174 152.163L263.172 152.335L263.172 152.341L263.033 152.055C263.977 152.833 265.287 153.381 266.362 152.89C267.442 152.415 267.944 151.087 268.522 149.942C269.62 147.568 270.553 145.106 271.491 142.652C272.431 140.196 273.352 137.732 274.363 135.297C274.855 134.066 275.417 132.864 276.046 131.695C276.214 131.385 276.426 131.101 276.676 130.849C276.759 130.772 276.857 130.712 276.964 130.672C277.038 130.647 277.117 130.64 277.194 130.652C277.245 130.66 277.296 130.673 277.344 130.69C277.508 130.737 277.672 130.794 277.836 130.852C278.184 130.973 278.501 131.166 278.765 131.418C279.018 131.684 279.205 132.005 279.31 132.354C279.923 135.035 279.471 137.705 278.867 140.267C278.577 141.552 278.236 142.824 277.97 144.095C277.827 144.714 277.74 145.344 277.71 145.977C277.689 146.245 277.73 146.514 277.829 146.765C277.981 147.048 278.152 147.354 278.298 147.648C278.898 148.838 279.437 150.047 279.927 151.283C280.455 152.53 280.843 153.829 281.084 155.157C281.136 155.845 281.124 156.536 281.047 157.221C280.988 157.89 280.888 158.551 280.777 159.21C280.544 160.524 280.228 161.822 279.83 163.096C279.009 165.626 277.974 168.084 276.735 170.444C275.556 172.81 274.292 175.126 273.188 177.477C272.633 178.639 272.172 179.841 271.809 181.074C271.48 182.312 271.268 183.578 271.175 184.854C270.909 187.458 270.654 190.08 270.308 192.689C269.954 195.298 269.542 197.902 268.983 200.48C268.739 201.775 268.391 203.05 268.1 204.335C267.744 205.606 267.423 206.886 267.02 208.143C265.51 213.206 263.25 218.025 260.311 222.446L260.196 222.374Z" fill="#00072D"/>
<path d="M250.225 195.384L245.715 193.033L246.515 191.945L250.225 195.384Z" fill="#00072D"/>
<path d="M226.089 171.314C226.934 169.982 227.852 168.699 228.797 167.432C229.741 166.152 230.771 164.936 231.881 163.791C232.451 163.188 233.092 162.654 233.792 162.201C233.984 162.102 234.224 161.971 234.383 161.905C234.553 161.835 234.72 161.756 234.882 161.669C235.211 161.503 235.523 161.308 235.817 161.088C237.01 160.089 238.144 159.024 239.213 157.898C240.339 156.785 241.476 155.675 242.653 154.609C243.82 153.533 245.058 152.523 246.205 151.483C247.367 150.456 248.435 149.332 249.395 148.122C249.862 147.524 250.266 146.881 250.6 146.202C250.94 145.566 251.096 144.851 251.049 144.134L251.043 144.092L251.044 144.076L251.044 144.07L251.049 144.129C251.024 143.945 250.959 143.768 250.857 143.612C250.812 143.544 250.756 143.485 250.691 143.437C250.675 143.424 250.656 143.413 250.636 143.406C250.61 143.4 250.584 143.4 250.558 143.404C250.143 143.514 249.751 143.697 249.403 143.943C248.624 144.45 247.875 144.999 247.158 145.586L244.993 147.367C244.812 147.518 244.631 147.667 244.438 147.813C244.332 147.911 244.206 147.986 244.069 148.035C243.933 148.085 243.787 148.107 243.642 148.1C243.489 148.074 243.345 148.009 243.225 147.914C243.104 147.818 243.01 147.694 242.952 147.553C242.85 147.315 242.792 147.061 242.779 146.804C242.769 145.847 242.947 144.896 243.303 144.005C243.616 143.12 243.987 142.256 244.414 141.418C245.27 139.749 246.254 138.163 247.214 136.574C248.203 135.036 249.091 133.437 249.874 131.789C250.038 131.427 250.141 131.04 250.179 130.645C250.198 130.547 250.178 130.446 250.124 130.362C250.077 130.326 250.02 130.303 249.961 130.298C249.613 130.349 249.28 130.475 248.986 130.665C248.608 130.889 248.247 131.139 247.904 131.412C246.486 132.578 245.157 133.844 243.929 135.201C242.673 136.551 241.456 137.957 240.275 139.364L240.031 139.654L239.637 139.626C237.047 139.526 234.489 140.216 232.317 141.6C230.062 143.005 228.004 144.691 226.195 146.618C224.365 148.578 222.662 150.649 221.098 152.819C220.219 153.905 219.106 154.788 217.838 155.404C216.605 156.023 215.279 156.446 213.909 156.658L213.887 156.525C216.516 155.942 218.855 154.479 220.498 152.387C221.941 150.095 223.564 147.917 225.354 145.874C227.166 143.791 229.263 141.964 231.586 140.443C233.995 138.846 236.87 138.06 239.777 138.204L239.138 138.466C240.345 137.015 241.602 135.631 242.913 134.275C244.215 132.892 245.62 131.605 247.117 130.424C247.512 130.122 247.928 129.847 248.363 129.602C248.864 129.289 249.444 129.117 250.039 129.105C250.244 129.121 250.444 129.179 250.624 129.276C250.805 129.373 250.963 129.506 251.087 129.667C251.298 129.969 251.392 130.336 251.351 130.7C251.294 131.225 251.145 131.737 250.913 132.214C250.061 133.895 249.077 135.508 247.969 137.039C246.923 138.576 245.873 140.103 244.966 141.701C244.51 142.495 244.114 143.32 243.781 144.171C243.434 144.997 243.25 145.88 243.239 146.773C243.248 147.188 243.411 147.648 243.697 147.675C243.971 147.724 244.371 147.319 244.727 147.056L246.877 145.255C247.606 144.664 248.324 144.059 249.115 143.521C249.523 143.215 249.986 142.985 250.48 142.844C250.57 142.828 250.662 142.828 250.753 142.843C250.848 142.861 250.938 142.897 251.019 142.949C251.149 143.031 251.263 143.135 251.355 143.257C251.523 143.481 251.639 143.738 251.693 144.011L251.698 144.031L251.699 144.07L251.699 144.076L251.694 144.019C251.81 144.865 251.682 145.726 251.324 146.505C251.007 147.254 250.611 147.969 250.143 148.639C249.221 149.954 248.169 151.178 247.003 152.294C245.849 153.42 244.643 154.423 243.488 155.491C242.323 156.549 241.159 157.605 240.021 158.695C238.893 159.835 237.697 160.91 236.439 161.913C236.094 162.162 235.726 162.379 235.34 162.561C235.147 162.652 234.949 162.734 234.747 162.805C234.534 162.881 234.429 162.95 234.261 163.019C233.611 163.401 233.009 163.856 232.467 164.375C230.226 166.579 228.133 168.922 226.201 171.39L226.089 171.314Z" fill="#00072D"/>
<path d="M236.582 142.134L239.209 138.455L240.202 139.379L236.582 142.134Z" fill="#00072D"/>
<path d="M248.914 143.97C249.588 142.04 250.354 140.153 251.114 138.264L252.292 135.447L253.512 132.651C254.329 130.788 255.187 128.944 256.037 127.096C256.92 125.264 257.77 123.416 258.68 121.597L259.101 120.756L259.975 121.1C262.93 122.263 265.867 123.469 268.787 124.719C270.24 125.36 271.703 125.976 273.145 126.646C274.594 127.297 276.032 127.975 277.466 128.664L277.76 128.805L277.639 129.051C277.173 129.993 276.694 130.931 276.201 131.863C276.474 130.848 276.765 129.839 277.066 128.835L277.239 129.222C275.714 128.758 274.193 128.283 272.683 127.781C271.166 127.298 269.67 126.761 268.165 126.249C265.166 125.194 262.185 124.095 259.223 122.951L260.518 122.454C259.647 124.292 258.716 126.102 257.818 127.927C256.888 129.737 255.964 131.55 255.001 133.345L253.55 136.034L252.057 138.704C251.036 140.471 250.021 142.242 248.914 143.97Z" fill="#00072D"/>
<path d="M246.272 152.042L245.961 152.639L253.639 156.47L253.95 155.873L246.272 152.042Z" fill="#00072D"/>
<path d="M272.913 130.864L262.797 152.334C261.76 151.561 261.035 150.455 260.749 149.211C260.42 146.798 260.749 141.81 258.118 141.167C255.488 140.523 255.817 150.82 255.817 150.82C255.503 151.309 255.222 151.817 254.974 152.341L249.132 149.211C251.166 146.71 251.55 145.035 251.372 144.076V144.069L251.413 143.969L260.749 125.723L272.913 130.864ZM236.557 222.509C232.73 221.54 229.066 220.036 225.677 218.044C222.277 216.08 219.03 213.872 215.962 211.44C212.874 209.033 209.931 206.453 207.147 203.715C206.448 203.032 205.76 202.34 205.08 201.628C204.394 200.891 203.766 200.184 203.118 199.45L201.204 197.246C200.568 196.484 199.955 195.796 199.325 194.888L200.058 195.302C198.327 195.156 196.634 194.73 195.045 194.043C193.48 193.384 192.015 192.519 190.69 191.47C188.071 189.374 185.972 186.724 184.553 183.719L184.031 182.605L183.771 182.048C183.697 181.858 183.636 181.663 183.568 181.471L182.776 179.162C182.528 178.389 182.388 177.59 182.19 176.806C181.983 176.026 181.824 175.234 181.714 174.435C181.514 172.837 181.217 171.257 181.16 169.641C181.076 168.032 181.107 166.42 181.252 164.815C181.537 161.607 182.314 158.46 183.557 155.478C184.174 153.988 184.934 152.557 185.825 151.206C186.734 149.852 187.83 148.628 189.084 147.57C190.383 146.538 191.892 145.787 193.51 145.368L194.739 145.122C195.153 145.077 195.572 145.071 195.988 145.045L196.614 145.017L197.235 145.071L198.479 145.18C201.72 145.822 204.809 147.054 207.587 148.811L206.96 149.533C204.334 147.101 201.265 145.174 197.911 143.851C194.578 142.491 191.046 141.654 187.447 141.373C183.844 141.135 180.226 141.338 176.675 141.977C174.811 142.316 172.924 142.509 171.03 142.557C170.041 142.575 169.053 142.498 168.08 142.327C166.99 142.149 165.966 141.694 165.111 141.009L163.858 139.94L165.434 139.351L165.437 139.35L167.334 138.641L166.75 140.586C165.728 144.084 164.974 147.652 164.496 151.259C164.349 152.161 164.246 153.07 164.147 153.978C164.05 154.887 163.924 155.793 163.852 156.704L163.661 159.439L163.569 160.807L163.539 162.178C163.292 169.492 163.855 176.811 165.219 184.007C165.592 185.799 165.873 187.614 166.409 189.369L167.129 192.024C167.374 192.907 167.583 193.802 167.916 194.659L169.732 199.861C170.436 201.556 171.18 203.238 171.902 204.932C172.631 206.625 173.448 208.281 174.349 209.894C175.221 211.527 176.123 213.144 177.041 214.752C177.967 216.355 178.922 217.943 179.965 219.471C180.486 220.235 181.032 220.982 181.62 221.692C181.91 222.048 182.224 222.385 182.559 222.701C182.872 223.024 183.253 223.277 183.676 223.441L183.626 223.636C183.156 223.491 182.725 223.245 182.363 222.917C181.997 222.614 181.652 222.287 181.33 221.94C180.691 221.249 180.089 220.526 179.526 219.774C178.391 218.283 177.346 216.733 176.331 215.167C175.312 213.602 174.353 212.004 173.412 210.395C172.439 208.799 171.55 207.155 170.746 205.471C169.947 203.782 169.126 202.099 168.344 200.399L166.355 195.159C165.997 194.293 165.762 193.389 165.491 192.495L164.695 189.809C164.108 188.03 163.776 186.19 163.353 184.37C161.785 177.054 161.11 169.581 161.341 162.109L161.375 160.708L161.471 159.311L161.67 156.516C161.746 155.586 161.876 154.659 161.976 153.731C162.076 152.802 162.188 151.874 162.353 150.953C162.896 147.235 163.725 143.562 164.832 139.965L166.145 141.201L166.143 141.202L166.466 139.544C167.049 139.999 167.741 140.302 168.476 140.424C169.316 140.58 170.169 140.656 171.024 140.65C172.814 140.626 174.6 140.463 176.365 140.165C180.077 139.558 183.855 139.424 187.603 139.765C191.357 140.131 195.022 141.109 198.447 142.658C201.894 144.158 205.027 146.272 207.685 148.893L210.576 151.838L207.059 149.615C204.44 147.823 201.483 146.559 198.361 145.894L197.184 145.779L196.595 145.721L196.006 145.742C195.615 145.763 195.22 145.763 194.83 145.801L193.675 146.02C192.147 146.4 190.718 147.092 189.483 148.051C187.096 150.14 185.279 152.78 184.199 155.731C183.039 158.657 182.37 161.747 182.217 164.882C182.135 166.443 182.164 168.008 182.304 169.566C182.417 171.122 182.769 172.661 183.017 174.204C183.15 174.973 183.332 175.734 183.561 176.481C183.78 177.229 183.941 177.996 184.205 178.727L185.041 180.901C185.112 181.082 185.176 181.265 185.252 181.443L185.518 181.959L186.048 182.99C187.432 185.728 189.402 188.141 191.825 190.065C193.026 191.01 194.355 191.789 195.773 192.38C197.15 192.99 198.618 193.38 200.122 193.537L200.603 193.58L200.855 193.952C201.319 194.635 201.976 195.414 202.575 196.139L204.449 198.336L206.34 200.504C206.985 201.206 207.651 201.902 208.325 202.587C209.672 203.959 211.056 205.298 212.477 206.603C213.183 207.259 213.888 207.917 214.617 208.549C215.337 209.191 216.062 209.827 216.809 210.439C219.757 212.929 222.876 215.22 226.142 217.296C229.388 219.418 232.908 221.106 236.61 222.315L236.557 222.509ZM269.278 195.914C271.082 194.965 272.913 194.082 274.758 193.233C275.676 192.798 276.608 192.397 277.533 191.978C278.457 191.557 279.395 191.171 280.326 190.766L280.736 190.587L281.128 190.86C282.105 191.546 283.041 192.286 283.931 193.076C284.842 193.83 285.669 194.664 286.509 195.485C288.128 197.18 289.616 198.991 290.958 200.903C293.618 204.73 296.117 208.612 298.377 212.656C298.999 213.64 299.498 214.683 300.026 215.717L300.823 217.267L301.219 218.045L301.561 218.845C302.007 219.916 302.46 220.989 302.885 222.071C303.326 223.149 303.601 224.281 303.96 225.387C304.649 227.61 305.212 229.868 305.647 232.152C306.108 234.432 306.247 236.761 306.505 239.066L306.602 239.932L305.711 240.138C304.202 240.487 302.68 240.786 301.165 241.111L296.602 242.018C295.078 242.309 293.551 242.588 292.021 242.855C290.486 243.1 288.957 243.373 287.414 243.585L287.365 243.39C288.833 242.877 290.317 242.426 291.793 241.948C293.275 241.489 294.76 241.044 296.249 240.613L300.722 239.348C302.219 238.949 303.709 238.524 305.212 238.149L304.418 239.221L303.965 235.864C303.866 234.741 303.708 233.623 303.493 232.515C303.064 230.301 302.753 228.057 302.098 225.889L301.666 224.247C301.518 223.701 301.4 223.146 301.201 222.615C300.834 221.544 300.494 220.462 300.148 219.379L299.896 218.563L299.589 217.768L298.969 216.177C298.552 215.116 298.147 214.046 297.626 213.028C295.712 208.864 293.132 205.026 289.982 201.658C288.438 199.959 286.813 198.348 285.202 196.735C284.368 195.957 283.567 195.145 282.721 194.385C281.895 193.609 280.999 192.876 280.151 192.187L280.953 192.282C279.996 192.624 279.047 192.985 278.084 193.311C277.122 193.64 276.167 193.986 275.198 194.298C273.269 194.943 271.325 195.554 269.355 196.1L269.278 195.914Z" fill="#00072D"/>
<path d="M164.786 144.07C155.145 144.969 145.525 146.029 135.926 147.252C131.129 147.869 126.343 148.553 121.581 149.352C116.825 150.164 112.079 151.07 107.454 152.297C105.169 152.857 102.957 153.668 100.859 154.716C100.394 154.965 99.9649 155.273 99.5828 155.633C99.4377 155.78 99.3143 155.946 99.2161 156.126C99.1917 156.207 99.1685 156.262 99.148 156.349L99.1295 156.658C99.1981 157.792 99.3458 158.922 99.5717 160.037C100.448 164.65 101.606 169.258 102.76 173.849C105.115 183.03 107.505 192.213 110.001 201.368L117.408 228.861L121.174 242.593L125.052 256.295C126.36 260.858 127.641 265.429 128.985 269.982L133.025 283.639C135.703 292.748 138.511 301.821 141.283 310.902L140.736 310.509L173.773 309.633L206.812 308.878L239.851 308.175L256.372 307.868L272.894 307.614L272.279 307.823L294.81 291.291C302.331 285.795 309.828 280.267 317.378 274.807L317.113 275.249C317.618 271.668 317.922 268.022 318.06 264.392C318.214 260.761 318.106 257.123 317.736 253.507C317.55 251.705 317.236 249.918 316.794 248.159C316.372 246.404 315.701 244.716 314.802 243.143C313.93 241.561 312.56 240.297 310.895 239.539C309.17 238.882 307.276 238.778 305.487 239.241L305.438 239.046C307.274 238.452 309.264 238.51 311.061 239.208C312.858 239.906 314.347 241.2 315.268 242.865C316.246 244.459 316.993 246.18 317.485 247.977C317.991 249.757 318.369 251.569 318.615 253.401C319.084 257.055 319.277 260.738 319.194 264.419C319.132 268.099 318.907 271.758 318.469 275.433L318.438 275.697L318.205 275.875C310.795 281.515 303.333 287.088 295.895 292.692L273.549 309.462L273.28 309.664L272.933 309.671L256.413 310.02L239.892 310.316L206.849 310.821L173.804 311.271L140.757 311.603L140.324 311.607L140.21 311.209L132.333 283.834L128.377 270.152L124.365 256.485L116.301 229.162C113.616 220.053 110.94 210.94 108.356 201.801L104.588 188.062C103.347 183.477 102.13 178.886 101.009 174.268C99.8875 169.647 98.7647 165.036 97.9079 160.322C97.672 159.11 97.5252 157.883 97.4688 156.651C97.4756 156.466 97.4957 156.265 97.515 156.073C97.5608 155.86 97.6272 155.651 97.7134 155.45C97.8918 155.103 98.1248 154.785 98.4037 154.508C98.8943 154.044 99.4472 153.648 100.047 153.33C102.271 152.23 104.617 151.384 107.039 150.81C111.76 149.637 116.542 148.714 121.364 148.043C126.165 147.33 130.977 146.734 135.796 146.206C140.612 145.666 145.441 145.241 150.27 144.852C155.1 144.464 159.932 144.118 164.771 143.869L164.786 144.07Z" fill="#00072D"/>
<path d="M272.912 308.643C272.912 308.643 271.926 246.866 269.316 237.214C266.706 227.561 190.375 236.656 167.376 233.835C160.157 232.95 154.807 228.722 151.171 224.505C147.998 220.774 145.602 216.472 144.117 211.841C133.047 178.089 128.281 164.159 123.978 158.545C119.539 152.753 98.3335 156.172 98.3335 156.172C96.854 163.854 140.745 311.057 140.745 311.057L272.912 308.643Z" fill="#00072D"/>
<path d="M122.492 152.24C125.489 152.239 128.448 152.903 131.145 154.182C133.842 155.462 136.207 157.324 138.062 159.627C138.998 160.779 139.832 162.007 140.555 163.297C141.241 164.602 141.831 165.953 142.32 167.341C142.843 168.725 143.252 170.115 143.627 171.509C144.019 172.902 144.36 174.303 144.708 175.702C146.093 181.296 147.341 186.9 148.869 192.417C150.299 197.931 152.237 203.307 154.659 208.479C155.881 211.024 157.408 213.419 159.207 215.612C160.98 217.797 163.238 219.56 165.809 220.767C166.123 220.926 166.451 221.06 166.788 221.167L167.787 221.525C168.484 221.675 169.149 221.899 169.874 221.993C171.315 222.189 172.744 222.465 174.201 222.598C175.656 222.735 177.112 222.877 178.571 222.99L182.958 223.242C188.816 223.49 194.683 223.547 200.55 223.478C206.417 223.464 212.282 223.233 218.145 223.035C224.008 222.817 229.868 222.504 235.728 222.244L244.516 221.794L248.908 221.557C250.343 221.497 251.81 221.334 253.288 221.251C259.19 220.819 265.114 220.757 271.024 221.066C274.062 221.186 277.07 221.701 279.969 222.598C280.754 222.865 281.5 223.232 282.187 223.689C283.028 224.221 283.645 225.03 283.928 225.97C284.247 227.545 284.419 228.913 284.59 230.373C285.834 241.856 286.496 253.314 287.104 264.809L287.2 266.97C287.216 267.326 287.228 267.694 287.231 268.071L287.235 268.347C287.245 268.385 287.235 268.427 287.245 268.463C287.258 268.537 287.288 268.607 287.333 268.668C287.513 268.839 287.729 268.968 287.967 269.046C288.204 269.125 288.456 269.151 288.705 269.123C289.37 269.101 290.029 268.988 290.662 268.787C292.007 268.345 293.295 267.753 294.501 267.022C295.74 266.29 296.934 265.489 298.079 264.623C302.655 261.053 306.912 257.109 310.806 252.834L310.961 252.965C309.108 255.197 307.173 257.364 305.156 259.466C303.142 261.581 300.993 263.57 298.724 265.421C297.578 266.352 296.378 267.217 295.13 268.013C293.865 268.838 292.507 269.517 291.082 270.036C290.326 270.304 289.535 270.464 288.733 270.513C288.288 270.534 287.843 270.485 287.414 270.366C286.906 270.231 286.456 269.941 286.129 269.537C285.952 269.311 285.827 269.05 285.763 268.772C285.734 268.634 285.717 268.495 285.71 268.354L285.697 268.092L285.641 267.041L285.5 264.899C285.093 259.177 284.629 253.456 284.109 247.735C283.581 242.022 283.113 236.293 282.413 230.624C282.333 229.912 282.223 229.217 282.134 228.512C282.091 228.157 282.034 227.814 281.974 227.474L281.887 226.962L281.843 226.706L281.821 226.578L281.8 226.505C281.644 226.059 281.332 225.682 280.918 225.441C280.389 225.093 279.815 224.813 279.212 224.61C276.502 223.791 273.698 223.303 270.866 223.156C265.052 222.786 259.221 222.781 253.407 223.139C251.953 223.203 250.5 223.349 249.001 223.395L244.598 223.566L235.791 223.838C229.92 224.01 224.046 224.079 218.172 224.136C206.425 224.228 194.679 224.261 182.931 223.894L178.524 223.717L174.118 223.421C172.648 223.335 171.181 223.104 169.71 222.952C168.976 222.882 168.232 222.669 167.492 222.531L166.411 222.185C166.046 222.082 165.691 221.95 165.348 221.791C162.56 220.597 160.088 218.797 158.117 216.529C156.155 214.304 154.479 211.852 153.129 209.227C150.537 204.001 148.52 198.52 147.111 192.877C145.602 187.293 144.414 181.653 143.157 176.054L142.177 171.869C141.85 170.474 141.489 169.09 141.034 167.764C140.61 166.422 140.088 165.111 139.472 163.842C138.823 162.593 138.067 161.4 137.212 160.276C135.492 158.017 133.302 156.141 130.787 154.771C130.478 154.589 130.156 154.428 129.823 154.291L128.838 153.847C128.156 153.617 127.488 153.33 126.783 153.162C125.392 152.749 123.953 152.507 122.5 152.441L122.492 152.24Z" fill="#00072D"/>
<path d="M287.5 268.344L286.473 292.234L285.445 268.344H287.5Z" fill="#00072D"/>
<path d="M275.311 308.643H270.516V353.045H275.311V308.643Z" fill="#00072D"/>
<path d="M319.893 267.58H315.098V311.982H319.893V267.58Z" fill="#00072D"/>
<path d="M145.26 308.643H140.465V353.045H145.26V308.643Z" fill="#00072D"/>
<path d="M356.386 284.456L358.72 297.703L360.7 320.003C360.7 320.003 347.836 322.351 342.9 321.389C342.9 321.389 331.93 304.281 322.556 287.702C316.318 276.646 311.652 264.808 308.688 252.516L305.465 239.142C305.132 234.786 304.39 230.47 303.246 226.248C305.472 224.261 307.604 222.196 309.707 220.102C311.817 218.016 313.87 215.873 315.929 213.744C316.833 212.789 317.729 211.827 318.632 210.865C322.73 210.072 326.961 210.247 330.976 211.374C333.127 212 335.14 213.015 336.909 214.366C338.654 215.728 340.12 217.401 341.231 219.296C342.277 221.243 343.136 223.282 343.796 225.385C344.519 227.493 345.141 229.636 345.726 231.8C346.882 236.114 347.887 240.478 348.819 244.856C350.77 253.591 352.389 262.411 354.015 271.223C354.839 275.629 355.62 280.043 356.386 284.456Z" fill="#00072D"/>
<path d="M373.087 309.387L358.72 297.703C358.258 293.241 357.658 288.799 357.087 284.35C356.458 279.909 355.801 275.472 355.114 271.04C354.442 266.605 353.633 262.192 352.838 257.778C352.021 253.365 351.168 248.952 350.229 244.56C349.253 240.175 348.205 235.804 346.991 231.461C346.384 229.29 345.734 227.133 344.982 224.997C344.278 222.82 343.34 220.721 342.185 218.737C340.949 216.771 339.349 215.049 337.466 213.659C335.579 212.293 333.442 211.292 331.171 210.71C328.922 210.152 326.602 209.919 324.284 210.017C322.415 210.075 320.557 210.324 318.741 210.759C319.832 209.6 320.931 208.447 322.008 207.28C324.046 205.13 325.99 202.902 328.15 200.858L327.204 201.459C326.886 201.671 326.597 201.904 326.293 202.131C325.693 202.576 325.122 203.057 324.544 203.531C323.402 204.493 322.289 205.486 321.205 206.509C319.016 208.524 316.934 210.646 314.874 212.782C312.829 214.932 310.82 217.118 308.876 219.36C306.932 221.595 305.032 223.872 303.246 226.248C296.959 203.029 280.641 191.522 280.641 191.522C280.641 191.522 316.97 171.577 328.476 180.588C339.981 189.591 345.242 193.778 360.693 236.893C376.152 280.008 384.607 296.932 384.607 296.932L373.087 309.387ZM343.003 316.428C343.142 319.504 342.905 322.585 342.296 325.605C342.109 326.367 341.85 327.11 341.523 327.825C341.244 328.513 341.006 329.217 340.809 329.932C340.401 331.326 340.33 332.793 340.601 334.218C340.919 335.6 341.676 336.848 342.763 337.784C343.035 338.023 343.32 338.246 343.618 338.454L344.078 338.754C344.251 338.866 344.428 338.978 344.588 339.098C345.158 339.565 345.777 339.972 346.435 340.312C347.827 340.853 349.305 341.154 350.803 341.203C352.338 341.308 353.891 341.33 355.445 341.313C361.67 341.12 367.879 340.561 374.036 339.64L392.535 337.021L391.97 337.58C391.953 337.464 391.927 337.35 391.892 337.238C391.837 337.08 391.767 336.928 391.681 336.784C391.499 336.468 391.277 336.176 391.02 335.914C390.469 335.355 389.851 334.864 389.179 334.452C387.777 333.599 386.291 332.883 384.744 332.316C383.175 331.733 381.594 331.247 379.946 330.773C378.308 330.287 376.684 329.748 375.074 329.173C371.82 328.072 368.699 326.625 365.767 324.86C364.288 323.968 362.953 322.867 361.803 321.593C360.614 320.324 359.946 318.67 359.928 316.948C359.928 316.931 359.936 316.916 359.948 316.904C359.96 316.893 359.976 316.886 359.993 316.886C360.01 316.886 360.027 316.892 360.039 316.903C360.051 316.915 360.059 316.93 360.06 316.947C360.215 318.588 360.968 320.119 362.182 321.261C363.371 322.414 364.716 323.404 366.178 324.201C369.141 325.78 372.25 327.08 375.464 328.082C378.66 329.16 381.965 329.863 385.245 331.03C386.892 331.626 388.47 332.388 389.953 333.305C390.722 333.783 391.423 334.359 392.036 335.018C392.362 335.364 392.641 335.75 392.867 336.165C393.153 336.642 393.296 337.189 393.279 337.741C393.275 337.878 393.221 338.009 393.128 338.11C393.034 338.211 392.906 338.276 392.768 338.294L392.714 338.301C386.529 339.076 380.333 339.791 374.118 340.329C367.9 340.848 361.706 341.509 355.467 341.905C353.907 342.004 352.341 342.068 350.762 342.04C349.137 342.07 347.519 341.816 345.985 341.288C345.251 340.941 344.557 340.516 343.916 340.023L342.943 339.396C342.605 339.162 342.28 338.911 341.97 338.643C340.699 337.544 339.834 336.066 339.509 334.437C339.236 332.846 339.345 331.214 339.828 329.672C340.045 328.916 340.324 328.178 340.661 327.465C341.009 326.805 341.293 326.114 341.507 325.401C342.233 322.455 342.689 319.452 342.871 316.426C342.871 316.418 342.873 316.41 342.877 316.402C342.881 316.394 342.886 316.387 342.892 316.382C342.899 316.376 342.906 316.371 342.914 316.369C342.923 316.366 342.931 316.364 342.94 316.365C342.956 316.366 342.972 316.373 342.983 316.385C342.995 316.397 343.002 316.412 343.003 316.428Z" fill="#00072D"/>
<path d="M347.777 324.678C347.767 325.697 347.998 326.704 348.453 327.621C348.684 328.055 348.994 328.444 349.368 328.77C349.766 329.116 350.192 329.429 350.643 329.707C350.078 329.653 349.533 329.469 349.054 329.17C348.553 328.866 348.145 328.436 347.871 327.925C347.603 327.427 347.455 326.875 347.439 326.312C347.423 325.749 347.538 325.19 347.777 324.678Z" fill="white"/>
<path d="M352.03 330.225L350.599 330.039C349.98 329.979 349.384 329.776 348.861 329.446C348.315 329.113 347.87 328.644 347.571 328.086C347.279 327.541 347.118 326.937 347.1 326.322C347.082 325.707 347.208 325.096 347.468 324.535L348.068 323.287L348.121 324.665C348.104 325.632 348.322 326.59 348.755 327.46C348.967 327.86 349.252 328.219 349.596 328.519C349.934 328.817 350.297 329.087 350.681 329.326L352.03 330.225ZM341.814 338.184C341.814 338.184 338.105 339.58 340.403 346.179C340.403 346.179 340.184 348.67 349.198 347.912L394.666 346.499C394.666 346.499 397.785 339.11 390.747 337.909L379.368 339.312C379.368 339.312 381.984 332.572 381.118 330.428C379.836 328.525 377.946 327.092 375.743 326.354C373.54 325.615 371.149 325.613 368.944 326.346C368.944 326.346 369.774 336.998 361.495 340.916C361.495 340.916 349.117 340.707 341.814 338.184ZM371.443 307.566C373.622 309.786 375.523 312.253 377.104 314.915C377.477 315.608 377.784 316.333 378.02 317.081C378.276 317.778 378.571 318.461 378.906 319.125C379.54 320.435 380.477 321.583 381.642 322.478C382.814 323.31 384.224 323.759 385.671 323.759C386.037 323.762 386.402 323.746 386.766 323.71L387.314 323.638C387.519 323.61 387.727 323.58 387.929 323.566C388.672 323.549 389.412 323.455 390.135 323.285C391.546 322.791 392.859 322.062 394.016 321.131C395.24 320.218 396.421 319.23 397.576 318.214C402.122 314.046 406.407 309.615 410.409 304.944L422.535 291.022L422.488 291.807C422.397 291.731 422.3 291.663 422.198 291.601C422.051 291.518 421.896 291.45 421.734 291.396C421.384 291.277 421.02 291.201 420.651 291.171C419.86 291.106 419.064 291.137 418.282 291.263C416.652 291.527 415.054 291.95 413.51 292.524C411.937 293.1 410.423 293.756 408.865 294.465C407.307 295.159 405.725 295.804 404.127 296.412C400.94 297.688 397.621 298.619 394.227 299.188C392.515 299.473 390.769 299.509 389.046 299.295C387.297 299.111 385.679 298.3 384.504 297.019C384.493 297.006 384.488 296.99 384.489 296.973C384.49 296.957 384.498 296.941 384.511 296.93C384.524 296.919 384.54 296.913 384.557 296.914C384.574 296.914 384.59 296.921 384.602 296.933C385.826 298.065 387.425 298.729 389.107 298.801C390.778 298.899 392.455 298.773 394.092 298.427C397.382 297.699 400.594 296.665 403.683 295.341C406.812 294.085 409.767 292.477 413.019 291.234C414.657 290.618 416.356 290.171 418.089 289.9C418.989 289.762 419.904 289.742 420.809 289.841C421.287 289.891 421.757 290 422.207 290.165C422.744 290.339 423.22 290.657 423.58 291.083C423.669 291.188 423.717 291.321 423.715 291.457C423.713 291.594 423.661 291.726 423.569 291.828L423.533 291.868C419.411 296.447 415.241 300.988 410.936 305.408C406.617 309.816 402.411 314.315 397.993 318.644C396.888 319.727 395.755 320.787 394.551 321.786C393.35 322.859 391.964 323.713 390.456 324.308C389.67 324.522 388.863 324.652 388.048 324.696L386.894 324.853C386.483 324.896 386.069 324.917 385.655 324.916C383.96 324.913 382.313 324.361 380.97 323.348C379.691 322.33 378.672 321.034 377.994 319.563C377.647 318.855 377.358 318.121 377.131 317.368C376.947 316.647 376.693 315.945 376.373 315.271C374.93 312.59 373.247 310.039 371.342 307.65C371.331 307.637 371.326 307.619 371.328 307.602C371.33 307.585 371.339 307.57 371.353 307.559C371.366 307.549 371.382 307.545 371.399 307.546C371.415 307.547 371.431 307.555 371.443 307.566Z" fill="#00072D"/>
<path d="M380.598 310.674C381.278 311.446 382.131 312.053 383.091 312.447C383.558 312.624 384.053 312.716 384.553 312.719C385.086 312.722 385.617 312.681 386.143 312.599C385.682 312.923 385.149 313.137 384.588 313.222C384.006 313.317 383.41 313.258 382.859 313.052C382.322 312.851 381.839 312.532 381.447 312.12C381.055 311.707 380.764 311.213 380.598 310.674Z" fill="white"/>
<path d="M384.063 313.607C383.612 313.603 383.164 313.522 382.741 313.368C382.154 313.148 381.626 312.799 381.197 312.348C380.768 311.898 380.45 311.357 380.267 310.768L379.876 309.446L380.845 310.444C381.486 311.181 382.295 311.76 383.208 312.133C383.637 312.297 384.093 312.382 384.553 312.385C385.008 312.391 385.462 312.36 385.911 312.29L387.53 312.094L386.333 312.878C385.827 313.234 385.243 313.467 384.627 313.556C384.441 313.591 384.252 313.608 384.063 313.607ZM385.23 324.672C385.23 324.672 383.387 328.117 389.566 331.588C389.566 331.588 391.081 333.601 397.339 327.207L430.532 296.763C430.532 296.763 427.889 289.199 421.793 292.844L414.194 301.251C414.194 301.251 411.611 294.5 409.514 293.449C407.268 292.848 404.881 292.994 402.729 293.863C400.576 294.732 398.778 296.275 397.617 298.25C397.617 298.25 405.427 305.713 401.854 314.005C401.854 314.005 392.417 321.848 385.23 324.672ZM358.024 86.9603V56.838C358.021 55.8091 357.602 54.8231 356.859 54.0956C356.115 53.368 355.108 52.958 354.057 52.9551H299.233C298.182 52.958 297.174 53.368 296.431 54.0956C295.688 54.8231 295.269 55.8091 295.266 56.838V153.79C295.266 154.82 295.684 155.808 296.427 156.538C297.171 157.267 298.18 157.678 299.233 157.68H354.057C355.11 157.678 356.119 157.267 356.862 156.538C357.606 155.808 358.024 154.82 358.024 153.79V127.642H351.296V147.778C351.295 148.631 350.949 149.449 350.332 150.053C349.716 150.656 348.88 150.995 348.008 150.996H305.282C304.411 150.995 303.576 150.655 302.961 150.052C302.345 149.448 302 148.631 302.001 147.778V62.8568C302 62.4345 302.084 62.0161 302.249 61.6257C302.413 61.2353 302.654 60.8804 302.959 60.5815C303.264 60.2825 303.626 60.0454 304.025 59.8836C304.423 59.7218 304.851 59.6386 305.282 59.6387H348.008C348.44 59.6385 348.867 59.7216 349.266 59.8832C349.665 60.0448 350.028 60.2819 350.333 60.5807C350.639 60.8796 350.881 61.2344 351.046 61.625C351.211 62.0155 351.296 62.4341 351.296 62.8568V86.9603H358.024Z" fill="#00072D"/>
<path d="M314.81 148.212C314.673 148.213 314.539 148.18 314.419 148.116C314.299 148.053 314.197 147.962 314.122 147.851L310.457 142.438C310.374 142.316 310.327 142.175 310.32 142.029C310.313 141.883 310.347 141.738 310.417 141.61C310.488 141.481 310.592 141.374 310.72 141.299C310.848 141.224 310.995 141.184 311.144 141.184C311.897 141.184 312.62 140.891 313.152 140.37C313.685 139.849 313.984 139.142 313.984 138.404C313.984 137.667 313.685 136.96 313.152 136.439C312.62 135.917 311.897 135.625 311.144 135.625C311.035 135.625 310.928 135.604 310.827 135.564C310.727 135.523 310.636 135.464 310.559 135.389C310.482 135.314 310.421 135.225 310.379 135.127C310.338 135.029 310.316 134.923 310.316 134.817C310.316 134.711 310.338 134.606 310.379 134.508C310.421 134.41 310.482 134.32 310.559 134.245C310.636 134.17 310.727 134.111 310.827 134.071C310.928 134.03 311.035 134.009 311.144 134.01C312.213 134.01 313.247 134.383 314.059 135.063C314.872 135.742 315.411 136.683 315.578 137.716C315.746 138.749 315.531 139.807 314.973 140.699C314.415 141.591 313.551 142.259 312.534 142.583L315.496 146.959C315.579 147.081 315.626 147.222 315.633 147.368C315.64 147.513 315.606 147.658 315.536 147.787C315.466 147.915 315.361 148.023 315.233 148.098C315.105 148.173 314.959 148.212 314.81 148.212H314.81Z" fill="#00072D"/>
<path d="M317.651 135.625H306.855C306.746 135.625 306.639 135.604 306.538 135.564C306.438 135.523 306.347 135.464 306.27 135.389C306.193 135.314 306.132 135.225 306.09 135.127C306.049 135.029 306.027 134.923 306.027 134.817C306.027 134.711 306.049 134.606 306.09 134.508C306.132 134.41 306.193 134.32 306.27 134.245C306.347 134.17 306.438 134.111 306.538 134.071C306.639 134.03 306.746 134.009 306.855 134.01H317.651C317.759 134.009 317.867 134.03 317.967 134.071C318.068 134.111 318.159 134.17 318.236 134.245C318.313 134.32 318.374 134.41 318.415 134.508C318.457 134.606 318.478 134.711 318.478 134.817C318.478 134.923 318.457 135.029 318.415 135.127C318.374 135.225 318.313 135.314 318.236 135.389C318.159 135.464 318.068 135.523 317.967 135.564C317.867 135.604 317.759 135.625 317.651 135.625ZM317.651 142.799H306.855C306.746 142.799 306.639 142.779 306.538 142.738C306.438 142.698 306.347 142.638 306.27 142.563C306.193 142.488 306.132 142.399 306.09 142.301C306.049 142.203 306.027 142.098 306.027 141.992C306.027 141.885 306.049 141.78 306.09 141.682C306.132 141.584 306.193 141.495 306.27 141.42C306.347 141.345 306.438 141.285 306.538 141.245C306.639 141.205 306.746 141.184 306.855 141.184H317.651C317.759 141.184 317.867 141.205 317.967 141.245C318.068 141.285 318.159 141.345 318.236 141.42C318.313 141.495 318.374 141.584 318.415 141.682C318.457 141.78 318.478 141.885 318.478 141.992C318.478 142.098 318.457 142.203 318.415 142.301C318.374 142.399 318.313 142.488 318.236 142.563C318.159 142.638 318.068 142.698 317.967 142.738C317.867 142.779 317.759 142.799 317.651 142.799ZM329.366 148.212C329.23 148.213 329.096 148.18 328.976 148.116C328.856 148.053 328.753 147.962 328.678 147.851L325.013 142.438C324.93 142.316 324.883 142.175 324.876 142.029C324.869 141.883 324.903 141.738 324.973 141.61C325.044 141.481 325.148 141.374 325.276 141.299C325.404 141.224 325.551 141.184 325.7 141.184C326.453 141.184 327.176 140.891 327.708 140.37C328.241 139.849 328.54 139.142 328.54 138.404C328.54 137.667 328.241 136.96 327.708 136.439C327.176 135.917 326.453 135.625 325.7 135.625C325.482 135.624 325.272 135.539 325.118 135.387C324.964 135.236 324.877 135.031 324.877 134.817C324.877 134.603 324.964 134.398 325.118 134.247C325.272 134.096 325.482 134.01 325.7 134.01C326.769 134.01 327.803 134.383 328.616 135.062C329.429 135.742 329.968 136.683 330.135 137.716C330.303 138.749 330.088 139.807 329.53 140.699C328.972 141.592 328.107 142.26 327.09 142.584L330.053 146.959C330.135 147.081 330.182 147.222 330.189 147.368C330.196 147.513 330.163 147.658 330.092 147.787C330.022 147.915 329.917 148.023 329.789 148.098C329.662 148.173 329.515 148.212 329.366 148.212Z" fill="#00072D"/>
<path d="M332.21 135.625H321.413C321.305 135.625 321.197 135.604 321.097 135.564C320.997 135.523 320.905 135.464 320.828 135.389C320.752 135.314 320.691 135.225 320.649 135.127C320.607 135.029 320.586 134.923 320.586 134.817C320.586 134.711 320.607 134.606 320.649 134.508C320.691 134.41 320.752 134.32 320.828 134.245C320.905 134.17 320.997 134.111 321.097 134.071C321.197 134.03 321.305 134.009 321.413 134.01H332.21C332.319 134.009 332.426 134.03 332.527 134.071C332.627 134.111 332.718 134.17 332.795 134.245C332.872 134.32 332.933 134.41 332.975 134.508C333.016 134.606 333.038 134.711 333.038 134.817C333.038 134.923 333.016 135.029 332.975 135.127C332.933 135.225 332.872 135.314 332.795 135.389C332.718 135.464 332.627 135.523 332.527 135.564C332.426 135.604 332.319 135.625 332.21 135.625ZM332.21 142.799H321.413C321.305 142.799 321.197 142.779 321.097 142.738C320.997 142.698 320.905 142.639 320.828 142.563C320.752 142.488 320.691 142.399 320.649 142.301C320.607 142.203 320.586 142.098 320.586 141.992C320.586 141.885 320.607 141.78 320.649 141.682C320.691 141.584 320.752 141.495 320.828 141.42C320.905 141.345 320.997 141.285 321.097 141.245C321.197 141.205 321.305 141.184 321.413 141.184H332.21C332.319 141.184 332.426 141.205 332.527 141.245C332.627 141.285 332.718 141.345 332.795 141.42C332.872 141.495 332.933 141.584 332.975 141.682C333.016 141.78 333.038 141.885 333.038 141.992C333.038 142.098 333.016 142.203 332.975 142.301C332.933 142.399 332.872 142.488 332.795 142.563C332.718 142.639 332.627 142.698 332.527 142.738C332.426 142.779 332.319 142.799 332.21 142.799ZM343.596 148.212C343.46 148.213 343.326 148.18 343.205 148.116C343.085 148.053 342.983 147.962 342.908 147.851L339.242 142.438C339.16 142.316 339.113 142.175 339.106 142.029C339.099 141.883 339.132 141.738 339.203 141.61C339.273 141.481 339.378 141.374 339.506 141.299C339.634 141.224 339.781 141.184 339.93 141.184C340.683 141.184 341.405 140.891 341.938 140.37C342.471 139.849 342.77 139.142 342.77 138.404C342.77 137.667 342.471 136.96 341.938 136.439C341.405 135.917 340.683 135.625 339.93 135.625C339.821 135.625 339.714 135.604 339.613 135.564C339.513 135.523 339.422 135.464 339.345 135.389C339.268 135.314 339.207 135.225 339.165 135.127C339.124 135.029 339.102 134.923 339.102 134.817C339.102 134.711 339.124 134.606 339.165 134.508C339.207 134.41 339.268 134.32 339.345 134.245C339.422 134.17 339.513 134.111 339.613 134.071C339.714 134.03 339.821 134.009 339.93 134.01C340.999 134.01 342.033 134.383 342.846 135.062C343.659 135.742 344.197 136.683 344.365 137.716C344.532 138.749 344.318 139.807 343.76 140.699C343.202 141.592 342.336 142.26 341.32 142.584L344.283 146.959C344.365 147.081 344.412 147.222 344.419 147.368C344.426 147.513 344.393 147.658 344.322 147.787C344.252 147.915 344.147 148.023 344.019 148.098C343.891 148.173 343.745 148.212 343.596 148.212Z" fill="#00072D"/>
<path d="M346.436 135.626H335.639C335.531 135.626 335.423 135.606 335.323 135.565C335.223 135.525 335.131 135.465 335.054 135.39C334.978 135.315 334.917 135.226 334.875 135.128C334.833 135.03 334.812 134.925 334.812 134.819C334.812 134.712 334.833 134.607 334.875 134.509C334.917 134.411 334.978 134.322 335.054 134.247C335.131 134.172 335.223 134.112 335.323 134.072C335.423 134.032 335.531 134.011 335.639 134.011H346.436C346.545 134.011 346.652 134.032 346.753 134.072C346.853 134.112 346.944 134.172 347.021 134.247C347.098 134.322 347.159 134.411 347.201 134.509C347.242 134.607 347.264 134.712 347.264 134.819C347.264 134.925 347.242 135.03 347.201 135.128C347.159 135.226 347.098 135.315 347.021 135.39C346.944 135.465 346.853 135.525 346.753 135.565C346.652 135.606 346.545 135.626 346.436 135.626H346.436ZM346.436 142.801H335.639C335.531 142.801 335.423 142.78 335.323 142.74C335.223 142.699 335.131 142.64 335.054 142.565C334.978 142.49 334.917 142.401 334.875 142.303C334.833 142.205 334.812 142.099 334.812 141.993C334.812 141.887 334.833 141.782 334.875 141.684C334.917 141.585 334.978 141.496 335.054 141.421C335.131 141.346 335.223 141.287 335.323 141.246C335.423 141.206 335.531 141.185 335.639 141.186H346.436C346.545 141.185 346.652 141.206 346.753 141.246C346.853 141.287 346.944 141.346 347.021 141.421C347.098 141.496 347.159 141.585 347.201 141.684C347.242 141.782 347.264 141.887 347.264 141.993C347.264 142.099 347.242 142.205 347.201 142.303C347.159 142.401 347.098 142.49 347.021 142.565C346.944 142.64 346.853 142.699 346.753 142.74C346.652 142.78 346.545 142.801 346.436 142.801H346.436ZM399.694 86.8903C400.313 86.8915 400.912 87.1121 401.379 87.5112C401.845 87.9103 402.149 88.4611 402.233 89.062C402.284 90.2455 402.247 91.3971 402.271 92.5662C402.301 94.8962 402.309 97.2262 402.361 99.5562L402.626 113.536L402.746 120.526L402.789 124.021L402.794 124.895C402.81 125.232 402.785 125.569 402.719 125.9C402.553 126.622 402.123 127.259 401.51 127.69C401.206 127.906 400.865 128.065 400.504 128.162C400.161 128.249 399.807 128.286 399.453 128.274L397.667 128.276L394.096 128.26L386.954 128.229L372.669 128.037L365.526 127.934L358.384 127.888C348.861 127.815 339.337 127.916 329.814 128.03C329.111 128.035 328.43 127.79 327.898 127.34C327.365 126.891 327.017 126.268 326.919 125.586C326.89 125.278 326.877 124.968 326.881 124.659L326.869 123.785L326.844 122.038L326.764 115.048L326.658 101.068L326.621 94.0779L326.603 90.583L326.598 89.7092C326.582 89.3638 326.609 89.0179 326.676 88.6785C326.805 88.1194 327.087 87.6052 327.492 87.1912C327.897 86.7773 328.409 86.4792 328.974 86.3291C329.162 86.2786 329.354 86.2452 329.548 86.2295L329.832 86.2161L330.055 86.215L331.841 86.2109L335.412 86.2178L342.554 86.2317C352.077 86.2298 361.601 86.2984 371.124 86.4955C380.647 86.6795 390.17 86.8956 399.694 86.8903ZM399.694 87.0318C390.17 87.0265 380.647 87.2426 371.124 87.4265C361.601 87.6237 352.077 87.6923 342.554 87.6904L335.412 87.7042L331.841 87.7111L330.055 87.7071L329.832 87.706L329.67 87.7124C329.567 87.7195 329.465 87.7361 329.365 87.7621C329.063 87.8391 328.788 87.9952 328.57 88.2136C328.352 88.4321 328.199 88.7046 328.127 89.0019C328.081 89.2349 328.065 89.4723 328.077 89.7092L328.072 90.583L328.054 94.0779L328.017 101.068L327.911 115.048L327.831 122.038L327.806 123.785L327.794 124.659C327.793 124.947 327.777 125.261 327.801 125.477C327.859 125.962 328.096 126.409 328.466 126.736C328.836 127.063 329.315 127.248 329.814 127.256C339.337 127.37 348.861 127.47 358.384 127.398L365.526 127.352L372.669 127.249L386.954 127.057L394.096 127.025L397.667 127.01L399.453 127.012C399.694 127.028 399.937 127.008 400.172 126.952C400.386 126.897 400.588 126.805 400.769 126.68C401.136 126.429 401.395 126.054 401.498 125.627C401.546 125.386 401.563 125.14 401.551 124.895L401.556 124.021L401.599 120.526L401.719 113.536L401.984 99.5562C402.036 97.2262 402.044 94.8962 402.074 92.5663C402.078 91.4063 402.105 90.225 402.068 89.0826C401.992 88.518 401.709 87.9994 401.273 87.6225C400.837 87.2456 400.276 87.0358 399.694 87.0318V87.0318Z" fill="#00072D"/>
<path d="M402.171 95.4023H327.34V99.4387H402.171V95.4023Z" fill="#00072D"/>
<path d="M392.47 123.236C394.684 123.236 396.479 121.479 396.479 119.312C396.479 117.145 394.684 115.389 392.47 115.389C390.256 115.389 388.461 117.145 388.461 119.312C388.461 121.479 390.256 123.236 392.47 123.236Z" fill="#00072D"/>
<path d="M338.555 61.2563H314.739C314.522 61.2568 314.307 61.2153 314.107 61.1344C313.906 61.0535 313.724 60.9346 313.57 60.7847C313.417 60.6347 313.295 60.4566 313.212 60.2605C313.129 60.0644 313.086 59.8541 313.086 59.6418C313.086 59.4295 313.129 59.2193 313.212 59.0232C313.295 58.8271 313.417 58.649 313.57 58.499C313.724 58.349 313.906 58.2302 314.107 58.1492C314.307 58.0683 314.522 58.0269 314.739 58.0273H338.555C338.772 58.0269 338.987 58.0683 339.187 58.1492C339.388 58.2302 339.57 58.349 339.724 58.499C339.877 58.649 339.999 58.8271 340.082 59.0232C340.165 59.2193 340.208 59.4295 340.208 59.6418C340.208 59.8541 340.165 60.0644 340.082 60.2605C339.999 60.4566 339.877 60.6347 339.724 60.7847C339.57 60.9346 339.388 61.0535 339.187 61.1344C338.987 61.2153 338.772 61.2568 338.555 61.2563ZM327.34 103.726V117.708C325.479 117.659 323.711 116.9 322.412 115.595C321.113 114.289 320.387 112.539 320.387 110.717C320.387 108.895 321.113 107.144 322.412 105.839C323.711 104.533 325.479 103.775 327.34 103.726Z" fill="#00072D"/>
<path d="M351.294 67.7305H302V70.1517H351.294V67.7305Z" fill="#00072D"/>
<path d="M273.923 174.627C274.686 175.018 275.391 175.51 276.017 176.09C276.349 176.395 276.635 176.744 276.869 177.127C277.156 177.567 277.28 178.091 277.219 178.61C277.166 178.897 277.047 179.169 276.87 179.405C276.701 179.619 276.495 179.802 276.26 179.945C275.843 180.19 275.386 180.364 274.909 180.459C274.039 180.633 273.146 180.676 272.262 180.587C270.573 180.36 268.906 179.999 267.277 179.507C265.653 179.075 264.023 178.673 262.398 178.212C260.76 177.772 259.165 177.193 257.631 176.479C256.064 175.787 254.579 174.93 253.203 173.922C252.498 173.391 251.859 172.783 251.297 172.109C250.998 171.745 250.75 171.343 250.561 170.915C250.33 170.415 250.292 169.85 250.454 169.324C250.551 169.071 250.701 168.84 250.894 168.647C251.087 168.453 251.319 168.301 251.575 168.2C252 168.02 252.452 167.911 252.914 167.875C253.773 167.81 254.638 167.86 255.483 168.023L255.477 168.157C254.655 168.214 253.84 168.345 253.043 168.549C252.678 168.645 252.328 168.791 252.004 168.983C251.878 169.05 251.766 169.142 251.677 169.253C251.588 169.364 251.524 169.492 251.487 169.629C251.39 170.081 251.805 170.741 252.314 171.273C252.855 171.832 253.45 172.339 254.091 172.786C255.402 173.735 256.78 174.593 258.213 175.355C259.667 176.108 261.145 176.839 262.657 177.523C265.661 178.94 268.976 179.61 272.308 179.472C273.096 179.475 273.883 179.416 274.661 179.297C275.398 179.166 276.073 178.861 276.176 178.416C276.227 178.115 276.182 177.807 276.047 177.532C275.889 177.189 275.695 176.863 275.467 176.559C274.965 175.918 274.422 175.308 273.84 174.735L273.923 174.627Z" fill="#00072D"/>
<path d="M271.989 179.33C272.771 179.704 273.505 180.168 274.175 180.712C274.524 180.991 274.842 181.306 275.124 181.651C275.446 182.021 275.679 182.457 275.808 182.927C275.883 183.21 275.888 183.506 275.824 183.791C275.759 184.076 275.627 184.342 275.438 184.567C275.077 184.953 274.617 185.237 274.107 185.39C273.229 185.655 272.309 185.755 271.393 185.685C269.67 185.504 267.966 185.17 266.304 184.688C264.649 184.269 262.992 183.871 261.338 183.416C259.672 182.981 258.049 182.403 256.487 181.688C254.893 180.996 253.379 180.138 251.972 179.13C251.255 178.599 250.599 177.994 250.016 177.324C249.709 176.965 249.448 176.57 249.239 176.149C248.989 175.663 248.909 175.109 249.013 174.575C249.087 174.306 249.22 174.056 249.403 173.843C249.586 173.63 249.815 173.459 250.073 173.341C250.5 173.142 250.96 173.019 251.431 172.977C252.303 172.899 253.182 172.943 254.042 173.106L254.036 173.24C253.202 173.296 252.376 173.433 251.569 173.649C251.202 173.75 250.853 173.904 250.533 174.106C250.411 174.18 250.307 174.278 250.228 174.394C250.148 174.51 250.095 174.642 250.071 174.78C250.16 175.437 250.496 176.039 251.013 176.467C251.577 177.026 252.191 177.534 252.848 177.985C254.19 178.936 255.598 179.796 257.061 180.559C258.543 181.314 260.049 182.046 261.591 182.725C263.131 183.411 264.745 183.927 266.402 184.264C268.05 184.558 269.729 184.66 271.402 184.569C272.187 184.554 272.968 184.451 273.729 184.262C274.039 184.187 274.325 184.035 274.559 183.821C274.649 183.732 274.716 183.622 274.752 183.501C274.788 183.381 274.793 183.253 274.766 183.13C274.565 182.413 274.185 181.756 273.661 181.218C273.128 180.604 272.523 180.025 271.91 179.439L271.989 179.33Z" fill="#00072D"/>
</svg>
