<svg width="520" height="520" viewBox="0 0 520 520" fill="none" xmlns="http://www.w3.org/2000/svg">
<path d="M224.315 520C333.697 520 422.368 514.308 422.368 507.286C422.368 500.265 333.697 494.572 224.315 494.572C114.933 494.572 26.2617 500.265 26.2617 507.286C26.2617 514.308 114.933 520 224.315 520Z" fill="#6B7588"/>
<path opacity="0.8" d="M224.315 520C333.697 520 422.368 514.308 422.368 507.286C422.368 500.265 333.697 494.572 224.315 494.572C114.933 494.572 26.2617 500.265 26.2617 507.286C26.2617 514.308 114.933 520 224.315 520Z" fill="white"/>
<path d="M373.146 23.8223H174.004C160.255 23.8223 149.109 35.3074 149.109 49.4749V482.705C149.109 496.873 160.255 508.358 174.004 508.358H373.146C386.895 508.358 398.041 496.873 398.041 482.705V49.4749C398.041 35.3074 386.895 23.8223 373.146 23.8223Z" fill="#0A2472"/>
<path d="M386.972 77.0293H160.168V455.152H386.972V77.0293Z" fill="white" stroke="#0A2472" stroke-width="1.33739" stroke-miterlimit="10"/>
<path d="M308.333 230.141C327.532 210.358 327.532 178.283 308.333 158.499C289.135 138.716 258.008 138.716 238.809 158.499C219.61 178.283 219.61 210.358 238.809 230.141C258.008 249.925 289.135 249.925 308.333 230.141Z" fill="#F2F2F5"/>
<path d="M338.116 431.371H209.045C208.754 431.373 208.466 431.316 208.197 431.202C207.929 431.089 207.684 430.922 207.478 430.711C207.272 430.5 207.109 430.249 206.997 429.973C206.886 429.696 206.828 429.4 206.828 429.1C206.826 428.8 206.883 428.502 206.993 428.224C207.104 427.946 207.267 427.694 207.474 427.482C207.68 427.269 207.925 427.101 208.194 426.987C208.464 426.873 208.753 426.815 209.045 426.816H338.116C338.407 426.816 338.694 426.876 338.963 426.991C339.231 427.105 339.474 427.274 339.679 427.486C339.884 427.698 340.046 427.95 340.156 428.227C340.266 428.504 340.322 428.801 340.32 429.1C340.32 429.703 340.088 430.28 339.675 430.706C339.261 431.132 338.701 431.371 338.116 431.371Z" fill="#F2F2F5"/>
<path d="M342.322 273.457H204.833C201.996 273.457 199.695 275.827 199.695 278.751V295.453C199.695 298.377 201.996 300.747 204.833 300.747H342.322C345.16 300.747 347.46 298.377 347.46 295.453V278.751C347.46 275.827 345.16 273.457 342.322 273.457Z" fill="#F2F2F5"/>
<path d="M342.322 324.498H204.833C201.996 324.498 199.695 326.868 199.695 329.792V346.494C199.695 349.418 201.996 351.788 204.833 351.788H342.322C345.16 351.788 347.46 349.418 347.46 346.494V329.792C347.46 326.868 345.16 324.498 342.322 324.498Z" fill="#F2F2F5"/>
<path d="M298.056 219.59L283.59 211.009V203.919C285.685 201.308 287.202 198.258 288.036 194.981C288.534 195.163 289.058 195.257 289.587 195.258C291.38 195.258 292.521 189.528 292.713 185.435C294.801 180.88 291.957 178.213 291.957 178.213C291.957 178.213 293.136 176.999 293.917 172.127C294.699 167.255 291.163 169.288 288.408 164.826C285.653 160.364 283.68 155.505 274.635 155.505C272.142 155.421 269.683 156.111 267.576 157.486C265.469 158.861 263.813 160.857 262.822 163.215C260.57 163.224 258.326 163.494 256.134 164.021C253.366 164.826 252.585 174.16 254.942 177.817C255.997 179.816 256.561 182.051 256.582 184.326C255.954 183.534 255.301 183.323 254.942 185.118C254.161 189.172 257.312 194.849 257.312 194.849L258.94 194.373C259.759 197.875 261.341 201.139 263.565 203.919V211.009L249.1 219.59C247.41 220.595 246.007 222.041 245.031 223.781C244.055 225.521 243.541 227.496 243.539 229.506V234.417C252.142 241.265 262.706 244.981 273.578 244.981C284.449 244.981 295.013 241.265 303.616 234.417V229.506C303.617 227.495 303.104 225.52 302.127 223.779C301.151 222.038 299.747 220.593 298.056 219.59Z" fill="#0A2472"/>
<path d="M218.414 345.003C218.082 344.998 217.765 344.861 217.529 344.62C217.403 344.504 217.303 344.362 217.234 344.202C217.166 344.043 217.131 343.87 217.132 343.696C217.136 343.458 217.203 343.225 217.324 343.023L219.631 339.22L215.134 339.366C214.964 339.377 214.794 339.351 214.635 339.289C214.476 339.228 214.332 339.132 214.211 339.009C214.002 338.767 213.887 338.455 213.887 338.131C213.887 337.808 214.002 337.495 214.211 337.253C214.329 337.126 214.473 337.026 214.632 336.963C214.792 336.899 214.963 336.872 215.134 336.884L219.567 337.055L217.286 333.266C217.162 333.06 217.095 332.822 217.094 332.58C217.093 332.405 217.127 332.233 217.196 332.073C217.264 331.914 217.365 331.772 217.491 331.655C217.727 331.415 218.043 331.277 218.375 331.273C218.593 331.274 218.807 331.339 218.991 331.461C219.174 331.582 219.321 331.755 219.413 331.959L221.604 336.039L223.769 331.985C223.872 331.769 224.03 331.586 224.226 331.456C224.423 331.325 224.65 331.253 224.884 331.246C225.046 331.247 225.206 331.283 225.353 331.351C225.501 331.419 225.634 331.518 225.742 331.642C225.977 331.893 226.106 332.231 226.101 332.58C226.1 332.806 226.043 333.029 225.934 333.226L223.615 337.055L228.112 336.884C228.283 336.872 228.454 336.899 228.614 336.963C228.773 337.026 228.917 337.126 229.035 337.253C229.253 337.487 229.373 337.8 229.368 338.125C229.367 338.452 229.249 338.767 229.035 339.009C228.914 339.132 228.77 339.228 228.611 339.289C228.452 339.351 228.282 339.377 228.112 339.366L223.59 339.22L225.845 342.983C225.971 343.193 226.038 343.436 226.037 343.683C226.037 344.033 225.902 344.369 225.662 344.617C225.421 344.864 225.095 345.003 224.756 345.003C224.536 345 224.322 344.931 224.14 344.804C223.958 344.678 223.816 344.499 223.731 344.29L221.591 340.329L219.464 344.29C219.37 344.497 219.222 344.673 219.036 344.799C218.851 344.925 218.635 344.996 218.414 345.003Z" fill="#0A2472"/>
<path d="M239.19 345.003C238.859 344.998 238.542 344.861 238.306 344.62C238.18 344.504 238.079 344.362 238.011 344.202C237.943 344.043 237.908 343.87 237.909 343.696C237.913 343.458 237.979 343.225 238.101 343.023L240.407 339.22L235.923 339.366C235.752 339.374 235.581 339.346 235.42 339.285C235.26 339.224 235.113 339.13 234.988 339.009C234.818 338.828 234.704 338.599 234.663 338.351C234.621 338.103 234.652 337.848 234.753 337.618C234.854 337.389 235.02 337.196 235.228 337.065C235.437 336.934 235.679 336.871 235.923 336.884L240.343 337.055L238.063 333.266C237.939 333.06 237.872 332.822 237.871 332.58C237.869 332.405 237.904 332.233 237.973 332.073C238.041 331.914 238.142 331.772 238.268 331.655C238.503 331.415 238.82 331.277 239.152 331.273C239.37 331.274 239.583 331.339 239.767 331.461C239.951 331.582 240.097 331.755 240.19 331.959L242.38 336.039L244.546 331.985C244.648 331.769 244.807 331.586 245.003 331.456C245.2 331.325 245.427 331.253 245.66 331.246C245.823 331.245 245.983 331.28 246.131 331.349C246.279 331.417 246.411 331.517 246.519 331.642C246.638 331.766 246.732 331.912 246.795 332.073C246.859 332.234 246.891 332.406 246.89 332.58C246.886 332.808 246.824 333.03 246.711 333.226L244.392 337.055L248.902 336.91C249.071 336.898 249.24 336.925 249.397 336.989C249.555 337.053 249.696 337.152 249.812 337.28C250.03 337.513 250.15 337.827 250.145 338.151C250.144 338.478 250.025 338.793 249.812 339.036C249.693 339.158 249.551 339.254 249.394 339.315C249.237 339.377 249.069 339.403 248.902 339.392L244.366 339.247L246.621 343.01C246.748 343.22 246.814 343.462 246.814 343.709C246.814 344.06 246.679 344.395 246.438 344.643C246.198 344.891 245.872 345.03 245.532 345.03C245.313 345.027 245.099 344.958 244.916 344.831C244.734 344.704 244.592 344.525 244.507 344.317L242.368 340.356L240.241 344.317C240.143 344.519 239.993 344.69 239.808 344.811C239.623 344.932 239.409 344.998 239.19 345.003Z" fill="#0A2472"/>
<path d="M259.991 345.003C259.655 345.002 259.333 344.864 259.094 344.62C258.968 344.504 258.867 344.362 258.799 344.202C258.73 344.043 258.696 343.87 258.697 343.696C258.701 343.458 258.767 343.225 258.889 343.023L261.195 339.22L256.711 339.366C256.47 339.376 256.231 339.311 256.025 339.181C255.819 339.05 255.655 338.86 255.555 338.633C255.455 338.407 255.422 338.154 255.462 337.909C255.501 337.663 255.61 337.435 255.776 337.253C255.897 337.126 256.043 337.027 256.204 336.963C256.366 336.9 256.539 336.872 256.711 336.884L261.131 337.055L258.851 333.266C258.727 333.06 258.66 332.822 258.659 332.58C258.663 332.406 258.7 332.235 258.768 332.077C258.836 331.918 258.934 331.775 259.056 331.655C259.294 331.411 259.616 331.274 259.953 331.273C260.169 331.276 260.379 331.343 260.561 331.464C260.742 331.586 260.886 331.757 260.978 331.959L263.168 336.039L265.334 331.985C265.436 331.769 265.595 331.586 265.791 331.456C265.988 331.325 266.215 331.253 266.448 331.246C266.611 331.245 266.771 331.28 266.919 331.349C267.067 331.417 267.199 331.517 267.307 331.642C267.426 331.766 267.52 331.912 267.583 332.073C267.647 332.234 267.679 332.406 267.678 332.58C267.674 332.808 267.612 333.03 267.499 333.226L265.18 337.055L269.69 336.884C269.856 336.867 270.023 336.886 270.181 336.941C270.339 336.997 270.483 337.086 270.605 337.204C270.726 337.321 270.822 337.464 270.885 337.623C270.948 337.782 270.978 337.953 270.971 338.125C270.974 338.45 270.86 338.765 270.651 339.009C270.53 339.132 270.386 339.228 270.227 339.289C270.068 339.351 269.898 339.377 269.728 339.366L265.206 339.22L267.448 342.983C267.574 343.193 267.641 343.436 267.64 343.683C267.636 343.856 267.599 344.027 267.531 344.186C267.462 344.344 267.365 344.488 267.243 344.607C267.131 344.731 266.997 344.83 266.847 344.898C266.697 344.966 266.535 345.002 266.372 345.003C266.154 344.999 265.942 344.93 265.762 344.803C265.582 344.676 265.442 344.498 265.359 344.29L263.207 340.33L261.08 344.29C260.984 344.504 260.83 344.685 260.637 344.812C260.444 344.938 260.22 345.005 259.991 345.003Z" fill="#0A2472"/>
<path d="M280.774 345.003C280.438 345.002 280.116 344.864 279.877 344.62C279.636 344.377 279.498 344.044 279.493 343.696C279.489 343.459 279.551 343.225 279.672 343.023L281.978 339.22L277.494 339.366C277.323 339.374 277.152 339.346 276.991 339.285C276.831 339.224 276.684 339.13 276.559 339.009C276.35 338.767 276.234 338.455 276.234 338.131C276.234 337.808 276.35 337.495 276.559 337.253C276.683 337.13 276.829 337.034 276.99 336.97C277.151 336.907 277.322 336.877 277.494 336.884L281.927 337.055L279.659 333.266C279.535 333.06 279.469 332.822 279.467 332.58C279.471 332.406 279.508 332.235 279.577 332.077C279.645 331.918 279.742 331.775 279.864 331.655C280.103 331.411 280.425 331.274 280.761 331.273C280.979 331.274 281.193 331.339 281.377 331.461C281.56 331.582 281.707 331.755 281.799 331.959L283.977 336.039L286.142 331.985C286.245 331.769 286.403 331.586 286.6 331.456C286.796 331.325 287.023 331.253 287.257 331.246C287.419 331.245 287.58 331.28 287.728 331.349C287.876 331.417 288.008 331.517 288.115 331.642C288.234 331.766 288.328 331.912 288.392 332.073C288.456 332.234 288.488 332.406 288.487 332.58C288.482 332.808 288.421 333.03 288.308 333.226L285.989 337.055L290.499 336.884C290.664 336.867 290.832 336.886 290.99 336.941C291.147 336.997 291.292 337.086 291.413 337.204C291.535 337.321 291.63 337.464 291.693 337.623C291.757 337.782 291.786 337.953 291.78 338.125C291.782 338.45 291.668 338.765 291.459 339.009C291.339 339.132 291.194 339.228 291.035 339.289C290.876 339.351 290.706 339.377 290.537 339.366L286.014 339.22L288.256 342.983C288.383 343.193 288.449 343.436 288.449 343.683C288.45 343.857 288.415 344.03 288.347 344.189C288.278 344.348 288.177 344.491 288.051 344.607C287.94 344.731 287.805 344.83 287.655 344.898C287.506 344.966 287.344 345.002 287.18 345.003C286.962 344.999 286.75 344.93 286.57 344.803C286.391 344.676 286.251 344.498 286.168 344.29L284.016 340.33L281.889 344.29C281.791 344.508 281.633 344.692 281.435 344.819C281.237 344.946 281.007 345.01 280.774 345.003Z" fill="#0A2472"/>
<path d="M301.547 345.003C301.211 345.002 300.889 344.864 300.651 344.62C300.452 344.413 300.326 344.144 300.291 343.855C300.256 343.566 300.315 343.274 300.458 343.023L302.752 339.22L298.267 339.366C298.096 339.374 297.925 339.346 297.765 339.285C297.604 339.224 297.457 339.13 297.332 339.009C297.123 338.767 297.008 338.455 297.008 338.131C297.008 337.808 297.123 337.495 297.332 337.253C297.456 337.13 297.603 337.034 297.763 336.97C297.924 336.907 298.095 336.877 298.267 336.884L302.701 337.055L300.42 333.266C300.296 333.06 300.229 332.822 300.228 332.58C300.233 332.231 300.371 331.899 300.612 331.655C300.851 331.411 301.173 331.274 301.509 331.273C301.727 331.274 301.941 331.339 302.124 331.461C302.308 331.582 302.455 331.755 302.547 331.959L304.725 336.039L306.89 331.985C306.993 331.769 307.151 331.586 307.348 331.456C307.544 331.325 307.771 331.253 308.005 331.246C308.169 331.245 308.331 331.28 308.481 331.348C308.632 331.417 308.766 331.517 308.876 331.642C309.111 331.894 309.24 332.231 309.235 332.58C309.23 332.808 309.168 333.03 309.055 333.227L306.736 337.055L311.246 336.884C311.412 336.867 311.58 336.886 311.737 336.941C311.895 336.997 312.04 337.086 312.161 337.204C312.283 337.321 312.378 337.464 312.441 337.623C312.504 337.782 312.534 337.953 312.528 338.125C312.53 338.45 312.416 338.765 312.207 339.009C312.087 339.132 311.942 339.228 311.783 339.289C311.624 339.351 311.454 339.377 311.285 339.366L306.762 339.22L309.004 342.983C309.131 343.193 309.197 343.436 309.196 343.683C309.198 343.857 309.163 344.03 309.094 344.189C309.026 344.348 308.925 344.491 308.799 344.607C308.688 344.731 308.553 344.83 308.403 344.898C308.253 344.966 308.092 345.002 307.928 345.003C307.71 344.999 307.498 344.93 307.318 344.803C307.138 344.676 306.998 344.498 306.916 344.29L304.763 340.33L302.636 344.29C302.541 344.504 302.387 344.685 302.194 344.812C302.001 344.938 301.776 345.005 301.547 345.003Z" fill="#0A2472"/>
<path d="M322.327 345.003C321.995 344.998 321.678 344.861 321.443 344.62C321.317 344.504 321.216 344.362 321.148 344.202C321.079 344.043 321.044 343.87 321.046 343.696C321.05 343.458 321.116 343.225 321.238 343.023L323.531 339.22L319.047 339.366C318.882 339.379 318.716 339.356 318.56 339.299C318.404 339.242 318.262 339.153 318.141 339.036C318.021 338.919 317.925 338.778 317.86 338.621C317.796 338.464 317.763 338.295 317.766 338.125C317.765 337.963 317.795 337.803 317.854 337.653C317.914 337.504 318.001 337.368 318.112 337.253C318.23 337.126 318.374 337.026 318.533 336.963C318.692 336.899 318.863 336.872 319.034 336.884L323.467 337.055L321.187 333.266C321.063 333.06 320.996 332.822 320.994 332.58C320.999 332.231 321.137 331.899 321.379 331.655C321.617 331.411 321.94 331.274 322.276 331.273C322.494 331.274 322.707 331.339 322.891 331.461C323.075 331.582 323.221 331.755 323.313 331.959L325.492 336.039L327.67 331.985C327.771 331.771 327.928 331.589 328.122 331.459C328.316 331.329 328.54 331.255 328.772 331.246C328.936 331.245 329.098 331.28 329.248 331.348C329.398 331.417 329.533 331.517 329.643 331.642C329.878 331.894 330.007 332.231 330.002 332.58C330.001 332.806 329.944 333.029 329.835 333.227L327.516 337.055L332.013 336.884C332.184 336.872 332.355 336.899 332.514 336.963C332.674 337.026 332.818 337.126 332.936 337.253C333.154 337.487 333.274 337.8 333.269 338.125C333.268 338.452 333.149 338.767 332.936 339.009C332.815 339.132 332.67 339.228 332.511 339.289C332.352 339.351 332.183 339.377 332.013 339.366L327.49 339.22L329.732 342.983C329.859 343.193 329.925 343.436 329.925 343.683C329.92 344.031 329.782 344.363 329.54 344.607C329.307 344.853 328.99 344.995 328.656 345.003C328.438 344.999 328.226 344.93 328.046 344.803C327.867 344.676 327.727 344.498 327.644 344.29L325.492 340.33L323.365 344.29C323.273 344.496 323.127 344.672 322.944 344.798C322.76 344.924 322.547 344.995 322.327 345.003Z" fill="#0A2472"/>
<g style="mix-blend-mode:multiply">
<path d="M386.972 77.5312H160.168V92.1729H386.972V77.5312Z" fill="#F2F2F5"/>
</g>
<path d="M298.235 50.5549H248.908C248.017 50.5549 247.164 50.1904 246.534 49.5417C245.904 48.893 245.551 48.0132 245.551 47.0958C245.551 46.1784 245.904 45.2986 246.534 44.6499C247.164 44.0012 248.017 43.6367 248.908 43.6367H298.235C299.125 43.6367 299.979 44.0012 300.609 44.6499C301.238 45.2986 301.592 46.1784 301.592 47.0958C301.592 48.0132 301.238 48.893 300.609 49.5417C299.979 50.1904 299.125 50.5549 298.235 50.5549Z" fill="#F2F2F5" stroke="#0A2472" stroke-width="1.33739" stroke-linecap="round" stroke-linejoin="round"/>
<path d="M287.023 476.513C287.026 473.77 286.238 471.088 284.761 468.806C283.284 466.524 281.183 464.745 278.724 463.694C276.266 462.644 273.56 462.368 270.949 462.902C268.338 463.437 265.94 464.757 264.057 466.697C262.175 468.637 260.894 471.108 260.375 473.798C259.856 476.489 260.124 479.277 261.144 481.811C262.163 484.344 263.89 486.509 266.104 488.031C268.318 489.554 270.921 490.365 273.583 490.362C277.146 490.359 280.563 488.898 283.083 486.302C285.603 483.705 287.02 480.185 287.023 476.513Z" fill="#F2F2F5"/>
<path d="M280.394 469.49H266.762V483.538H280.394V469.49Z" fill="#F2F2F5" stroke="#0A2472" stroke-width="1.33739" stroke-linecap="round" stroke-linejoin="round"/>
<path d="M435.969 317.106C435.969 317.106 418.108 270.343 434.009 264.784C450.562 258.988 449.832 289.869 449.191 304.92C447.846 337.082 444.399 343.063 441.824 335.207L435.969 317.106ZM430.6 353.585C435.508 360.186 436.891 353.348 428.038 322.467C423.887 307.944 414.867 278.568 401.03 289.592C387.743 300.154 419.364 338.442 419.364 338.442L430.6 353.585ZM421.119 380.386C425.796 384.664 425.885 379.264 414.777 356.965C409.563 346.522 398.531 325.384 389.498 335.841C380.824 345.928 410.383 370.445 410.383 370.445L421.119 380.386ZM410.869 412.258C415.546 416.548 415.636 411.135 404.527 388.849C399.313 378.406 388.281 357.255 379.249 367.725C370.626 377.838 400.094 402.356 400.094 402.356L410.869 412.258ZM440.466 347.38C432.984 350.39 438.928 353.664 470.178 353.572C484.835 353.572 514.765 352.885 508.384 336.105C502.273 319.985 457.763 340.515 457.763 340.515L440.466 347.38ZM431.946 368.821C424.028 370.234 429.23 374.67 459.877 380.981C474.239 383.951 503.695 389.43 500.684 371.739C497.801 354.681 450.216 365.692 450.216 365.692L431.946 368.821ZM422.413 395.002C415.674 396.005 419.979 399.874 445.745 405.947C457.827 408.798 482.619 414.146 480.466 399.055C478.416 384.532 437.929 392.744 437.929 392.744L422.413 395.002ZM415.174 419.255C408.576 420.984 413.252 424.364 439.518 427.586C451.818 429.091 477.02 431.705 473.342 416.931C469.793 402.752 430.383 415.307 430.383 415.307L415.174 419.255ZM453.791 321.067C449.947 329.939 457.929 328.593 485.066 304.194C497.776 292.748 523.272 268.798 503.08 256.876C483.695 245.416 462.849 300.709 462.849 300.709L453.791 321.067ZM416.174 450.849C412.112 453.291 416.097 454.242 434.726 450.413C443.464 448.631 461.235 444.67 455.226 436.854C449.409 429.329 425.578 445.172 425.578 445.172L416.174 450.849Z" fill="#F2F2F5"/>
<path opacity="0.3" d="M435.969 317.106C435.969 317.106 418.108 270.343 434.009 264.784C450.562 258.988 449.832 289.869 449.191 304.92C447.846 337.082 444.399 343.063 441.824 335.207L435.969 317.106ZM430.6 353.585C435.508 360.186 436.891 353.348 428.038 322.467C423.887 307.944 414.867 278.568 401.03 289.592C387.743 300.154 419.364 338.442 419.364 338.442L430.6 353.585ZM421.119 380.386C425.796 384.664 425.885 379.264 414.777 356.965C409.563 346.522 398.531 325.384 389.498 335.841C380.824 345.928 410.383 370.445 410.383 370.445L421.119 380.386ZM410.869 412.258C415.546 416.548 415.636 411.135 404.527 388.849C399.313 378.406 388.281 357.255 379.249 367.725C370.626 377.838 400.094 402.356 400.094 402.356L410.869 412.258ZM440.466 347.38C432.984 350.39 438.928 353.664 470.178 353.572C484.835 353.572 514.765 352.885 508.384 336.105C502.273 319.985 457.763 340.515 457.763 340.515L440.466 347.38ZM431.946 368.821C424.028 370.234 429.23 374.67 459.877 380.981C474.239 383.951 503.695 389.43 500.684 371.739C497.801 354.681 450.216 365.692 450.216 365.692L431.946 368.821ZM422.413 395.002C415.674 396.005 419.979 399.874 445.745 405.947C457.827 408.798 482.619 414.146 480.466 399.055C478.416 384.532 437.929 392.744 437.929 392.744L422.413 395.002ZM415.174 419.255C408.576 420.984 413.252 424.364 439.518 427.586C451.818 429.091 477.02 431.705 473.342 416.931C469.793 402.752 430.383 415.307 430.383 415.307L415.174 419.255ZM453.791 321.067C449.947 329.939 457.929 328.593 485.066 304.194C497.776 292.748 523.272 268.798 503.08 256.876C483.695 245.416 462.849 300.709 462.849 300.709L453.791 321.067ZM416.174 450.849C412.112 453.291 416.097 454.242 434.726 450.413C443.464 448.631 461.235 444.67 455.226 436.854C449.409 429.329 425.578 445.172 425.578 445.172L416.174 450.849Z" fill="white"/>
<path d="M443.842 338.875L440.728 285.497L443.842 338.875ZM433.989 356.487L414.309 310.582L433.989 356.487ZM484.777 343.14L437.615 350.111L484.777 343.14ZM423.79 381.229L398.255 347.47L423.79 381.229ZM428.275 370.878L463.457 372.7L428.275 370.878ZM419.947 396.769L446.853 399.515L419.947 396.769ZM413.451 413.219L400.088 392.504L413.451 413.219ZM411.913 420.533L443.547 420.837L411.913 420.533ZM405.507 481.688C405.719 481.671 405.916 481.568 406.055 481.403C406.194 481.237 406.264 481.022 406.25 480.803C404.239 449.671 415.924 398.683 434.668 356.831C446.648 330.082 493.605 277.509 494.105 276.981C494.256 276.825 494.34 276.614 494.34 276.394C494.34 276.174 494.256 275.962 494.105 275.806C494.031 275.73 493.943 275.669 493.846 275.627C493.749 275.586 493.646 275.564 493.541 275.564C493.436 275.564 493.332 275.586 493.236 275.627C493.139 275.669 493.051 275.73 492.977 275.806C492.503 276.334 445.354 329.105 433.272 356.091C414.181 398.96 402.65 449.025 404.7 480.909C404.716 481.119 404.808 481.315 404.957 481.46C405.106 481.604 405.303 481.685 405.507 481.688ZM443.829 339.694C444.041 339.68 444.239 339.581 444.38 339.418C444.522 339.255 444.595 339.041 444.585 338.822L441.523 285.418C441.518 285.309 441.492 285.202 441.447 285.104C441.401 285.006 441.337 284.918 441.259 284.845C441.18 284.773 441.088 284.717 440.988 284.682C440.888 284.646 440.783 284.632 440.677 284.639C440.465 284.652 440.267 284.752 440.126 284.915C439.984 285.078 439.911 285.292 439.921 285.51L443.035 338.888C443.044 339.099 443.133 339.297 443.28 339.442C443.428 339.587 443.625 339.668 443.829 339.667V339.694ZM434.271 357.24C434.463 357.15 434.613 356.987 434.69 356.785C434.766 356.582 434.763 356.357 434.681 356.157L414.988 310.252C414.903 310.052 414.745 309.896 414.548 309.816C414.351 309.737 414.131 309.742 413.938 309.829C413.744 309.917 413.592 310.08 413.515 310.283C413.438 310.486 413.443 310.712 413.528 310.912L433.208 356.817C433.269 356.965 433.371 357.091 433.501 357.18C433.63 357.269 433.782 357.317 433.938 357.319C434.07 357.326 434.203 357.299 434.322 357.24H434.271ZM437.679 350.903L484.816 343.958C484.93 343.956 485.042 343.929 485.144 343.878C485.247 343.828 485.339 343.756 485.413 343.667C485.487 343.578 485.541 343.473 485.574 343.361C485.606 343.248 485.614 343.13 485.599 343.014C485.583 342.897 485.544 342.786 485.484 342.686C485.424 342.587 485.344 342.501 485.249 342.436C485.154 342.371 485.048 342.327 484.935 342.307C484.823 342.287 484.708 342.292 484.598 342.321L437.461 349.266C437.251 349.28 437.054 349.379 436.915 349.543C436.775 349.706 436.705 349.92 436.718 350.137C436.732 350.354 436.828 350.557 436.987 350.7C437.146 350.844 437.353 350.917 437.564 350.903H437.679ZM424.239 381.889C424.406 381.754 424.515 381.556 424.541 381.338C424.568 381.121 424.51 380.901 424.38 380.727L398.832 346.902C398.701 346.727 398.508 346.613 398.296 346.584C398.083 346.556 397.868 346.616 397.698 346.751C397.528 346.885 397.417 347.084 397.39 347.303C397.362 347.522 397.42 347.744 397.551 347.919L423.15 381.797C423.224 381.896 423.319 381.975 423.428 382.03C423.537 382.085 423.656 382.114 423.778 382.114C423.969 382.104 424.151 382.024 424.29 381.889H424.239ZM464.162 372.74C464.169 372.521 464.092 372.309 463.949 372.148C463.805 371.988 463.605 371.892 463.393 371.882L428.275 370.047C428.077 370.061 427.892 370.149 427.754 370.294C427.615 370.44 427.533 370.633 427.524 370.836C427.514 371.04 427.578 371.24 427.702 371.399C427.826 371.557 428.003 371.663 428.198 371.697L463.381 373.532C463.593 373.539 463.799 373.46 463.955 373.312C464.11 373.164 464.203 372.958 464.213 372.74H464.162ZM447.596 399.594C447.608 399.485 447.599 399.375 447.57 399.27C447.54 399.165 447.491 399.067 447.424 398.982C447.357 398.897 447.274 398.827 447.18 398.776C447.087 398.724 446.984 398.693 446.878 398.683L419.972 395.95C419.868 395.939 419.762 395.95 419.662 395.981C419.562 396.012 419.468 396.064 419.387 396.133C419.306 396.201 419.239 396.286 419.19 396.381C419.141 396.477 419.111 396.582 419.101 396.689C419.083 396.906 419.148 397.121 419.282 397.289C419.416 397.457 419.609 397.564 419.819 397.587L446.725 400.333H446.801C447.008 400.348 447.212 400.279 447.37 400.141C447.528 400.003 447.627 399.807 447.647 399.594H447.596ZM413.835 413.906C414.013 413.784 414.137 413.596 414.18 413.38C414.224 413.165 414.182 412.941 414.066 412.757L400.767 392.042C400.645 391.864 400.461 391.741 400.253 391.699C400.045 391.657 399.83 391.7 399.652 391.818C399.474 391.939 399.35 392.128 399.307 392.343C399.264 392.558 399.305 392.782 399.421 392.966L412.721 413.681C412.797 413.794 412.898 413.887 413.016 413.951C413.134 414.016 413.266 414.05 413.4 414.051C413.573 414.061 413.745 414.009 413.886 413.906H413.835ZM444.354 420.837C444.351 420.62 444.267 420.412 444.119 420.257C443.971 420.102 443.771 420.012 443.56 420.005L411.926 419.702C411.716 419.702 411.513 419.788 411.365 419.941C411.216 420.095 411.132 420.303 411.132 420.52C411.128 420.629 411.146 420.738 411.185 420.839C411.223 420.941 411.282 421.034 411.356 421.112C411.43 421.189 411.519 421.251 411.617 421.292C411.715 421.333 411.82 421.354 411.926 421.352L443.56 421.656C443.668 421.661 443.776 421.644 443.878 421.605C443.979 421.567 444.072 421.507 444.151 421.431C444.23 421.355 444.293 421.263 444.337 421.161C444.381 421.059 444.404 420.948 444.406 420.837H444.354ZM401.907 469.581C401.971 469.436 407.365 454.121 423.585 450.464C423.794 450.416 423.976 450.285 424.092 450.1C424.207 449.914 424.246 449.689 424.2 449.473C424.149 449.262 424.02 449.08 423.841 448.964C423.662 448.849 423.446 448.809 423.24 448.853C406.135 452.708 400.459 468.881 400.395 469.04C400.329 469.248 400.344 469.475 400.438 469.672C400.531 469.869 400.695 470.021 400.895 470.096H401.151C401.321 470.111 401.492 470.069 401.637 469.976C401.783 469.884 401.895 469.745 401.958 469.581H401.907ZM405.507 481.688C405.719 481.671 405.916 481.568 406.055 481.403C406.194 481.237 406.264 481.022 406.25 480.803C404.239 449.671 415.924 398.683 434.668 356.831C446.648 330.082 493.605 277.509 494.105 276.981C494.256 276.825 494.34 276.614 494.34 276.394C494.34 276.174 494.256 275.962 494.105 275.806C494.031 275.73 493.943 275.669 493.846 275.627C493.749 275.586 493.646 275.564 493.541 275.564C493.436 275.564 493.332 275.586 493.236 275.627C493.139 275.669 493.051 275.73 492.977 275.806C492.503 276.334 445.354 329.105 433.272 356.091C414.181 398.96 402.65 449.025 404.7 480.909C404.716 481.119 404.808 481.315 404.957 481.46C405.106 481.604 405.303 481.685 405.507 481.688ZM443.829 339.694C444.041 339.68 444.239 339.581 444.38 339.418C444.522 339.255 444.595 339.041 444.585 338.822L441.523 285.418C441.518 285.309 441.492 285.202 441.447 285.104C441.401 285.006 441.337 284.918 441.259 284.845C441.18 284.773 441.088 284.717 440.988 284.682C440.888 284.646 440.783 284.632 440.677 284.639C440.465 284.652 440.267 284.752 440.126 284.915C439.984 285.078 439.911 285.292 439.921 285.51L443.035 338.888C443.044 339.099 443.133 339.297 443.28 339.442C443.428 339.587 443.625 339.668 443.829 339.667V339.694ZM434.271 357.24C434.463 357.15 434.613 356.987 434.69 356.785C434.766 356.582 434.763 356.357 434.681 356.157L414.988 310.252C414.903 310.052 414.745 309.896 414.548 309.816C414.351 309.737 414.131 309.742 413.938 309.829C413.744 309.917 413.592 310.08 413.515 310.283C413.438 310.486 413.443 310.712 413.528 310.912L433.208 356.817C433.269 356.965 433.371 357.091 433.501 357.18C433.63 357.269 433.782 357.317 433.938 357.319C434.07 357.326 434.203 357.299 434.322 357.24H434.271ZM437.679 350.903L484.816 343.958C484.93 343.956 485.042 343.929 485.144 343.878C485.247 343.828 485.339 343.756 485.413 343.667C485.487 343.578 485.541 343.473 485.574 343.361C485.606 343.248 485.614 343.13 485.599 343.014C485.583 342.897 485.544 342.786 485.484 342.686C485.424 342.587 485.344 342.501 485.249 342.436C485.154 342.371 485.048 342.327 484.935 342.307C484.823 342.287 484.708 342.292 484.598 342.321L437.461 349.266C437.251 349.28 437.054 349.379 436.915 349.543C436.775 349.706 436.705 349.92 436.718 350.137C436.732 350.354 436.828 350.557 436.987 350.7C437.146 350.844 437.353 350.917 437.564 350.903H437.679ZM424.239 381.889C424.406 381.754 424.515 381.556 424.541 381.338C424.568 381.121 424.51 380.901 424.38 380.727L398.832 346.902C398.767 346.816 398.686 346.743 398.594 346.688C398.502 346.634 398.401 346.599 398.296 346.584C398.19 346.57 398.083 346.578 397.981 346.606C397.878 346.635 397.782 346.684 397.698 346.751C397.614 346.817 397.543 346.9 397.49 346.995C397.438 347.09 397.403 347.195 397.39 347.303C397.376 347.412 397.383 347.522 397.411 347.628C397.438 347.733 397.486 347.832 397.551 347.919L423.15 381.797C423.224 381.896 423.319 381.975 423.428 382.03C423.537 382.085 423.656 382.114 423.778 382.114C423.969 382.104 424.151 382.024 424.29 381.889H424.239ZM464.162 372.74C464.169 372.521 464.092 372.309 463.949 372.148C463.805 371.988 463.605 371.892 463.393 371.882L428.275 370.047C428.077 370.061 427.892 370.149 427.754 370.294C427.615 370.44 427.533 370.633 427.524 370.836C427.514 371.04 427.578 371.24 427.702 371.399C427.826 371.557 428.003 371.663 428.198 371.697L463.381 373.532C463.593 373.539 463.799 373.46 463.955 373.312C464.11 373.164 464.203 372.958 464.213 372.74H464.162ZM447.596 399.594C447.608 399.485 447.599 399.375 447.57 399.27C447.54 399.165 447.491 399.067 447.424 398.982C447.357 398.897 447.274 398.827 447.18 398.776C447.087 398.724 446.984 398.693 446.878 398.683L419.972 395.95C419.868 395.939 419.762 395.95 419.662 395.981C419.562 396.012 419.468 396.064 419.387 396.133C419.306 396.201 419.239 396.286 419.19 396.381C419.141 396.477 419.111 396.582 419.101 396.689C419.083 396.906 419.148 397.121 419.282 397.289C419.416 397.457 419.609 397.564 419.819 397.587L446.725 400.333H446.801C447.008 400.348 447.212 400.279 447.37 400.141C447.528 400.003 447.627 399.807 447.647 399.594H447.596ZM413.835 413.906C414.013 413.784 414.137 413.596 414.18 413.38C414.224 413.165 414.182 412.941 414.066 412.757L400.767 392.042C400.645 391.864 400.461 391.741 400.253 391.699C400.045 391.657 399.83 391.7 399.652 391.818C399.474 391.939 399.35 392.128 399.307 392.343C399.264 392.558 399.305 392.782 399.421 392.966L412.721 413.681C412.797 413.794 412.898 413.887 413.016 413.951C413.134 414.016 413.266 414.05 413.4 414.051C413.573 414.061 413.745 414.009 413.886 413.906H413.835ZM444.354 420.837C444.351 420.62 444.267 420.412 444.119 420.257C443.971 420.102 443.771 420.012 443.56 420.005L411.926 419.702C411.716 419.702 411.513 419.788 411.365 419.941C411.216 420.095 411.132 420.303 411.132 420.52C411.128 420.629 411.146 420.738 411.185 420.839C411.223 420.941 411.282 421.034 411.356 421.112C411.43 421.189 411.519 421.251 411.617 421.292C411.715 421.333 411.82 421.354 411.926 421.352L443.56 421.656C443.668 421.661 443.776 421.644 443.878 421.605C443.979 421.567 444.072 421.507 444.151 421.431C444.23 421.355 444.293 421.263 444.337 421.161C444.381 421.059 444.404 420.948 444.406 420.837H444.354ZM401.907 469.581C401.971 469.436 407.365 454.121 423.585 450.464C423.794 450.416 423.976 450.285 424.092 450.1C424.207 449.914 424.246 449.689 424.2 449.473C424.149 449.262 424.02 449.08 423.841 448.964C423.662 448.849 423.446 448.809 423.24 448.853C406.135 452.708 400.459 468.881 400.395 469.04C400.329 469.248 400.344 469.475 400.438 469.672C400.531 469.869 400.695 470.021 400.895 470.096H401.151C401.321 470.111 401.492 470.069 401.637 469.976C401.783 469.884 401.895 469.745 401.958 469.581H401.907Z" fill="#F2F2F5"/>
<path opacity="0.2" d="M443.842 338.875L440.728 285.497L443.842 338.875ZM433.989 356.487L414.309 310.582L433.989 356.487ZM484.777 343.14L437.615 350.111L484.777 343.14ZM423.79 381.229L398.255 347.47L423.79 381.229ZM428.275 370.878L463.457 372.7L428.275 370.878ZM419.947 396.769L446.853 399.515L419.947 396.769ZM413.451 413.219L400.088 392.504L413.451 413.219ZM411.913 420.533L443.547 420.837L411.913 420.533ZM405.507 481.688C405.719 481.671 405.916 481.568 406.055 481.403C406.194 481.237 406.264 481.022 406.25 480.803C404.239 449.671 415.924 398.683 434.668 356.831C446.648 330.082 493.605 277.509 494.105 276.981C494.256 276.825 494.34 276.614 494.34 276.394C494.34 276.174 494.256 275.962 494.105 275.806C494.031 275.73 493.943 275.669 493.846 275.627C493.749 275.586 493.646 275.564 493.541 275.564C493.436 275.564 493.332 275.586 493.236 275.627C493.139 275.669 493.051 275.73 492.977 275.806C492.503 276.334 445.354 329.105 433.272 356.091C414.181 398.96 402.65 449.025 404.7 480.909C404.716 481.119 404.808 481.315 404.957 481.46C405.106 481.604 405.303 481.685 405.507 481.688ZM443.829 339.694C444.041 339.68 444.239 339.581 444.38 339.418C444.522 339.255 444.595 339.041 444.585 338.822L441.523 285.418C441.518 285.309 441.492 285.202 441.447 285.104C441.401 285.006 441.337 284.918 441.259 284.845C441.18 284.773 441.088 284.717 440.988 284.682C440.888 284.646 440.783 284.632 440.677 284.639C440.465 284.652 440.267 284.752 440.126 284.915C439.984 285.078 439.911 285.292 439.921 285.51L443.035 338.888C443.044 339.099 443.133 339.297 443.28 339.442C443.428 339.587 443.625 339.668 443.829 339.667V339.694ZM434.271 357.24C434.463 357.15 434.613 356.987 434.69 356.785C434.766 356.582 434.763 356.357 434.681 356.157L414.988 310.252C414.903 310.052 414.745 309.896 414.548 309.816C414.351 309.737 414.131 309.742 413.938 309.829C413.744 309.917 413.592 310.08 413.515 310.283C413.438 310.486 413.443 310.712 413.528 310.912L433.208 356.817C433.269 356.965 433.371 357.091 433.501 357.18C433.63 357.269 433.782 357.317 433.938 357.319C434.07 357.326 434.203 357.299 434.322 357.24H434.271ZM437.679 350.903L484.816 343.958C484.93 343.956 485.042 343.929 485.144 343.878C485.247 343.828 485.339 343.756 485.413 343.667C485.487 343.578 485.541 343.473 485.574 343.361C485.606 343.248 485.614 343.13 485.599 343.014C485.583 342.897 485.544 342.786 485.484 342.686C485.424 342.587 485.344 342.501 485.249 342.436C485.154 342.371 485.048 342.327 484.935 342.307C484.823 342.287 484.708 342.292 484.598 342.321L437.461 349.266C437.251 349.28 437.054 349.379 436.915 349.543C436.775 349.706 436.705 349.92 436.718 350.137C436.732 350.354 436.828 350.557 436.987 350.7C437.146 350.844 437.353 350.917 437.564 350.903H437.679ZM424.239 381.889C424.406 381.754 424.515 381.556 424.541 381.338C424.568 381.121 424.51 380.901 424.38 380.727L398.832 346.902C398.701 346.727 398.508 346.613 398.296 346.584C398.083 346.556 397.868 346.616 397.698 346.751C397.528 346.885 397.417 347.084 397.39 347.303C397.362 347.522 397.42 347.744 397.551 347.919L423.15 381.797C423.224 381.896 423.319 381.975 423.428 382.03C423.537 382.085 423.656 382.114 423.778 382.114C423.969 382.104 424.151 382.024 424.29 381.889H424.239ZM464.162 372.74C464.169 372.521 464.092 372.309 463.949 372.148C463.805 371.988 463.605 371.892 463.393 371.882L428.275 370.047C428.077 370.061 427.892 370.149 427.754 370.294C427.615 370.44 427.533 370.633 427.524 370.836C427.514 371.04 427.578 371.24 427.702 371.399C427.826 371.557 428.003 371.663 428.198 371.697L463.381 373.532C463.593 373.539 463.799 373.46 463.955 373.312C464.11 373.164 464.203 372.958 464.213 372.74H464.162ZM447.596 399.594C447.608 399.485 447.599 399.375 447.57 399.27C447.54 399.165 447.491 399.067 447.424 398.982C447.357 398.897 447.274 398.827 447.18 398.776C447.087 398.724 446.984 398.693 446.878 398.683L419.972 395.95C419.868 395.939 419.762 395.95 419.662 395.981C419.562 396.012 419.468 396.064 419.387 396.133C419.306 396.201 419.239 396.286 419.19 396.381C419.141 396.477 419.111 396.582 419.101 396.689C419.083 396.906 419.148 397.121 419.282 397.289C419.416 397.457 419.609 397.564 419.819 397.587L446.725 400.333H446.801C447.008 400.348 447.212 400.279 447.37 400.141C447.528 400.003 447.627 399.807 447.647 399.594H447.596ZM413.835 413.906C414.013 413.784 414.137 413.596 414.18 413.38C414.224 413.165 414.182 412.941 414.066 412.757L400.767 392.042C400.645 391.864 400.461 391.741 400.253 391.699C400.045 391.657 399.83 391.7 399.652 391.818C399.474 391.939 399.35 392.128 399.307 392.343C399.264 392.558 399.305 392.782 399.421 392.966L412.721 413.681C412.797 413.794 412.898 413.887 413.016 413.951C413.134 414.016 413.266 414.05 413.4 414.051C413.573 414.061 413.745 414.009 413.886 413.906H413.835ZM444.354 420.837C444.351 420.62 444.267 420.412 444.119 420.257C443.971 420.102 443.771 420.012 443.56 420.005L411.926 419.702C411.716 419.702 411.513 419.788 411.365 419.941C411.216 420.095 411.132 420.303 411.132 420.52C411.128 420.629 411.146 420.738 411.185 420.839C411.223 420.941 411.282 421.034 411.356 421.112C411.43 421.189 411.519 421.251 411.617 421.292C411.715 421.333 411.82 421.354 411.926 421.352L443.56 421.656C443.668 421.661 443.776 421.644 443.878 421.605C443.979 421.567 444.072 421.507 444.151 421.431C444.23 421.355 444.293 421.263 444.337 421.161C444.381 421.059 444.404 420.948 444.406 420.837H444.354ZM401.907 469.581C401.971 469.436 407.365 454.121 423.585 450.464C423.794 450.416 423.976 450.285 424.092 450.1C424.207 449.914 424.246 449.689 424.2 449.473C424.149 449.262 424.02 449.08 423.841 448.964C423.662 448.849 423.446 448.809 423.24 448.853C406.135 452.708 400.459 468.881 400.395 469.04C400.329 469.248 400.344 469.475 400.438 469.672C400.531 469.869 400.695 470.021 400.895 470.096H401.151C401.321 470.111 401.492 470.069 401.637 469.976C401.783 469.884 401.895 469.745 401.958 469.581H401.907ZM405.507 481.688C405.719 481.671 405.916 481.568 406.055 481.403C406.194 481.237 406.264 481.022 406.25 480.803C404.239 449.671 415.924 398.683 434.668 356.831C446.648 330.082 493.605 277.509 494.105 276.981C494.256 276.825 494.34 276.614 494.34 276.394C494.34 276.174 494.256 275.962 494.105 275.806C494.031 275.73 493.943 275.669 493.846 275.627C493.749 275.586 493.646 275.564 493.541 275.564C493.436 275.564 493.332 275.586 493.236 275.627C493.139 275.669 493.051 275.73 492.977 275.806C492.503 276.334 445.354 329.105 433.272 356.091C414.181 398.96 402.65 449.025 404.7 480.909C404.716 481.119 404.808 481.315 404.957 481.46C405.106 481.604 405.303 481.685 405.507 481.688ZM443.829 339.694C444.041 339.68 444.239 339.581 444.38 339.418C444.522 339.255 444.595 339.041 444.585 338.822L441.523 285.418C441.518 285.309 441.492 285.202 441.447 285.104C441.401 285.006 441.337 284.918 441.259 284.845C441.18 284.773 441.088 284.717 440.988 284.682C440.888 284.646 440.783 284.632 440.677 284.639C440.465 284.652 440.267 284.752 440.126 284.915C439.984 285.078 439.911 285.292 439.921 285.51L443.035 338.888C443.044 339.099 443.133 339.297 443.28 339.442C443.428 339.587 443.625 339.668 443.829 339.667V339.694ZM434.271 357.24C434.463 357.15 434.613 356.987 434.69 356.785C434.766 356.582 434.763 356.357 434.681 356.157L414.988 310.252C414.903 310.052 414.745 309.896 414.548 309.816C414.351 309.737 414.131 309.742 413.938 309.829C413.744 309.917 413.592 310.08 413.515 310.283C413.438 310.486 413.443 310.712 413.528 310.912L433.208 356.817C433.269 356.965 433.371 357.091 433.501 357.18C433.63 357.269 433.782 357.317 433.938 357.319C434.07 357.326 434.203 357.299 434.322 357.24H434.271ZM437.679 350.903L484.816 343.958C484.93 343.956 485.042 343.929 485.144 343.878C485.247 343.828 485.339 343.756 485.413 343.667C485.487 343.578 485.541 343.473 485.574 343.361C485.606 343.248 485.614 343.13 485.599 343.014C485.583 342.897 485.544 342.786 485.484 342.686C485.424 342.587 485.344 342.501 485.249 342.436C485.154 342.371 485.048 342.327 484.935 342.307C484.823 342.287 484.708 342.292 484.598 342.321L437.461 349.266C437.251 349.28 437.054 349.379 436.915 349.543C436.775 349.706 436.705 349.92 436.718 350.137C436.732 350.354 436.828 350.557 436.987 350.7C437.146 350.844 437.353 350.917 437.564 350.903H437.679ZM424.239 381.889C424.406 381.754 424.515 381.556 424.541 381.338C424.568 381.121 424.51 380.901 424.38 380.727L398.832 346.902C398.767 346.816 398.686 346.743 398.594 346.688C398.502 346.634 398.401 346.599 398.296 346.584C398.19 346.57 398.083 346.578 397.981 346.606C397.878 346.635 397.782 346.684 397.698 346.751C397.614 346.817 397.543 346.9 397.49 346.995C397.438 347.09 397.403 347.195 397.39 347.303C397.376 347.412 397.383 347.522 397.411 347.628C397.438 347.733 397.486 347.832 397.551 347.919L423.15 381.797C423.224 381.896 423.319 381.975 423.428 382.03C423.537 382.085 423.656 382.114 423.778 382.114C423.969 382.104 424.151 382.024 424.29 381.889H424.239ZM464.162 372.74C464.169 372.521 464.092 372.309 463.949 372.148C463.805 371.988 463.605 371.892 463.393 371.882L428.275 370.047C428.077 370.061 427.892 370.149 427.754 370.294C427.615 370.44 427.533 370.633 427.524 370.836C427.514 371.04 427.578 371.24 427.702 371.399C427.826 371.557 428.003 371.663 428.198 371.697L463.381 373.532C463.593 373.539 463.799 373.46 463.955 373.312C464.11 373.164 464.203 372.958 464.213 372.74H464.162ZM447.596 399.594C447.608 399.485 447.599 399.375 447.57 399.27C447.54 399.165 447.491 399.067 447.424 398.982C447.357 398.897 447.274 398.827 447.18 398.776C447.087 398.724 446.984 398.693 446.878 398.683L419.972 395.95C419.868 395.939 419.762 395.95 419.662 395.981C419.562 396.012 419.468 396.064 419.387 396.133C419.306 396.201 419.239 396.286 419.19 396.381C419.141 396.477 419.111 396.582 419.101 396.689C419.083 396.906 419.148 397.121 419.282 397.289C419.416 397.457 419.609 397.564 419.819 397.587L446.725 400.333H446.801C447.008 400.348 447.212 400.279 447.37 400.141C447.528 400.003 447.627 399.807 447.647 399.594H447.596ZM413.835 413.906C414.013 413.784 414.137 413.596 414.18 413.38C414.224 413.165 414.182 412.941 414.066 412.757L400.767 392.042C400.645 391.864 400.461 391.741 400.253 391.699C400.045 391.657 399.83 391.7 399.652 391.818C399.474 391.939 399.35 392.128 399.307 392.343C399.264 392.558 399.305 392.782 399.421 392.966L412.721 413.681C412.797 413.794 412.898 413.887 413.016 413.951C413.134 414.016 413.266 414.05 413.4 414.051C413.573 414.061 413.745 414.009 413.886 413.906H413.835ZM444.354 420.837C444.351 420.62 444.267 420.412 444.119 420.257C443.971 420.102 443.771 420.012 443.56 420.005L411.926 419.702C411.716 419.702 411.513 419.788 411.365 419.941C411.216 420.095 411.132 420.303 411.132 420.52C411.128 420.629 411.146 420.738 411.185 420.839C411.223 420.941 411.282 421.034 411.356 421.112C411.43 421.189 411.519 421.251 411.617 421.292C411.715 421.333 411.82 421.354 411.926 421.352L443.56 421.656C443.668 421.661 443.776 421.644 443.878 421.605C443.979 421.567 444.072 421.507 444.151 421.431C444.23 421.355 444.293 421.263 444.337 421.161C444.381 421.059 444.404 420.948 444.406 420.837H444.354ZM401.907 469.581C401.971 469.436 407.365 454.121 423.585 450.464C423.794 450.416 423.976 450.285 424.092 450.1C424.207 449.914 424.246 449.689 424.2 449.473C424.149 449.262 424.02 449.08 423.841 448.964C423.662 448.849 423.446 448.809 423.24 448.853C406.135 452.708 400.459 468.881 400.395 469.04C400.329 469.248 400.344 469.475 400.438 469.672C400.531 469.869 400.695 470.021 400.895 470.096H401.151C401.321 470.111 401.492 470.069 401.637 469.976C401.783 469.884 401.895 469.745 401.958 469.581H401.907Z" fill="black"/>
<path d="M426.44 458.412H390.168V466.149H393.333L399.88 508.358H416.728L423.275 466.149H426.44V458.412Z" fill="#F2F2F5"/>
<path opacity="0.3" d="M426.44 458.412H390.168V466.149H393.333L399.88 508.358H416.728L423.275 466.149H426.44V458.412Z" fill="white"/>
<path d="M99.8677 224.47L57.6766 210.277L53.9225 200.058L45.3511 199.781L29.7969 196.744L31.6675 200.058L51.2448 214.7L56.075 217.182L100.201 240.933L99.8677 224.47Z" fill="white" stroke="#0A2472" stroke-width="1.00396" stroke-miterlimit="10"/>
<path d="M53.9236 200.056L49.9005 197.574L41.8672 200.611L43.1997 202.261L53.9236 200.056Z" fill="white" stroke="#0A2472" stroke-width="1.00396" stroke-linejoin="round"/>
<path d="M99.8677 224.47L57.6766 210.277L53.9225 200.058L45.3511 199.781L29.7969 196.744L31.6675 200.058L51.2448 214.7L56.075 217.182L100.201 240.933L99.8677 224.47Z" fill="white"/>
<path opacity="0.5" d="M99.8677 224.466L57.6766 210.273L53.9225 200.054L45.3511 199.777L29.7969 196.74L31.6675 200.054L51.2448 214.696L56.075 217.178L100.201 240.929L99.8677 224.466Z" fill="#F2F2F5" stroke="#0A2472" stroke-width="1.00396" stroke-miterlimit="10"/>
<path d="M99.8677 224.47L57.6766 210.277L53.9225 200.058L45.3511 199.781L29.7969 196.744L31.6675 200.058L51.2448 214.7L56.075 217.182L100.201 240.933L99.8677 224.47Z" stroke="#0A2472" stroke-width="1.00396" stroke-miterlimit="10"/>
<path d="M53.9236 200.056L49.9005 197.574L41.8672 200.611L43.1997 202.261L53.9236 200.056Z" fill="white"/>
<path opacity="0.5" d="M53.9236 200.056L49.9005 197.574L41.8672 200.611L43.1997 202.261L53.9236 200.056Z" fill="#F2F2F5" stroke="#0A2472" stroke-width="1.00396" stroke-linejoin="round"/>
<path d="M53.9236 200.056L49.9005 197.574L41.8672 200.611L43.1997 202.261L53.9236 200.056Z" stroke="#0A2472" stroke-width="1.00396" stroke-linejoin="round"/>
<path d="M108.828 132.353C108.828 132.353 108.174 138.294 109.801 142.11C111.428 145.925 120.461 158.85 120.461 158.85L103.6 172.779C103.6 172.779 96.6045 158.256 95.272 155.906C93.9395 153.556 92.338 143.443 96.6814 136.195C101.025 128.947 107.277 126.993 108.828 132.353Z" fill="white"/>
<g style="mix-blend-mode:multiply" opacity="0.5">
<path d="M100.164 151.443L107.48 167.075L103.585 172.792L96.2305 159.259L100.164 151.443Z" fill="#F2F2F5"/>
</g>
<path d="M108.828 132.353C108.828 132.353 108.174 138.294 109.801 142.11C111.428 145.925 120.461 158.85 120.461 158.85L103.6 172.779C103.6 172.779 96.6045 158.256 95.272 155.906C93.9395 153.556 92.338 143.443 96.6814 136.195C101.025 128.947 107.277 126.993 108.828 132.353Z" stroke="#0A2472" stroke-width="1.00396" stroke-miterlimit="10"/>
<path d="M114.052 121.475C113.014 114.874 105.673 101.447 94.0264 101.962C86.4671 102.305 82.9309 103.876 79.6509 105.79C76.9773 107.414 74.4852 109.335 72.2198 111.52C66.5311 118.557 64.5323 120.485 65.6342 125.872C65.5438 128.02 65.8705 130.166 66.5951 132.182C68.3376 136.975 69.5292 140.104 71.041 142.388C70.5798 144.619 69.3754 150.508 69.3114 151.854C69.2473 153.201 73.1551 152.264 75.1282 151.749C78.7925 160.198 85.5062 166.06 87.5946 166.734C91.2333 167.909 96.986 161.743 100.035 156.964C103.085 152.184 100.778 146.811 100.791 144.672C100.804 142.533 107.646 137.833 110.183 136.341C112.72 134.849 115.077 128.063 114.052 121.475Z" fill="white"/>
<g style="mix-blend-mode:multiply" opacity="0.5">
<path d="M65.6857 125.869C65.5953 128.017 65.922 130.163 66.6466 132.18C68.3891 136.972 69.5807 140.101 71.0925 142.385C70.6313 144.616 69.4269 150.505 69.3629 151.851C69.2988 153.198 73.2066 152.261 75.1797 151.746C78.844 160.196 85.5577 166.057 87.6461 166.731C91.2848 167.906 97.0375 161.74 100.087 156.961C100.849 155.768 101.343 154.415 101.535 153C101.368 152.38 101.253 151.997 101.253 151.997C101.253 151.997 99.5359 158.796 96.1279 157.911C92.7198 157.027 87.5051 149.99 84.5967 147.561C81.6883 145.131 82.8799 141.936 82.3033 138.319C81.7268 134.701 73.1169 131.519 72.5403 129.447C71.9638 127.374 73.9753 118.792 73.9753 118.792C73.9753 118.792 77.2424 114.303 76.5378 116.152C76.0397 117.754 75.859 119.444 76.0065 121.12C76.154 122.796 76.6265 124.424 77.3962 125.908C77.9363 127.08 78.793 128.065 79.8635 128.747C80.934 129.428 82.1727 129.777 83.4308 129.75L86.557 113.788L79.9587 108.164L72.2713 111.465C66.5313 118.555 64.571 120.482 65.6857 125.869Z" fill="#F2F2F5"/>
</g>
<path d="M114.052 121.475C113.014 114.874 105.673 101.447 94.0264 101.962C86.4671 102.305 82.9309 103.876 79.6509 105.79C76.9773 107.414 74.4852 109.335 72.2198 111.52C66.5311 118.557 64.5323 120.485 65.6342 125.872C65.5438 128.02 65.8705 130.166 66.5951 132.182C68.3376 136.975 69.5292 140.104 71.041 142.388C70.5798 144.619 69.3754 150.508 69.3114 151.854C69.2473 153.201 73.1551 152.264 75.1282 151.749C78.7925 160.198 85.5062 166.06 87.5946 166.734C91.2333 167.909 96.986 161.743 100.035 156.964C103.085 152.184 100.778 146.811 100.791 144.672C100.804 142.533 107.646 137.833 110.183 136.341C112.72 134.849 115.077 128.063 114.052 121.475Z" stroke="#0A2472" stroke-miterlimit="10"/>
<path d="M72.6328 138.398L73.914 142.174C73.914 142.174 76.6687 143.112 80.0255 139.336" stroke="#0A2472" stroke-miterlimit="10" stroke-linecap="round"/>
<path d="M82.1016 156.039C82.1016 156.039 85.1509 155.722 86.3809 151.312" stroke="#0A2472" stroke-miterlimit="10" stroke-linecap="round"/>
<path d="M70.4883 135.245C70.4883 135.245 71.398 132.406 76.8945 132.406" stroke="#0A2472" stroke-miterlimit="10" stroke-linecap="round"/>
<path d="M98.6666 96.7056C94.6727 96.1138 90.645 95.7962 86.6102 95.755C86.6102 95.755 74.5409 88.586 62.9457 96.2303C51.3506 103.875 56.9239 117.262 56.9239 120.602C56.9239 123.943 53.2084 123.956 55.5274 128.26C57.8464 132.564 65.6876 130.187 65.6876 130.187C65.7705 128.564 66.1868 126.977 66.909 125.532C67.6312 124.087 68.6429 122.816 69.8772 121.804C74.054 118.464 77.3853 117.737 78.769 118.701C78.769 118.701 77.8465 125.87 79.2302 128.735C79.2302 128.735 83.8683 131.125 85.2649 131.125C86.6614 131.125 84.3552 133.145 88.9804 134.94C89.8231 135.252 90.7245 135.358 91.6137 135.251C92.5029 135.143 93.3558 134.824 94.1054 134.32C94.7844 131.415 96.2707 127.045 99.0381 128.062C103.1 129.554 106.802 139.852 101.306 143.364C107.917 144.605 115.925 132.551 116.399 121.566C116.873 110.582 105.534 97.9466 98.6666 96.7056Z" fill="#0A2472"/>
<path d="M78.9766 113.986C78.9766 113.986 82.3846 112.098 86.5615 116.138C90.7383 120.178 98.8613 125.577 109.624 122.607" stroke="white" stroke-width="0.5" stroke-linecap="round" stroke-linejoin="round"/>
<path d="M78.5 110.753C78.5 110.753 80.8447 106.977 84.7652 106.977C88.6858 106.977 97.8467 112.64 105.163 112.64" stroke="white" stroke-width="0.5" stroke-linecap="round" stroke-linejoin="round"/>
<path d="M75.8369 118.027C75.8369 118.027 71.391 112.376 67.2142 116.958C63.0373 121.539 65.6895 125.869 65.6895 125.869" stroke="white" stroke-width="0.5" stroke-linecap="round" stroke-linejoin="round"/>
<path d="M58.0586 121.803C60.6063 119.436 62.1901 116.162 62.4917 112.641C63.017 106.713 70.8709 101.59 75.8293 106.449" stroke="white" stroke-width="0.5" stroke-linecap="round" stroke-linejoin="round"/>
<path d="M66.1602 100.242C66.1602 100.242 74.0141 92.4265 80.5484 102.394" stroke="white" stroke-width="0.5" stroke-linecap="round" stroke-linejoin="round"/>
<path d="M130.077 484.529C130.077 484.529 134.908 492.266 134.37 497.243L133.844 502.221C133.844 502.221 116.125 507.225 112.371 507.225C108.617 507.225 88.7447 505.284 88.7447 505.284L87.8863 501.772C87.8262 501.513 87.8545 501.24 87.9665 500.999C88.0785 500.759 88.2673 500.566 88.5013 500.452L106.221 491.936L111.807 485.638L130.077 484.529Z" fill="white" stroke="#0A2472" stroke-width="1.00396" stroke-miterlimit="10"/>
<path d="M115.068 503.334C119.873 503.717 128.995 500.693 134.287 498.766L133.915 502.225C133.915 502.225 116.132 507.228 112.378 507.228C108.624 507.228 88.7517 505.288 88.7517 505.288L88.1367 502.779C91.3142 502.792 108.713 502.832 115.068 503.334Z" fill="#F2F2F5" stroke="#0A2472" stroke-width="1.00396" stroke-miterlimit="10"/>
<path d="M106.247 491.935L80.456 503.5C80.456 503.5 78.2523 509.191 80.456 510.326C82.6597 511.461 130.706 510.326 130.706 510.326C130.706 510.326 134.024 501.335 128.784 495.301C123.544 489.268 106.247 491.935 106.247 491.935Z" fill="white" stroke="#0A2472" stroke-width="1.00396" stroke-miterlimit="10"/>
<path d="M130.708 510.329C130.708 510.329 82.6617 511.464 80.458 510.329C79.3946 509.774 79.3561 508.177 79.5996 506.658H131.554C131.384 507.906 131.101 509.135 130.708 510.329Z" fill="#F2F2F5" stroke="#0A2472" stroke-width="1.00396" stroke-miterlimit="10"/>
<path d="M94.057 290.979C94.057 290.979 87.3177 321.754 84.768 341.004C82.2184 360.253 80.7193 398.818 81.2574 403.241C81.7956 407.664 108.625 481.77 108.625 481.77L111.302 488.371L130.085 484.503C130.085 484.503 121.501 456.302 118.285 440.815C115.069 425.329 108.035 399.887 108.035 395.464C108.035 391.042 124.691 306.571 125.883 301.026C127.074 295.481 132.481 286.965 132.481 286.965L96.5169 286.213L94.057 290.979Z" fill="#F2F2F5" stroke="#0A2472" stroke-width="1.00396" stroke-miterlimit="10"/>
<path d="M94.0562 290.984C94.0562 290.984 90.11 319.092 91.7372 338.632C93.3643 358.172 96.8621 399.773 96.8621 405.965C96.8621 412.157 106.561 449.138 107.112 460.756C107.97 477.536 106.766 485.841 106.766 485.841L106.19 491.927C106.19 491.927 117.503 493.591 119.976 494.317C122.832 495.075 125.779 495.404 128.726 495.294C128.726 495.294 132.839 476.639 132.839 460.743C132.839 444.847 129.418 412.131 127.714 398.875C126.01 385.62 131.379 334.486 134.428 324.941C137.477 315.395 144.14 295.182 139.655 284.858C135.171 274.533 94.0562 290.984 94.0562 290.984Z" fill="#F2F2F5" stroke="#0A2472" stroke-width="1.00396" stroke-miterlimit="10"/>
<path d="M144.641 279.678L144.231 292.247C144.231 292.247 136.928 293.739 127.088 295.494C118.965 296.947 98.5675 295.112 91.7001 294.425C91.0743 294.368 90.4957 294.058 90.0902 293.564C89.6847 293.069 89.4851 292.43 89.5348 291.785L90.2011 280.43L144.641 279.678Z" fill="#0A2472"/>
<path d="M116.1 154.389C116.1 154.389 104.568 167.235 100.225 175.222C95.8816 183.21 94.1648 195.449 92.5376 205.087C90.9104 214.725 95.3179 237.354 94.0751 247.744L90.1417 280.474C90.1417 280.474 89.2961 282.692 92.1276 285.121C94.9591 287.55 108.784 288.435 121.276 289.082C125.837 289.319 139.456 286.296 141.686 286.151C144.376 285.979 144.466 282.454 144.581 279.681C145.12 266.65 147.4 231.914 148.899 216.784C151.987 185.93 135.087 156.145 116.1 154.389Z" fill="white" stroke="#0A2472" stroke-width="1.00396" stroke-miterlimit="10"/>
<g style="mix-blend-mode:multiply">
<path d="M147.482 234.331C147.994 227.479 148.507 221.261 148.955 216.785C149.083 215.465 149.16 214.144 149.224 212.824L118.59 218.105L92.2734 208.863C92.2763 214.475 92.5843 220.081 93.1959 225.657L119.013 233.103L147.482 234.331Z" fill="#F2F2F5"/>
</g>
<g style="mix-blend-mode:multiply">
<path d="M114.948 155.68C113.205 157.673 109.746 161.726 106.453 166.031L125.902 186.402L132.308 183.762L114.948 155.68Z" fill="#F2F2F5"/>
</g>
<path d="M116.093 154.389C116.093 154.389 104.562 167.235 100.219 175.222C98.931 177.65 97.8877 180.207 97.1055 182.853L120.296 155.247C118.926 154.819 117.518 154.532 116.093 154.389Z" fill="#0A2472"/>
<g style="mix-blend-mode:multiply">
<path d="M93.4297 199.884L118.593 208.413L149.151 204.795C148.672 196.951 146.981 189.236 144.141 181.942L119.503 192.121L97.4784 181.836C95.6775 187.735 94.3238 193.769 93.4297 199.884Z" fill="#F2F2F5"/>
</g>
<g style="mix-blend-mode:multiply">
<path d="M136.744 266.649C123.981 268.857 110.886 267.754 98.6399 263.441L92.5028 261.275L90.5938 277.119L97.5893 279.139C110.888 282.97 124.788 284.073 138.499 282.386L144.149 281.687C144.443 281.045 144.609 280.349 144.636 279.64C144.79 276.115 145.059 270.992 145.405 265.117L136.744 266.649Z" fill="#F2F2F5"/>
</g>
<g style="mix-blend-mode:multiply">
<path d="M140.167 245.076C127.404 247.293 114.305 246.186 102.063 241.855L94.2476 239.096C94.4415 241.972 94.4029 244.86 94.1323 247.73L93.2227 255.348L101.013 257.593C114.306 261.428 128.202 262.536 141.91 260.854L145.753 260.378C146.074 255.097 146.445 249.473 146.842 243.915L140.167 245.076Z" fill="#F2F2F5"/>
</g>
<path d="M19.9651 189.245L44.7383 209.77L45.806 208.401L21.0329 187.876L19.9651 189.245Z" fill="#0A2472"/>
<path d="M128.019 168.633C128.019 168.633 137.103 175.01 137.308 190.074C137.398 196.675 136.731 202.841 135.258 213.654C133.785 224.467 124.637 259.678 117.513 263.956C110.389 268.233 99.3322 260.153 99.3322 260.153L45.8534 223.569L32.9257 212.809L26.5195 200.345L28.5311 196.385L44.3031 208.848L35.8085 200.755L37.4741 198.576L40.5491 200.781L49.5177 204.24L51.478 217.443L54.2455 219.397L105.405 238.659C105.405 238.659 104.765 210.287 105.239 204.861C105.713 199.434 106.366 185.796 112.004 175.907" fill="white"/>
<g style="mix-blend-mode:multiply" opacity="0.5">
<path d="M105.049 217.222C105.049 227.019 105.37 238.663 105.37 238.663L54.2612 219.48L51.4938 217.526L49.5335 204.323L40.5648 200.864L37.5027 198.62L35.8371 200.798L44.306 208.852L28.534 196.389L26.625 200.283L33.0312 212.747L45.9588 223.573L49.2132 225.804L119.873 249.265L105.049 217.222Z" fill="#F2F2F5"/>
</g>
<path d="M128.019 168.633C128.019 168.633 137.103 175.01 137.308 190.074C137.398 196.675 136.731 202.841 135.258 213.654C133.785 224.467 124.637 259.678 117.513 263.956C110.389 268.233 99.3322 260.153 99.3322 260.153L45.8534 223.569L32.9257 212.809L26.5195 200.345L28.5311 196.385L44.3031 208.848L35.8085 200.755L37.4741 198.576L40.5491 200.781L49.5177 204.24L51.478 217.443L54.2455 219.397L105.405 238.659C105.405 238.659 104.765 210.287 105.239 204.861C105.713 199.434 106.366 185.796 112.004 175.907" stroke="#0A2472" stroke-width="1.00396" stroke-miterlimit="10"/>
<path d="M105.402 238.66L124.928 253.183L129.989 243.941C129.989 243.941 133.486 241.102 133.999 238.963C134.511 236.825 133.858 233.352 134.383 231.214C134.909 229.075 137.522 227.068 137.766 221.892C138.009 216.717 137.766 212.4 137.766 212.4C137.766 212.4 141.994 194.484 141.533 186.694C141.071 178.905 133.781 165.134 127.939 164.831C122.096 164.527 114.499 165.438 108.605 174.627C102.711 183.816 103.916 210.644 102.993 212.321C102.071 213.997 103.352 222.275 103.352 222.275C102.84 222.669 102.415 223.17 102.106 223.746C101.796 224.322 101.61 224.96 101.558 225.616C101.456 227.768 103.711 233.062 103.711 233.062L105.402 238.66Z" fill="white" stroke="#0A2472" stroke-width="1.00396" stroke-miterlimit="10"/>
<g style="mix-blend-mode:multiply">
<path d="M103.511 205.43C103.551 207.734 103.384 210.036 103.011 212.308C102.191 213.813 103.126 220.613 103.331 221.999C114.314 225.514 125.927 226.417 137.297 224.639C137.541 223.721 137.687 222.778 137.732 221.827C137.989 216.665 137.732 212.335 137.732 212.335C137.732 212.335 138.104 210.737 138.616 208.308C126.841 209.079 115.019 208.11 103.511 205.43Z" fill="#F2F2F5"/>
</g>
<g style="mix-blend-mode:multiply">
<path d="M107.814 176.094C105.982 179.883 104.957 185.573 104.367 191.343C115.998 195.917 128.539 197.49 140.895 195.924C141.388 192.871 141.607 189.777 141.549 186.682C141.327 184.236 140.766 181.835 139.883 179.553C129.094 179.812 118.317 178.65 107.814 176.094Z" fill="#F2F2F5"/>
</g>
<path d="M103.711 233.207L105.364 238.66L124.89 253.183L129.951 243.941C129.951 243.941 133.448 241.102 133.961 238.963C134.052 238.591 134.108 238.211 134.127 237.828C123.838 237.645 113.614 236.092 103.711 233.207Z" fill="#0A2472"/>
<path d="M117.849 494.141C117.849 494.141 118.285 482.708 120.412 465.993C122.539 449.279 117.426 425.54 116.568 421.58C115.71 417.619 117.004 408.826 116.145 405.737C115.287 402.647 111.136 389.471 113.583 374.182C116.03 358.894 118.016 318.481 118.016 318.481C118.016 318.481 111.853 313.318 110.047 306.598C108.24 299.878 109.624 297.766 109.624 297.766" stroke="#0A2472" stroke-width="1.00396" stroke-miterlimit="10"/>
<path d="M120.706 298.389L118.336 311.908" stroke="#0A2472" stroke-width="1.00396" stroke-miterlimit="10"/>
</svg>
