<svg width="30" height="25" viewBox="0 0 23 18" fill="none" xmlns="http://www.w3.org/2000/svg">
<rect x="0.219048" y="0.219048" width="22.5619" height="17.0857" rx="3.28571" fill="silver" stroke="#666666" stroke-width="0.438095"/>
<path fill-rule="evenodd" clip-rule="evenodd" d="M7.61704 11.3595C7.63237 13.5358 9.67949 16.1303 11.0895 16.9689C11.1167 16.9831 11.1406 17.0028 11.1597 17.0269C11.1788 17.0509 11.1926 17.0787 11.2002 17.1085C11.2078 17.1382 11.2091 17.1692 11.204 17.1995C11.1989 17.2297 11.1875 17.2586 11.1705 17.2841C11.1498 17.3186 11.1207 17.3472 11.0858 17.3671C11.0509 17.3871 11.0114 17.3977 10.9713 17.398C10.9303 17.3981 10.8901 17.3867 10.8552 17.3651C9.35107 16.4784 7.293 13.8861 7.16164 11.5653H0.229891C0.172509 11.5597 0.119263 11.533 0.0805242 11.4903C0.0417849 11.4476 0.0203256 11.392 0.0203256 11.3344C0.0203256 11.2767 0.0417849 11.2211 0.0805242 11.1784C0.119263 11.1357 0.172509 11.109 0.229891 11.1034H7.20543C7.6423 9.57212 7.6423 7.94922 7.20543 6.41798H0.229891C0.16892 6.41798 0.110446 6.39376 0.0673334 6.35065C0.0242205 6.30753 0 6.24906 0 6.18809C0 6.12712 0.0242205 6.06864 0.0673334 6.02553C0.110446 5.98242 0.16892 5.9582 0.229891 5.9582H7.16164C7.293 3.62864 9.35983 1.04511 10.8552 0.158388C10.9089 0.127322 10.9728 0.118866 11.0327 0.134879C11.0927 0.150892 11.1438 0.190064 11.1749 0.243776C11.2059 0.297489 11.2144 0.361342 11.1984 0.421289C11.1824 0.481237 11.1432 0.532367 11.0895 0.563433C9.67949 1.39104 7.63237 3.98771 7.61704 6.16619C8.11852 7.86099 8.11852 9.66474 7.61704 11.3595ZM14.7327 3.84759C13.9467 2.27776 12.7119 1.04511 11.8996 0.563437C11.8459 0.532371 11.8067 0.48124 11.7907 0.421293C11.7747 0.361345 11.7831 0.297492 11.8142 0.24378C11.8453 0.190067 11.8964 0.150896 11.9563 0.134882C12.0163 0.118869 12.0801 0.127326 12.1338 0.158392C13.1979 0.78238 14.4349 2.21427 15.1443 3.62864C15.1614 3.65573 15.1723 3.68623 15.1763 3.718C15.1803 3.74977 15.1773 3.78203 15.1675 3.81251C15.1577 3.84299 15.1413 3.87094 15.1195 3.8944C15.0978 3.91787 15.0711 3.93626 15.0414 3.9483C15.0098 3.96537 14.9744 3.97439 14.9385 3.97457C14.8958 3.97462 14.8539 3.96276 14.8176 3.94033C14.7812 3.9179 14.7518 3.88578 14.7327 3.84759ZM22.7701 11.1034H15.7814C15.3446 9.57212 15.3446 7.94922 15.7814 6.41798H22.7701C22.8311 6.41798 22.8896 6.39376 22.9327 6.35065C22.9758 6.30753 23 6.24906 23 6.18809C23 6.12712 22.9758 6.06865 22.9327 6.02553C22.8896 5.98242 22.8311 5.9582 22.7701 5.9582H15.6041C15.5543 5.95877 15.506 5.97552 15.4665 6.00593C15.427 6.03633 15.3984 6.07875 15.3852 6.12679C14.8761 7.8339 14.8761 9.65242 15.3852 11.3595C15.3698 13.5358 13.3227 16.1303 11.9127 16.9689C11.8848 16.9823 11.86 17.0014 11.84 17.0251C11.8201 17.0488 11.8054 17.0765 11.7969 17.1063C11.7884 17.1361 11.7863 17.1674 11.7908 17.198C11.7953 17.2287 11.8063 17.258 11.8229 17.2841C11.8436 17.3186 11.8728 17.3472 11.9077 17.3671C11.9426 17.3871 11.982 17.3977 12.0222 17.398C12.0632 17.3981 12.1034 17.3867 12.1382 17.3651C13.6336 16.4894 15.7004 13.8861 15.8318 11.5653H22.7701C22.8275 11.5597 22.8807 11.533 22.9195 11.4903C22.9582 11.4476 22.9797 11.392 22.9797 11.3344C22.9797 11.2767 22.9582 11.2211 22.9195 11.1784C22.8807 11.1357 22.8275 11.109 22.7701 11.1034ZM11.2658 1.41225C11.3335 1.36702 11.4131 1.34288 11.4945 1.34288C11.6037 1.34288 11.7084 1.38624 11.7856 1.46344C11.8628 1.54063 11.9061 1.64532 11.9061 1.75449C11.9061 1.8359 11.882 1.91548 11.8368 1.98317C11.7915 2.05086 11.7273 2.10362 11.652 2.13477C11.5768 2.16593 11.4941 2.17408 11.4142 2.1582C11.3344 2.14231 11.261 2.10311 11.2035 2.04555C11.1459 1.98798 11.1067 1.91464 11.0908 1.83479C11.0749 1.75495 11.0831 1.67219 11.1142 1.59697C11.1454 1.52176 11.1982 1.45748 11.2658 1.41225Z" fill="#666666"/>
<defs>
<linearGradient id="paint0_linear_617:3711" x1="-2.19048" y1="-3.52723e-07" x2="24.8619" y2="17.5238" gradientUnits="userSpaceOnUse">
<stop stop-color="#DDD9D6"/>
<stop offset="0.212761" stop-color="#8A868C"/>
<stop offset="0.548384" stop-color="#F2F3F3" stop-opacity="0.8"/>
<stop offset="0.914316" stop-color="#807C80"/>
<stop offset="1" stop-color="#A6A8AB"/>
</linearGradient>
</defs>
</svg>
