<svg width="100" height="101" viewBox="0 0 100 101" fill="none" xmlns="http://www.w3.org/2000/svg">
<path d="M53.5312 26.3946C54.7867 28.512 56.576 30.2628 58.7203 31.472C60.8646 32.6811 63.2887 33.3061 65.7503 33.2846C68.2118 33.2631 70.6247 32.5958 72.7475 31.3495C74.8703 30.1031 76.6288 28.3213 77.8471 26.1822C79.0654 24.0431 79.7008 21.6217 79.6898 19.16C79.6788 16.6984 79.0219 14.2827 77.7846 12.1546C76.5473 10.0264 74.773 8.26038 72.6392 7.03295C70.5054 5.80553 68.0867 5.15975 65.625 5.16018C63.3898 5.15638 61.1867 5.6924 59.2031 6.72268C57.8985 7.37795 56.7107 8.24371 55.6875 9.28518C55.5312 9.44143 55.375 9.59768 55.2188 9.76955C55.0625 9.94143 54.9219 10.1133 54.7813 10.2852C54.6406 10.4571 54.5 10.6289 54.3594 10.8164C54.2049 11.0041 54.0639 11.2025 53.9375 11.4102C52.7707 13.1521 52.0073 15.1326 51.7031 17.2071L53.5312 26.3946Z" fill="#06C270"/>
<path d="M53.125 64.5352C60.8915 64.5352 67.1875 58.2392 67.1875 50.4727C67.1875 42.7062 60.8915 36.4102 53.125 36.4102C45.3585 36.4102 39.0625 42.7062 39.0625 50.4727C39.0625 58.2392 45.3585 64.5352 53.125 64.5352Z" fill="#06C270"/>
<path d="M29.5524 83.1277C20.6024 81.4731 19.0039 79.8746 17.3492 70.9246C17.3418 70.887 17.3216 70.8531 17.2919 70.8287C17.2623 70.8043 17.2251 70.791 17.1867 70.791C17.1484 70.791 17.1112 70.8043 17.0815 70.8287C17.0519 70.8531 17.0316 70.887 17.0242 70.9246C15.3695 79.8746 13.7711 81.4731 4.8211 83.1277C4.78346 83.1352 4.74956 83.1554 4.72519 83.1851C4.70082 83.2147 4.6875 83.2519 4.6875 83.2902C4.6875 83.3286 4.70082 83.3658 4.72519 83.3954C4.74956 83.4251 4.78346 83.4453 4.8211 83.4527C13.7711 85.1074 15.3695 86.7059 17.0242 95.6543C17.0316 95.6919 17.0519 95.7258 17.0815 95.7502C17.1112 95.7746 17.1484 95.7879 17.1867 95.7879C17.2251 95.7879 17.2623 95.7746 17.2919 95.7502C17.3216 95.7258 17.3418 95.6919 17.3492 95.6543C19.0039 86.7059 20.6024 85.1074 29.5524 83.4527C29.59 83.4453 29.6239 83.4251 29.6483 83.3954C29.6726 83.3658 29.686 83.3286 29.686 83.2902C29.686 83.2519 29.6726 83.2147 29.6483 83.1851C29.6239 83.1554 29.59 83.1352 29.5524 83.1277Z" fill="#06C270"/>
<path d="M23.4375 34.8477H4.6875V9.84766H23.4375V16.9898V34.8477Z" fill="#00072D"/>
<path d="M58.2031 17.7695C58.7739 18.5492 59.0805 19.4908 59.0781 20.457C59.087 21.2094 58.9036 21.9516 58.5454 22.6133C58.1872 23.275 57.666 23.8343 57.0312 24.2383L53.5312 26.3945L39.8281 34.8477L23.4375 33.2852V12.9727H38.0156L44.5 6.72266H59.2031C57.0727 7.8044 55.2586 9.4193 53.9375 11.4102H50.9844L41.2656 19.2227V22.3477L51.7031 17.207L53.2656 16.4414C54.1176 16.0722 55.0695 16.0024 55.9662 16.2436C56.8629 16.4848 57.6514 17.0227 58.2031 17.7695Z" fill="white"/>
<path d="M86.6039 75.1934L72.8555 87.8012L81.5633 95.7855L95.3117 83.1777L86.6039 75.1934Z" fill="#00072D"/>
<path d="M82.1876 73.2506C80.4221 71.6767 78.3338 70.5079 76.069 69.8261C73.8042 69.1443 71.4177 68.966 69.0767 69.3037L64.0001 67.7756C63.5556 67.6416 63.0841 67.6239 62.6308 67.7243C62.1774 67.8247 61.7575 68.0398 61.4111 68.349C61.1471 68.5801 60.9423 68.871 60.8138 69.1975C60.6852 69.5239 60.6367 69.8763 60.6722 70.2254C60.7076 70.5744 60.8261 70.9099 61.0177 71.2037C61.2094 71.4976 61.4685 71.7414 61.7736 71.9146L65.7611 74.3412L72.3236 76.3146C68.5847 77.2813 64.6868 77.4672 60.8729 76.8607C57.059 76.2542 53.411 74.8684 50.1564 72.7896L47.1548 70.8318C46.5392 70.4393 45.8121 70.2588 45.0843 70.3177C44.3566 70.3767 43.668 70.6719 43.1236 71.1584C42.8107 71.4316 42.5648 71.773 42.4048 72.1563C42.2447 72.5396 42.1748 72.9545 42.2005 73.3691C42.2262 73.7836 42.3467 74.1868 42.5528 74.5474C42.7589 74.908 43.045 75.2165 43.3892 75.449L49.0048 79.4428C56.429 84.6319 65.4296 87.0712 74.458 86.3412L85.4673 76.2459L82.1876 73.2506Z" fill="white"/>
<path d="M4.54119 84.9836C12.8318 86.5164 13.9584 87.6399 15.4912 95.9367C15.5656 96.3328 15.776 96.6904 16.0862 96.9477C16.3963 97.2051 16.7866 97.3459 17.1896 97.3459C17.5926 97.3459 17.9829 97.2051 18.2931 96.9477C18.6032 96.6904 18.8137 96.3328 18.8881 95.9367C20.4209 87.6445 21.5443 86.518 29.8381 84.9852C30.2356 84.9125 30.595 84.7028 30.8538 84.3924C31.1125 84.0821 31.2543 83.6908 31.2543 83.2867C31.2543 82.8827 31.1125 82.4914 30.8538 82.181C30.595 81.8707 30.2356 81.6609 29.8381 81.5883C21.5474 80.0555 20.4209 78.932 18.8881 70.6352C18.8137 70.2391 18.6032 69.8815 18.2931 69.6242C17.9829 69.3668 17.5926 69.226 17.1896 69.226C16.7866 69.226 16.3963 69.3668 16.0862 69.6242C15.776 69.8815 15.5656 70.2391 15.4912 70.6352C13.9584 78.9274 12.8349 80.0539 4.54119 81.5867C4.1437 81.6594 3.78427 81.8691 3.5255 82.1795C3.26673 82.4898 3.125 82.8811 3.125 83.2852C3.125 83.6892 3.26673 84.0805 3.5255 84.3909C3.78427 84.7012 4.1437 84.911 4.54119 84.9836ZM17.1896 76.7352C17.641 78.2904 18.4782 79.7064 19.6233 80.8515C20.7684 81.9966 22.1844 82.8338 23.7396 83.2852C22.1844 83.7366 20.7684 84.5737 19.6233 85.7188C18.4782 86.864 17.641 88.2799 17.1896 89.8352C16.7382 88.2799 15.9011 86.864 14.756 85.7188C13.6108 84.5737 12.1949 83.7366 10.6396 83.2852C12.1949 82.8338 13.6108 81.9966 14.756 80.8515C15.9011 79.7064 16.7382 78.2904 17.1896 76.7352ZM4.68963 36.4102H23.4396C23.8241 36.4082 24.194 36.2631 24.4771 36.003C24.7602 35.743 24.9363 35.3868 24.9709 35.0039L39.6896 36.4102C39.7381 36.4102 39.7881 36.4102 39.8365 36.4102C40.1268 36.4104 40.4114 36.3298 40.6584 36.1774L53.0959 28.507C54.6829 30.6499 56.7922 32.3506 59.2228 33.4473C61.6534 34.5439 64.3243 34.9998 66.981 34.7716C69.6378 34.5434 72.1918 33.6387 74.3998 32.1437C76.6078 30.6487 78.3962 28.6132 79.5946 26.2311C80.7929 23.849 81.3614 21.1997 81.2457 18.5357C81.13 15.8717 80.334 13.2817 78.9336 11.0125C77.5333 8.74327 75.5751 6.87046 73.2458 5.57249C70.9165 4.27453 68.2937 3.59466 65.6271 3.59767C63.2881 3.60257 60.9804 4.13674 58.8771 5.16017H44.5021C44.0979 5.16113 43.7095 5.31781 43.4178 5.59767L37.3881 11.4102H25.0021V9.84767C25.0021 9.43327 24.8375 9.03584 24.5445 8.74281C24.2515 8.44979 23.854 8.28517 23.4396 8.28517H4.68963C4.27523 8.28517 3.8778 8.44979 3.58478 8.74281C3.29175 9.03584 3.12713 9.43327 3.12713 9.84767V34.8477C3.12713 35.2621 3.29175 35.6595 3.58478 35.9525C3.8778 36.2455 4.27523 36.4102 4.68963 36.4102ZM56.0849 11.1633C56.1537 11.0805 56.224 11.007 56.2959 10.9164C56.5021 10.6836 56.7287 10.468 56.9537 10.2508C57.2757 9.94084 57.6153 9.64973 57.9709 9.37892C58.1271 9.26329 58.2646 9.13829 58.4193 9.02892C58.8997 8.68377 59.4058 8.3761 59.9334 8.1086C61.6165 7.24224 63.4745 6.76948 65.367 6.72599C67.2595 6.68251 69.1372 7.06944 70.8584 7.85759C72.5796 8.64573 74.0992 9.81451 75.3027 11.2757C76.5062 12.7369 77.3622 14.4524 77.8059 16.2927C78.2496 18.133 78.2696 20.05 77.8642 21.8992C77.4589 23.7483 76.6389 25.4812 75.466 26.9672C74.2932 28.4531 72.7982 29.6532 71.0938 30.477C69.3894 31.3008 67.5202 31.7268 65.6271 31.7227C63.7196 31.7179 61.8383 31.2782 60.1263 30.437C58.4143 29.5957 56.9167 28.3751 55.7474 26.868L57.8599 25.5649C58.7214 25.022 59.4295 24.2676 59.9167 23.3734C60.4038 22.4793 60.6538 21.4752 60.6428 20.457C60.6467 19.1593 60.2349 17.8944 59.4678 16.8477L59.4506 16.8258C58.8291 15.9992 57.9934 15.3584 57.0338 14.9728C56.0742 14.5872 55.0274 14.4715 54.0068 14.6383C54.3387 13.8048 54.7577 13.0087 55.2568 12.2633C55.5122 11.8815 55.7887 11.5143 56.0849 11.1633ZM25.0021 14.5352H38.0178C38.4222 14.5352 38.8109 14.3784 39.1021 14.0977L45.1334 8.28517H54.4662C54.4224 8.33048 54.3865 8.3836 54.3428 8.42892C54.2506 8.52423 54.1584 8.61642 54.0631 8.71954C53.9068 8.89454 53.7599 9.06798 53.5506 9.32267C53.4193 9.47892 53.2959 9.63517 53.1974 9.7711C53.1678 9.81017 53.1303 9.84298 53.1006 9.8836C51.1279 10.0529 49.25 10.8045 47.7053 12.043L42.724 16.0477C41.7796 16.8033 41.0177 17.7621 40.495 18.8528C39.9724 19.9436 39.7024 21.1382 39.7053 22.3477C39.7045 22.6136 39.7716 22.8754 39.9002 23.1082C40.0289 23.3409 40.2148 23.537 40.4405 23.6778C40.6661 23.8187 40.9239 23.8996 41.1895 23.9129C41.4552 23.9262 41.7198 23.8715 41.9584 23.7539L53.8974 17.8758C54.4257 17.6506 55.0144 17.6101 55.5684 17.761C56.1225 17.9118 56.6094 18.2452 56.9506 18.707C57.3217 19.2166 57.5204 19.8314 57.5178 20.4617C57.5273 20.9473 57.4126 21.4273 57.1845 21.856C56.9565 22.2848 56.6226 22.6482 56.2146 22.9117L39.4568 33.243L25.0021 31.8649V14.5352ZM51.0287 13.6508C50.7269 14.4634 50.4928 15.2996 50.3287 16.1508L43.849 19.3399C44.0917 19.0229 44.3719 18.7364 44.6834 18.4867L49.6646 14.482C50.0852 14.1526 50.5431 13.8736 51.0287 13.6508ZM6.25213 11.4102H21.8771V33.2852H6.25213V11.4102ZM54.6896 42.8539V41.0977H51.5646V42.8539C50.6658 43.1151 49.8757 43.6601 49.3124 44.4076C48.7491 45.1551 48.443 46.0648 48.4396 47.0008V47.6945C48.4409 48.8451 48.8984 49.9482 49.7118 50.7619C50.5252 51.5756 51.6281 52.0335 52.7787 52.0352H53.4756C53.7976 52.036 54.1061 52.1644 54.3337 52.3922C54.5612 52.6201 54.6892 52.9288 54.6896 53.2508V53.9445C54.6892 54.2666 54.5612 54.5753 54.3337 54.8031C54.1061 55.031 53.7976 55.1593 53.4756 55.1602H52.7787C52.4567 55.1593 52.1481 55.031 51.9206 54.8031C51.693 54.5753 51.565 54.2666 51.5646 53.9445H48.4396C48.443 54.8805 48.7491 55.7902 49.3124 56.5377C49.8757 57.2852 50.6658 57.8303 51.5646 58.0914V59.8477H54.6896V58.0914C55.5884 57.8303 56.3785 57.2852 56.9418 56.5377C57.5051 55.7902 57.8113 54.8805 57.8146 53.9445V53.2508C57.8134 52.1002 57.3559 50.9971 56.5425 50.1834C55.7291 49.3697 54.6261 48.9118 53.4756 48.9102H52.7787C52.4567 48.9093 52.1481 48.7809 51.9206 48.5531C51.693 48.3253 51.565 48.0165 51.5646 47.6945V47.0008C51.565 46.6788 51.693 46.3701 51.9206 46.1422C52.1481 45.9144 52.4567 45.786 52.7787 45.7852H53.4756C53.7976 45.786 54.1061 45.9144 54.3337 46.1422C54.5612 46.3701 54.6892 46.6788 54.6896 47.0008V47.3477H57.8146V47.0008C57.8113 46.0648 57.5051 45.1551 56.9418 44.4076C56.3785 43.6601 55.5884 43.1151 54.6896 42.8539Z" fill="#00072D"/>
<path d="M53.125 34.8477C50.0347 34.8477 47.0137 35.764 44.4442 37.4809C41.8747 39.1978 39.872 41.6381 38.6894 44.4932C37.5068 47.3483 37.1973 50.49 37.8002 53.5209C38.4031 56.5519 39.8913 59.336 42.0765 61.5212C44.2617 63.7064 47.0458 65.1945 50.0767 65.7974C53.1077 66.4003 56.2493 66.0909 59.1044 64.9083C61.9595 63.7257 64.3998 61.723 66.1167 59.1534C67.8336 56.5839 68.75 53.563 68.75 50.4727C68.7455 46.33 67.0978 42.3584 64.1685 39.4291C61.2393 36.4999 57.2676 34.8522 53.125 34.8477ZM53.125 62.9727C50.6527 62.9727 48.236 62.2395 46.1804 60.866C44.1248 59.4925 42.5226 57.5403 41.5765 55.2562C40.6304 52.9721 40.3829 50.4588 40.8652 48.034C41.3475 45.6093 42.538 43.382 44.2862 41.6338C46.0343 39.8857 48.2616 38.6952 50.6864 38.2128C53.1111 37.7305 55.6245 37.9781 57.9086 38.9242C60.1926 39.8703 62.1449 41.4724 63.5184 43.528C64.8919 45.5836 65.625 48.0004 65.625 50.4727C65.6213 53.7867 64.3031 56.964 61.9597 59.3074C59.6163 61.6508 56.4391 62.9689 53.125 62.9727ZM65.9735 23.9102H65.2766C64.9546 23.9093 64.646 23.7809 64.4185 23.5531C64.1909 23.3253 64.0629 23.0165 64.0625 22.6945H60.9375C60.9408 23.6305 61.247 24.5402 61.8103 25.2877C62.3736 26.0352 63.1637 26.5803 64.0625 26.8414V28.5977H67.1875V26.8414C68.0863 26.5803 68.8764 26.0352 69.4397 25.2877C70.003 24.5402 70.3092 23.6305 70.3125 22.6945V22.0008C70.3113 20.8502 69.8538 19.7471 69.0404 18.9334C68.2269 18.1197 67.124 17.6618 65.9735 17.6602H65.2766C64.9546 17.6593 64.646 17.5309 64.4185 17.3031C64.1909 17.0753 64.0629 16.7665 64.0625 16.4445V15.7508C64.0629 15.4288 64.1909 15.1201 64.4185 14.8922C64.646 14.6644 64.9546 14.536 65.2766 14.5352H65.9735C66.2955 14.536 66.604 14.6644 66.8316 14.8922C67.0591 15.1201 67.1871 15.4288 67.1875 15.7508V16.0977H70.3125V15.7508C70.3092 14.8148 70.003 13.9051 69.4397 13.1576C68.8764 12.4101 68.0863 11.8651 67.1875 11.6039V9.84766H64.0625V11.6039C63.1637 11.8651 62.3736 12.4101 61.8103 13.1576C61.247 13.9051 60.9408 14.8148 60.9375 15.7508V16.4445C60.9388 17.5951 61.3963 18.6982 62.2097 19.5119C63.0231 20.3256 64.126 20.7835 65.2766 20.7852H65.9735C66.2955 20.786 66.604 20.9144 66.8316 21.1422C67.0591 21.3701 67.1871 21.6788 67.1875 22.0008V22.6945C67.1871 23.0165 67.0591 23.3253 66.8316 23.5531C66.604 23.7809 66.2955 23.9093 65.9735 23.9102Z" fill="#00072D"/>
<path d="M87.6572 74.0419C87.369 73.7775 86.9921 73.6309 86.6009 73.6309C86.2098 73.6309 85.8329 73.7775 85.5447 74.0419L85.454 74.1248L83.2447 72.0935C81.3521 70.4092 79.1225 69.1473 76.7042 68.3919C74.2859 67.6364 71.7345 67.4047 69.2197 67.7123L64.4603 66.2794C63.7565 66.0657 63.0093 66.0379 62.2915 66.1989C61.5738 66.3599 60.91 66.7042 60.365 67.1982C59.9209 67.5921 59.5766 68.0858 59.3605 68.6387C59.1444 69.1916 59.0627 69.7879 59.122 70.3786C59.1814 70.9693 59.3801 71.5374 59.7018 72.0363C60.0236 72.5352 60.4592 72.9505 60.9728 73.2482L64.9072 75.642C59.9703 75.6046 55.1464 74.1607 51.0009 71.4794L48.0009 69.5216C47.0943 68.9423 46.0229 68.676 44.9506 68.7635C43.8783 68.851 42.8641 69.2874 42.0634 70.006C41.5779 70.4364 41.1967 70.9717 40.9489 71.5713C40.7011 72.1709 40.5931 72.8191 40.6332 73.4667C40.6732 74.1143 40.8603 74.7443 41.1801 75.3088C41.4999 75.8733 41.9442 76.3575 42.4791 76.7248L48.0947 80.7185C54.9019 85.4983 63.0239 88.0493 71.3416 88.0201C71.3825 88.378 71.5485 88.71 71.8103 88.9576L80.5181 96.9435C80.8063 97.2079 81.1832 97.3546 81.5744 97.3546C81.9655 97.3546 82.3424 97.2079 82.6306 96.9435L96.3806 84.3357C96.5402 84.1893 96.6677 84.0114 96.7548 83.8131C96.842 83.6149 96.887 83.4007 96.887 83.1841C96.887 82.9676 96.842 82.7534 96.7548 82.5551C96.6677 82.3569 96.5402 82.1789 96.3806 82.0326L87.6572 74.0419ZM49.9041 78.1685L44.2869 74.1748C44.1326 74.0772 44.0037 73.9443 43.9108 73.7872C43.818 73.63 43.7638 73.453 43.7528 73.2708C43.7418 73.0885 43.7743 72.9063 43.8476 72.7391C43.9209 72.5719 44.0329 72.4245 44.1744 72.3091C44.462 72.0555 44.824 71.9019 45.2062 71.8712C45.5884 71.8405 45.9703 71.9344 46.2947 72.1388L49.2947 74.0966C52.7291 76.3002 56.5824 77.7693 60.6122 78.4114C64.642 79.0536 68.761 78.8549 72.7103 77.8279C73.0415 77.7437 73.3359 77.5533 73.5486 77.2858C73.7612 77.0182 73.8802 76.6884 73.8875 76.3468C73.8948 76.0051 73.7899 75.6705 73.5888 75.3942C73.3878 75.1179 73.1017 74.9151 72.7744 74.817L66.4072 72.9013L62.59 70.5779C62.493 70.5262 62.4098 70.4522 62.347 70.362C62.2843 70.2718 62.2438 70.168 62.2291 70.0591C62.221 69.9534 62.2387 69.8473 62.2806 69.7498C62.3225 69.6524 62.3874 69.5666 62.4697 69.4998C62.6172 69.3746 62.7936 69.2882 62.983 69.2484C63.1723 69.2086 63.3686 69.2165 63.5541 69.2716L68.6306 70.7998C68.8445 70.8652 69.0701 70.8828 69.2916 70.8513C71.4053 70.549 73.5595 70.71 75.6048 71.3229C77.6502 71.9359 79.5378 72.9863 81.1369 74.4013L83.1462 76.2435L73.7978 84.8185C65.3074 85.3968 56.875 83.0499 49.9041 78.1685ZM81.5634 93.6654L75.1681 87.8013L75.5041 87.4888L80.7259 82.7013L86.604 77.3123L92.9994 83.1763L81.5634 93.6654Z" fill="#00072D"/>
</svg>
