<svg width="100" height="101" viewBox="0 0 100 101" fill="none" xmlns="http://www.w3.org/2000/svg">
<path d="M79.5653 51.9946C69.7465 49.54 70.4285 49.907 68.5053 47.3146C64.8223 42.422 58.4213 41.6566 57.9453 40.7346C73.6853 37.2948 79.1251 47.6948 79.5653 51.9946Z" fill="#EFEEEE"/>
<path d="M82.4429 65.7524C79.7029 64.8724 77.063 63.4924 74.203 63.1724C74.403 60.1324 73.4029 57.0124 71.4429 54.6524C70.2029 53.1524 68.563 51.9724 66.763 51.2124C66.343 51.0324 64.423 50.7524 64.383 50.1926C64.363 49.6326 66.503 49.7926 66.963 49.7926C71.263 49.7926 75.4432 50.9326 79.5832 52.2326C79.603 52.5126 79.603 52.7526 79.5832 52.9526C83.1758 55.7468 83.2291 61.2926 82.4429 65.7524Z" fill="#EFEEEE"/>
<path d="M33.2461 97.2413C42.8183 97.2413 50.5781 84.8817 50.5781 69.6353C50.5781 54.3889 42.8183 42.0293 33.2461 42.0293C23.6739 42.0293 15.9141 54.3889 15.9141 69.6353C15.9141 84.8817 23.6739 97.2413 33.2461 97.2413Z" fill="#00072D"/>
<path d="M72.5002 79.8733L72.4002 79.9533C76.7402 80.7733 79.8802 83.8133 80.4602 87.1933C81.6602 93.7333 73.2602 101.453 45.6002 96.2131C24.8244 88.6763 20.9324 67.4399 31.4402 53.1933C34.5506 49.0035 42.3004 43.7859 41.1002 31.8933C39.9994 20.5387 37.2432 16.1697 37.7602 9.93329C38.55 0.20189 50.6924 1.87049 55.1402 8.65329C58.5484 13.7651 60.3148 31.1551 56.7202 40.9933C72.1752 37.3149 80.1876 46.8467 79.5804 52.9533C83.542 56.0345 82.9812 61.6853 82.3204 66.6533C86.5654 71.7925 83.1888 80.7293 72.5002 79.8733Z" fill="white"/>
<path d="M45.6048 96.2124C39.2648 93.9124 33.4248 89.8724 29.8048 84.1724C23.9048 74.9124 24.9248 62.0324 31.4448 53.1924C32.4248 51.8724 33.5048 50.6324 34.6848 49.4924C39.4048 44.9324 41.7648 38.4324 41.1048 31.8924C40.7848 28.5924 40.2648 25.3324 39.5448 22.1124C38.6448 18.0924 37.4248 14.0324 37.7648 9.93242C37.8248 9.19242 37.9448 8.43242 38.1648 7.73242C38.1848 7.77242 38.2248 7.79242 38.2448 7.81242C46.7448 14.9924 50.9448 27.1124 48.1248 37.8724C44.8686 50.361 31.8834 61.7344 34.8048 75.3124C36.7448 84.2924 45.8248 90.3324 54.9448 91.5524C64.2722 92.781 75.7662 90.1422 80.4646 87.1924C81.665 93.7324 73.2648 101.453 45.6048 96.2124Z" fill="#EFEEEE"/>
<path d="M73.9791 79.9557C72.9391 79.8157 71.8791 79.6757 70.8391 79.5157C75.8141 77.1205 77.3257 69.8433 72.2991 65.8357C71.8191 65.4557 68.6391 64.2155 69.1391 63.3757C69.6591 62.5557 74.3791 63.3557 75.2791 63.4557C87.8757 64.9017 86.5611 79.9557 73.9791 79.9557Z" fill="#EFEEEE"/>
<path d="M85.0817 71.6823C85.1217 69.8423 84.5617 68.0823 83.5217 66.5823C83.9111 65.8035 85.4223 56.5167 80.6017 52.5023C80.5617 50.3223 79.1217 45.9023 75.1217 42.7023C72.1217 40.3023 66.8217 37.9023 58.2217 39.6423C59.9619 33.6621 60.1617 25.8823 58.7817 16.4423C58.4217 14.0023 57.7817 10.8223 55.9817 8.1023C53.4017 4.1623 48.5217 1.7823 43.8419 2.1823C39.8235 2.5519 37.2031 4.7135 36.7619 9.8623C36.4207 14.2479 37.7103 18.4289 38.5619 22.3223C40.3683 30.2509 41.1333 36.1585 38.5019 42.2223C36.8419 41.4423 35.0819 41.0223 33.2419 41.0223C23.1419 41.0223 14.9219 53.8623 14.9219 69.6425C14.9219 85.4023 23.1419 98.2425 33.2419 98.2425C36.1019 98.2425 38.8019 97.2225 41.2019 95.4025C42.6527 96.1513 44.5843 96.9375 45.2619 97.1625C45.4667 97.1625 53.6943 98.9625 61.8819 98.9625C74.2619 98.9625 78.7419 95.0225 80.2619 92.9025C82.0619 90.3827 82.1819 87.3425 80.6219 84.5825C79.7419 83.0425 78.4419 81.7625 76.8619 80.8425C81.4817 80.0023 85.0017 76.2023 85.0817 71.6823ZM33.2417 96.2423C24.2417 96.2423 16.9217 84.3023 16.9217 69.6423C16.9217 54.9623 24.2417 43.0221 33.2417 43.0221C34.7617 43.0221 36.2417 43.3621 37.6417 44.0023C35.3867 48.1367 33.6007 48.6375 30.6417 52.6023C23.6417 62.0823 22.9617 75.2823 28.9617 84.7223C31.3817 88.5423 34.9417 91.8423 39.2617 94.3623C37.4017 95.5823 35.3817 96.2423 33.2417 96.2423ZM74.4217 78.9823C72.6017 78.8623 70.7817 78.8023 68.9417 78.7623C68.3617 78.7023 67.9417 79.1823 67.9417 79.7423C67.9417 79.9823 68.0217 80.2223 68.1417 80.3823C68.2417 80.8423 68.6817 81.1623 69.1817 81.1223C73.3417 80.7823 77.1417 82.5023 78.8817 85.5623C80.0417 87.6223 79.9617 89.8823 78.6217 91.7423C73.3477 99.1707 49.4463 97.8177 41.0217 93.0423C36.6417 90.6423 33.0417 87.4023 30.6417 83.6423C25.0817 74.9021 25.7417 62.6223 32.2417 53.7821C35.4805 49.4409 37.6127 49.1115 40.2817 43.2021C43.2637 36.4355 42.3173 29.9831 40.5217 21.9021C39.4831 17.6197 38.4765 13.6205 38.7617 10.0221C39.0727 6.0319 40.8411 4.4651 44.0017 4.1821C47.9817 3.8421 52.1217 5.8621 54.3217 9.2021C55.5417 11.0621 56.3017 13.4021 56.8017 16.7421C58.2617 26.7621 57.9217 34.8021 55.7817 40.6621C55.6417 41.0021 55.7217 41.4021 55.9817 41.6621C56.2217 41.9421 56.6017 42.0621 56.9619 41.9621C63.9619 40.2021 69.8019 40.9821 73.8819 44.2621C76.5819 46.4221 77.8819 49.1421 78.3819 51.0021C74.9619 49.2821 69.8419 48.7021 62.6619 49.2421C62.1019 49.2821 61.7019 49.7621 61.7419 50.3021C61.7819 50.8621 62.2619 51.2621 62.8019 51.2221C80.4277 49.9401 82.8539 55.4223 81.7819 64.7021C80.0219 63.2821 77.7219 62.4821 75.2819 62.5421C72.9819 62.5621 69.8419 62.7021 67.0619 62.9021C66.5019 62.9221 66.0819 63.4021 66.1219 63.9621C66.1619 64.5021 66.6619 64.9221 67.1819 64.8821C69.9419 64.7021 73.0419 64.5621 75.3619 64.5421C77.4819 64.5021 79.6419 65.3421 81.1019 66.8021C82.4019 68.1021 83.1219 69.8421 83.0821 71.6421C83.0153 76.0651 78.6857 79.3705 74.4217 78.9823Z" fill="black"/>
</svg>
