<svg width="261" height="188" viewBox="0 0 261 188" fill="none" xmlns="http://www.w3.org/2000/svg">
<path d="M61.6438 214.362H-84.7109C-85.8588 214.362 -86.9597 213.906 -87.7714 213.095C-88.5831 212.283 -89.0391 211.182 -89.0391 210.034V4.29028C-89.0291 3.14896 -88.5687 2.05778 -87.758 1.25427C-86.9474 0.450754 -85.8523 -4.37563e-05 -84.7109 3.18553e-09H61.6438C62.7917 3.18554e-09 63.8925 0.456004 64.7042 1.26769C65.5159 2.07939 65.9719 3.18027 65.9719 4.32818V210.034C65.9719 211.182 65.5159 212.283 64.7042 213.095C63.8925 213.906 62.7917 214.362 61.6438 214.362ZM-84.7109 0.151601C-85.8079 0.153604 -86.8594 0.590285 -87.6352 1.366C-88.4109 2.14172 -88.8476 3.19325 -88.8496 4.29028V210.034C-88.8476 211.131 -88.4109 212.183 -87.6352 212.958C-86.8594 213.734 -85.8079 214.171 -84.7109 214.173H61.6438C62.7408 214.171 63.7923 213.734 64.568 212.958C65.3438 212.183 65.7804 211.131 65.7824 210.034V4.29028C65.7804 3.19325 65.3438 2.14172 64.568 1.366C63.7923 0.590285 62.7408 0.153604 61.6438 0.151601H-84.7109Z" fill="#EBEBEB"/>
<path d="M225.608 214.362H79.2383C78.091 214.36 76.9913 213.904 76.1801 213.092C75.3688 212.281 74.9122 211.182 74.9102 210.034V4.29028C74.9221 3.14958 75.3832 2.05954 76.1934 1.25646C77.0035 0.453366 78.0976 0.0019316 79.2383 0H225.608C226.747 0.00394501 227.838 0.456505 228.646 1.25959C229.453 2.06267 229.911 3.15158 229.921 4.29028V210.034C229.921 211.18 229.467 212.278 228.659 213.089C227.85 213.901 226.753 214.358 225.608 214.362ZM79.2383 0.151601C78.1413 0.153604 77.0898 0.590285 76.3141 1.366C75.5383 2.14172 75.1017 3.19325 75.0997 4.29028V210.034C75.1017 211.131 75.5383 212.183 76.3141 212.958C77.0898 213.734 78.1413 214.171 79.2383 214.173H225.608C226.705 214.171 227.757 213.734 228.532 212.958C229.308 212.183 229.745 211.131 229.747 210.034V4.29028C229.745 3.19325 229.308 2.14172 228.532 1.366C227.757 0.590285 226.705 0.153604 225.608 0.151601H79.2383Z" fill="#EBEBEB"/>
<path d="M164.57 168.867C145.18 143.732 136.206 119.089 112.632 155.352C102.02 144.141 92.7042 132.93 85.9125 122.356C49.1874 65.1498 12.2652 100.374 -17.7213 139.229C-47.7078 178.084 -82.3711 248.161 -82.3711 248.161H229.751C229.751 248.161 184.073 194.154 164.57 168.867Z" fill="#F5F5F5"/>
<path d="M98.0307 189.062C87.9872 170.21 83.371 151.715 71.0611 179.458C59.3576 205.844 29.3711 248.163 29.3711 248.163H131.58C131.58 248.163 108.059 207.905 98.0307 189.062Z" fill="#F0F0F0"/>
<path d="M-67.8425 26.1124C-67.0867 26.0862 -66.3442 26.3159 -65.7352 26.7642C-61.1039 24.4902 -55.7296 23.1258 -51.2347 23.285C-49.3853 23.265 -47.5606 23.7108 -45.9287 24.5812C-40.9941 21.1778 -34.6345 18.7673 -29.9501 18.7673C-27.2895 18.7673 -25.5991 19.5253 -24.9624 20.8518C-19.8535 18.5778 -14.5702 17.168 -10.2572 17.168C-3.38974 17.168 -1.02478 20.7306 -3.6323 25.7334C-0.395638 25.8167 2.33315 27.7951 0.00608826 29.5688H-75.8242C-75.7333 29.4551 -75.6423 29.349 -75.5362 29.2353C-73.457 27.2616 -70.709 26.1462 -67.8425 26.1124Z" fill="#FAFAFA"/>
<path d="M10.4961 48.185C10.7185 48.1761 10.9404 48.2132 11.1478 48.294C11.3552 48.3749 11.5437 48.4978 11.7013 48.655C14.5059 47.0177 17.7047 46.0096 20.3198 46.1233C21.4045 46.1156 22.4645 46.4469 23.3518 47.0708C26.3838 44.5997 30.1738 42.8411 32.9481 42.8411C34.4641 42.8411 35.457 43.4096 35.7678 44.3571C38.8529 42.6971 42.0062 41.6738 44.5303 41.6738C47.6533 41.6738 49.0783 43.2429 48.7524 45.6533C50.0406 44.9942 51.4535 44.6145 52.8986 44.5391C54.5662 44.5391 55.3773 45.2971 55.2939 46.5781C55.4403 46.5705 55.5871 46.5705 55.7335 46.5781C58.2804 46.7827 59.3265 48.3897 58.1667 50.2241H6.03906C7.1986 48.9845 8.80002 48.2518 10.4961 48.185Z" fill="#FAFAFA"/>
<path d="M184.298 64.4753C198.904 64.4753 210.745 52.6347 210.745 38.0287C210.745 23.4226 198.904 11.582 184.298 11.582C169.692 11.582 157.852 23.4226 157.852 38.0287C157.852 52.6347 169.692 64.4753 184.298 64.4753Z" fill="#F0F0F0"/>
<path d="M119.747 37.2547C120.502 37.2299 121.243 37.4565 121.855 37.899C126.486 35.625 131.86 34.2682 136.348 34.4198C138.196 34.404 140.02 34.8495 141.654 35.716C146.581 32.3201 152.948 29.9097 157.632 29.9097C160.293 29.9097 161.983 30.6677 162.62 31.9866C167.729 29.7126 173.012 28.3027 177.325 28.3027C184.193 28.3027 186.557 31.8653 183.95 36.8681C187.187 36.9591 189.915 38.9299 187.588 40.7036H111.766C111.857 40.5975 111.948 40.4838 112.054 40.3701C114.132 38.3953 116.881 37.282 119.747 37.2547Z" fill="#FAFAFA"/>
<path d="M170.289 79.6794C170.513 79.6686 170.736 79.7055 170.944 79.7879C171.151 79.8703 171.339 79.9961 171.495 80.157C174.307 78.5121 177.505 77.504 180.121 77.6177C181.206 77.6075 182.266 77.9389 183.153 78.5652C186.185 76.0941 189.975 74.3431 192.741 74.3431C194.303 74.3431 195.258 74.904 195.569 75.8591C198.654 74.1991 201.807 73.1758 204.324 73.1758C207.446 73.1758 208.872 74.7448 208.553 77.1553C209.841 76.4953 211.254 76.1155 212.699 76.041C214.367 76.041 215.178 76.8369 215.095 78.08H215.527C218.081 78.2923 219.12 79.8917 217.968 81.726H165.84C166.996 80.4847 168.595 79.7494 170.289 79.6794Z" fill="#FAFAFA"/>
<path d="M178.768 174.088L178.043 174.311L179.848 180.195L180.572 179.973L178.768 174.088Z" fill="#EBEBF0"/>
<path d="M171.799 151.362L171.074 151.584L176.444 169.092L177.168 168.87L171.799 151.362Z" fill="#EBEBF0"/>
<path d="M146.543 78.0723H119.581L63.3751 261.304C62.9405 262.731 62.8463 264.24 63.1002 265.71C63.354 267.181 63.9487 268.571 64.8367 269.77C65.7247 270.969 66.8812 271.943 68.2135 272.614C69.5459 273.286 71.017 273.636 72.509 273.636H193.622C195.116 273.637 196.589 273.286 197.923 272.614C199.257 271.942 200.414 270.966 201.302 269.765C202.191 268.564 202.785 267.172 203.037 265.7C203.29 264.228 203.194 262.717 202.756 261.288L146.543 78.0723Z" fill="#EBEBF0"/>
<path opacity="0.2" d="M146.543 78.0723H133.066L115.973 273.636H193.622C195.116 273.637 196.589 273.286 197.923 272.614C199.257 271.942 200.414 270.966 201.302 269.765C202.191 268.564 202.785 267.172 203.037 265.7C203.29 264.228 203.194 262.717 202.756 261.288L146.543 78.0723Z" fill="#F2F2F5"/>
<path opacity="0.2" d="M146.544 78.0723H140.215L159.506 273.636H193.616C195.11 273.637 196.583 273.286 197.916 272.614C199.25 271.942 200.408 270.966 201.296 269.765C202.184 268.564 202.779 267.172 203.031 265.7C203.284 264.228 203.187 262.717 202.75 261.288L146.544 78.0723Z" fill="#F2F2F5"/>
<path opacity="0.2" d="M119.581 78.0723H126.078L79.5894 273.636H72.5097C71.016 273.637 69.543 273.286 68.2092 272.614C66.8753 271.942 65.7178 270.966 64.8295 269.765C63.9412 268.564 63.3469 267.172 63.0944 265.7C62.842 264.228 62.9383 262.717 63.3758 261.288L119.581 78.0723Z" fill="white" fill-opacity="0.5"/>
<path d="M132.855 70.7891C136.791 70.7874 140.618 72.0841 143.742 74.4782C146.867 76.8723 149.115 80.2301 150.137 84.0313L158.839 116.398L156.527 126.631L147.673 118.247L139.282 137.516L131.642 124.122L122.152 137.516L118.028 117.429L109.402 128.859L107.355 115.64L115.542 84.1374C116.546 80.3115 118.79 76.9262 121.922 74.511C125.055 72.0958 128.899 70.7869 132.855 70.7891Z" fill="#EBEBF0"/>
<path opacity="0.7" d="M132.855 70.7891C136.791 70.7874 140.618 72.0841 143.742 74.4782C146.867 76.8723 149.115 80.2301 150.137 84.0313L158.839 116.398L156.527 126.631L147.673 118.247L139.282 137.516L131.642 124.122L122.152 137.516L118.028 117.429L109.402 128.859L107.355 115.64L115.542 84.1374C116.546 80.3115 118.79 76.9262 121.922 74.511C125.055 72.0958 128.899 70.7869 132.855 70.7891Z" fill="white" fill-opacity="0.5"/>
<path d="M115.974 274.396C115.829 274.396 115.687 274.355 115.565 274.277C115.442 274.199 115.345 274.088 115.284 273.956L102.436 246.122C102.37 245.977 102.351 245.815 102.382 245.658C102.413 245.502 102.493 245.359 102.61 245.25L152.638 198.391L121.56 137.842C121.487 137.694 121.46 137.528 121.484 137.364L132.354 72.6842C132.387 72.4832 132.499 72.3035 132.665 72.1848C132.83 72.0661 133.036 72.0181 133.237 72.0513C133.438 72.0844 133.618 72.1961 133.737 72.3617C133.855 72.5273 133.903 72.7333 133.87 72.9343L123.038 137.364L154.253 198.201C154.327 198.347 154.353 198.513 154.326 198.674C154.298 198.835 154.22 198.983 154.101 199.096L104.073 245.971L116.686 273.327C116.772 273.509 116.781 273.717 116.713 273.906C116.645 274.095 116.504 274.249 116.323 274.335C116.212 274.381 116.093 274.402 115.974 274.396Z" fill="white" fill-opacity="0.5"/>
<path d="M122.221 145.201C126.478 145.201 129.929 141.75 129.929 137.492C129.929 133.235 126.478 129.783 122.221 129.783C117.963 129.783 114.512 133.235 114.512 137.492C114.512 141.75 117.963 145.201 122.221 145.201Z" fill="#EBEBF0"/>
<path d="M122.221 145.959C120.546 145.959 118.909 145.463 117.517 144.532C116.124 143.602 115.039 142.28 114.398 140.732C113.758 139.185 113.59 137.483 113.917 135.84C114.243 134.198 115.05 132.689 116.234 131.505C117.418 130.321 118.927 129.515 120.569 129.188C122.211 128.861 123.914 129.029 125.461 129.67C127.008 130.311 128.33 131.396 129.261 132.788C130.191 134.181 130.688 135.818 130.688 137.492C130.686 139.737 129.793 141.89 128.206 143.477C126.618 145.064 124.466 145.957 122.221 145.959ZM122.221 130.541C120.846 130.541 119.502 130.949 118.359 131.713C117.216 132.477 116.325 133.562 115.799 134.832C115.273 136.102 115.135 137.5 115.403 138.848C115.672 140.197 116.334 141.435 117.306 142.407C118.278 143.379 119.516 144.041 120.865 144.31C122.213 144.578 123.611 144.44 124.881 143.914C126.151 143.388 127.236 142.497 128 141.354C128.764 140.211 129.172 138.867 129.172 137.492C129.17 135.649 128.437 133.883 127.134 132.579C125.83 131.276 124.064 130.543 122.221 130.541Z" fill="white" fill-opacity="0.5"/>
<path d="M141.009 73.2901C141.69 69.0752 138.825 65.1061 134.61 64.4249C130.395 63.7437 126.426 66.6084 125.745 70.8233C125.064 75.0382 127.929 79.0073 132.143 79.6885C136.358 80.3697 140.327 77.505 141.009 73.2901Z" fill="#EBEBF0"/>
<path d="M133.092 81.2716C131.417 81.2716 129.78 80.7749 128.387 79.8442C126.995 78.9135 125.909 77.5907 125.269 76.0431C124.628 74.4956 124.461 72.7928 124.788 71.1502C125.116 69.5075 125.923 67.9989 127.108 66.8151C128.292 65.6313 129.802 64.8255 131.445 64.4997C133.088 64.1738 134.79 64.3426 136.337 64.9846C137.884 65.6266 139.206 66.713 140.135 68.1063C141.065 69.4997 141.56 71.1374 141.559 72.8123C141.555 75.056 140.661 77.2064 139.074 78.7922C137.487 80.378 135.335 81.2696 133.092 81.2716ZM133.092 65.8615C131.717 65.8615 130.373 66.2691 129.23 67.0329C128.087 67.7967 127.196 68.8823 126.67 70.1524C126.144 71.4225 126.006 72.82 126.275 74.1684C126.543 75.5167 127.205 76.7552 128.177 77.7273C129.149 78.6994 130.387 79.3614 131.736 79.6296C133.084 79.8978 134.482 79.7602 135.752 79.2341C137.022 78.708 138.108 77.8171 138.871 76.674C139.635 75.531 140.043 74.1871 140.043 72.8123C140.041 70.9695 139.308 69.2027 138.005 67.8995C136.702 66.5964 134.935 65.8635 133.092 65.8615Z" fill="white" fill-opacity="0.5"/>
<path d="M133.067 72.8501C132.866 72.8501 132.673 72.7702 132.531 72.628C132.388 72.4859 132.309 72.2931 132.309 72.0921V38.0275C132.309 37.8265 132.388 37.6337 132.531 37.4915C132.673 37.3494 132.866 37.2695 133.067 37.2695C133.268 37.2695 133.46 37.3494 133.603 37.4915C133.745 37.6337 133.825 37.8265 133.825 38.0275V72.0921C133.825 72.2931 133.745 72.4859 133.603 72.628C133.46 72.7702 133.268 72.8501 133.067 72.8501Z" fill="#EBEBF0"/>
<path d="M102.496 52.1929C109.318 54.5124 116.079 49.9189 122.879 52.1929V40.6107C116.057 38.3367 109.288 42.9301 102.496 40.6107V52.1929Z" fill="#EBEBF0"/>
<path opacity="0.2" d="M109.941 41.043V52.6177C114.254 52.0492 118.567 50.7227 122.88 52.1932V40.611C118.567 39.1405 114.254 40.467 109.941 41.043Z" fill="#F2F2F5"/>
<path d="M112.684 49.6026C119.506 51.9221 126.275 47.3286 133.066 49.6026V38.0279C126.244 35.7084 119.483 40.3019 112.684 38.0279V49.6026Z" fill="#EBEBF0"/>
</svg>
