<svg width="100" height="101" viewBox="0 0 100 101" fill="none" xmlns="http://www.w3.org/2000/svg">
<path d="M54.0375 62.7876L44.9247 48.4788L42.4667 53.135C41.7871 54.3942 40.6281 55.2934 39.2891 55.633L56.0359 80.7734C70.2647 51.5564 98.0029 28.8145 98.0029 28.8145C83.6743 32.6513 54.0375 62.7876 54.0375 62.7876Z" fill="#00072D"/>
<path d="M31.0487 28.8142C34.9114 28.8142 38.0427 25.6829 38.0427 21.8202C38.0427 17.9575 34.9114 14.8262 31.0487 14.8262C27.186 14.8262 24.0547 17.9575 24.0547 21.8202C24.0547 25.6829 27.186 28.8142 31.0487 28.8142Z" fill="#00072D"/>
<path d="M35.3979 49.3939C34.6231 50.8575 35.1813 52.6725 36.6449 53.4473C38.1011 54.2167 39.9189 53.6677 40.6963 52.2003L46.6915 40.8753C47.0847 40.1317 47.1481 39.2593 46.8661 38.4671C46.5851 37.6767 45.9839 37.0385 45.2101 36.7107L32.2203 31.2151C31.9703 31.1103 31.7141 31.0541 31.4575 31.0193C30.4457 30.5365 29.3265 30.2419 28.1319 30.2253C26.7679 30.2063 25.4981 30.5613 24.3655 31.1465C24.0759 31.2427 23.7931 31.3709 23.5337 31.5607L14.1329 38.4577L5.38055 37.3331C3.74515 37.1067 2.23555 38.2797 2.02475 39.9229C1.81395 41.5661 2.97315 43.0669 4.61555 43.2777L14.5579 44.5559C14.6857 44.5735 14.8135 44.5813 14.9403 44.5813C15.5745 44.5813 16.1971 44.3803 16.7133 43.9997L19.9581 41.6187C19.9447 42.5729 19.7597 54.2891 19.8075 55.2383L16.0223 67.9261C15.6525 69.1653 16.1199 70.5041 17.1825 71.2439L23.2485 75.4667L21.7863 82.6763C21.4575 84.2981 22.5065 85.8809 24.1283 86.2087C25.7569 86.5391 27.3347 85.4821 27.6627 83.8667L28.6095 79.1981L32.2547 81.7357C33.6109 82.6787 35.4785 82.3485 36.4271 80.9883C37.3737 79.6281 37.0389 77.7603 35.6797 76.8139L29.9079 72.7961C30.0953 71.8725 33.7407 54.5505 33.7087 53.6085L35.9365 39.4873C35.9451 39.4299 35.9445 39.3643 35.9521 39.3049L39.8631 40.9593L35.3979 49.3939ZM22.3877 67.5613L24.2563 61.2987C25.2215 61.6509 25.4513 61.6135 26.0485 61.6627L24.5473 69.0645L22.3877 67.5613Z" fill="#00072D"/>
</svg>
