<svg width="100" height="101" viewBox="0 0 100 101" fill="none" xmlns="http://www.w3.org/2000/svg">
<g clip-path="url(#clip0_239:500)">
<path d="M50 100.482C77.6142 100.482 100 78.0967 100 50.4824C100 22.8682 77.6142 0.482422 50 0.482422C22.3858 0.482422 0 22.8682 0 50.4824C0 78.0967 22.3858 100.482 50 100.482Z" fill="#00072D"/>
<path d="M49.9561 23.5586L48.5664 25.1211C42.681 31.7284 34.5111 34.8453 24.7683 36.0361L23.0781 36.2389V37.9441C23.0781 47.8664 25.1769 57.4944 29.5234 65.3855C33.87 73.2763 40.5401 79.4338 49.4528 82.0923L50.0237 82.265L50.5947 82.0697C67.8181 76.5036 76.9243 58.373 76.9243 37.9441V36.4117L75.4294 36.0586C65.9483 33.8744 57.2039 31.2185 51.3984 25.0835L49.9561 23.5586ZM50.0463 28.6818C56.2728 34.4956 64.4513 37.2977 72.9204 39.3188C72.5184 57.7096 64.4697 73.0459 49.9862 78.0959C42.4427 75.6543 36.7465 70.5201 32.8963 63.5301C29.1453 56.7204 27.2816 48.2172 27.082 39.3714C35.9854 38.0183 43.9373 34.8295 50.0463 28.6818ZM60.2701 45.1481L46.2452 57.4228L39.8224 51.0075L37.1031 53.7269L46.0649 62.6887L62.8092 48.0403L60.2701 45.1481Z" fill="white"/>
</g>
<defs>
<clipPath id="clip0_239:500">
<rect width="100" height="100" fill="white" transform="translate(0 0.482422)"/>
</clipPath>
</defs>
</svg>
