<svg width="650" height="512" viewBox="0 0 650 512" fill="none" xmlns="http://www.w3.org/2000/svg">
<path d="M577.566 272.686V254.494C577.566 251.026 576.188 247.699 573.735 245.246C571.282 242.793 567.956 241.415 564.487 241.415H518.321C516.603 241.415 514.902 241.077 513.315 240.419C511.728 239.762 510.287 238.799 509.072 237.584C507.858 236.37 506.894 234.928 506.237 233.341C505.58 231.754 505.241 230.053 505.241 228.336V210.144C505.241 206.675 506.619 203.349 509.072 200.896C511.525 198.443 514.852 197.065 518.321 197.065H519.778C521.496 197.065 523.197 196.727 524.784 196.069C526.371 195.412 527.812 194.449 529.027 193.234C530.241 192.02 531.205 190.578 531.862 188.991C532.52 187.404 532.858 185.703 532.858 183.985V165.794C532.858 164.077 532.52 162.376 531.862 160.789C531.205 159.202 530.241 157.76 529.027 156.546C527.812 155.331 526.371 154.368 524.784 153.71C523.197 153.053 521.496 152.715 519.778 152.715H147.871C144.402 152.715 141.075 154.093 138.623 156.546C136.17 158.999 134.792 162.325 134.792 165.794V183.985C134.792 187.454 136.17 190.781 138.623 193.234C141.075 195.687 144.402 197.065 147.871 197.065C149.589 197.065 151.29 197.403 152.876 198.061C154.463 198.718 155.905 199.681 157.12 200.896C158.334 202.11 159.298 203.552 159.955 205.139C160.612 206.726 160.951 208.427 160.951 210.144V228.336C160.951 230.053 160.612 231.754 159.955 233.341C159.298 234.928 158.334 236.37 157.12 237.584C155.905 238.799 154.463 239.762 152.876 240.419C151.29 241.077 149.589 241.415 147.871 241.415H97.2918C95.5742 241.415 93.8734 241.753 92.2865 242.411C90.6996 243.068 89.2577 244.031 88.0432 245.246C86.8287 246.46 85.8652 247.902 85.2079 249.489C84.5506 251.076 84.2123 252.777 84.2123 254.494V272.686C84.2123 274.403 84.5506 276.104 85.2079 277.691C85.8652 279.278 86.8287 280.72 88.0432 281.934C89.2577 283.149 90.6996 284.112 92.2865 284.769C93.8734 285.427 95.5742 285.765 97.2918 285.765H117.138C120.607 285.765 123.934 287.143 126.387 289.596C128.84 292.049 130.218 295.376 130.218 298.844V317.036C130.218 320.505 128.84 323.831 126.387 326.284C123.934 328.737 120.607 330.115 117.138 330.115H117.09C113.621 330.115 110.295 331.493 107.842 333.946C105.389 336.399 104.011 339.726 104.011 343.195V361.386C104.011 363.103 104.349 364.804 105.007 366.391C105.664 367.978 106.627 369.42 107.842 370.634C109.056 371.849 110.498 372.812 112.085 373.47C113.672 374.127 115.373 374.465 117.09 374.465H119.962C121.679 374.465 123.38 374.803 124.967 375.461C126.554 376.118 127.996 377.081 129.21 378.296C130.425 379.511 131.388 380.952 132.046 382.539C132.703 384.126 133.041 385.827 133.041 387.545V405.736C133.041 409.205 131.663 412.532 129.21 414.984C126.757 417.437 123.431 418.815 119.962 418.815H72.8373C71.1196 418.815 69.4189 419.154 67.832 419.811C66.2451 420.468 64.8032 421.432 63.5887 422.646C62.3742 423.861 61.4107 425.303 60.7534 426.889C60.0961 428.476 59.7578 430.177 59.7578 431.895V450.086C59.7578 451.804 60.0961 453.504 60.7534 455.091C61.4107 456.678 62.3742 458.12 63.5887 459.335C64.8032 460.549 66.2451 461.512 67.832 462.17C69.4189 462.827 71.1196 463.165 72.8373 463.165H526.8C528.518 463.165 530.219 462.827 531.806 462.17C533.392 461.512 534.834 460.549 536.049 459.335C537.263 458.12 538.227 456.678 538.884 455.091C539.541 453.504 539.88 451.804 539.88 450.086V431.895C539.88 430.177 539.541 428.476 538.884 426.889C538.227 425.303 537.263 423.861 536.049 422.646C534.834 421.432 533.392 420.468 531.806 419.811C530.219 419.154 528.518 418.815 526.8 418.815H515.46C513.742 418.815 512.041 418.477 510.454 417.82C508.868 417.162 507.426 416.199 506.211 414.984C504.997 413.77 504.033 412.328 503.376 410.741C502.719 409.154 502.38 407.453 502.38 405.736V387.545C502.38 385.827 502.719 384.126 503.376 382.539C504.033 380.952 504.997 379.511 506.211 378.296C507.426 377.082 508.868 376.118 510.454 375.461C512.041 374.803 513.742 374.465 515.46 374.465H542.2C545.669 374.465 548.995 373.087 551.448 370.634C553.901 368.181 555.279 364.855 555.279 361.386V343.195C555.279 339.726 553.901 336.399 551.448 333.946C548.995 331.493 545.669 330.115 542.2 330.115H534.088C530.619 330.115 527.292 328.737 524.839 326.284C522.387 323.831 521.009 320.505 521.009 317.036V298.844C521.009 295.376 522.387 292.049 524.839 289.596C527.292 287.143 530.619 285.765 534.088 285.765H564.487C567.956 285.765 571.282 284.387 573.735 281.934C576.188 279.481 577.566 276.154 577.566 272.686Z" fill="#E5F3FF"/>
<path d="M324.321 449.017C420.208 449.017 497.939 371.286 497.939 275.399C497.939 179.513 420.208 101.781 324.321 101.781C228.435 101.781 150.703 179.513 150.703 275.399C150.703 371.286 228.435 449.017 324.321 449.017Z" fill="#E5F3FF"/>
<path d="M388.773 216.023L483.235 266.484V413.627L388.773 363.166V216.023Z" fill="#E6B800"/>
<path d="M388.77 216.023L168.156 266.484V413.627L388.77 363.166V216.023Z" fill="#FFCC00"/>
<path d="M350.925 169.447L130.312 219.908L168.158 266.13L388.771 215.669L350.925 169.447Z" fill="#FDDD48"/>
<path d="M262.618 463.734L168.156 413.274V266.131L262.618 316.591V463.734Z" fill="#FDDD48"/>
<path d="M224.775 350.198L130.312 299.737L168.158 266.131L262.619 316.591L224.775 350.198Z" fill="#FDED72"/>
<path d="M483.235 266.131L388.773 215.669L426.618 182.062L521.081 232.523L483.235 266.131Z" fill="#FFCC00"/>
<path d="M262.617 463.734L483.231 413.274V266.131L262.617 316.591V463.734Z" fill="#FFCC00"/>
<path d="M262.617 317.299L483.231 266.838L521.077 307.661L300.463 358.121L262.617 317.299Z" fill="#FDDD48"/>
<path d="M114.359 91.7335C119.349 91.0107 124.417 91.0187 129.404 91.7572C134.439 92.4338 139.359 93.7862 144.032 95.7777C148.728 97.7761 153.066 100.529 156.874 103.928C160.659 107.295 163.769 111.353 166.037 115.883C163 111.99 159.499 108.483 155.612 105.439C151.743 102.473 147.517 100.005 143.033 98.0931C140.801 97.1068 138.51 96.2593 136.173 95.5556C133.845 94.8066 131.462 94.2285 129.065 93.6889C124.222 92.654 119.305 92.0002 114.359 91.7335Z" fill="#FFCC00"/>
<path d="M422.43 114.425C422.979 109.414 424.256 104.509 426.219 99.8653C428.135 95.1606 430.676 90.7357 433.774 86.7103C436.885 82.6638 440.636 79.1533 444.88 76.3175C449.088 73.4965 453.795 71.5017 458.749 70.4395C454.219 72.4053 449.947 74.9167 446.027 77.9178C442.187 80.9206 438.739 84.3942 435.766 88.2569C434.252 90.171 432.858 92.1768 431.592 94.263C430.284 96.3296 429.127 98.4915 428.005 100.677C425.79 105.107 423.926 109.704 422.43 114.425Z" fill="#0E6BA8"/>
<path d="M300.684 101.32C299.454 96.4301 298.944 91.3876 299.169 86.351C299.327 81.2739 300.169 76.2413 301.673 71.3893C303.18 66.5132 305.475 61.9165 308.466 57.7809C311.43 53.6714 315.147 50.1632 319.422 47.4434C315.86 50.8626 312.729 54.7038 310.099 58.882C307.544 63.0335 305.521 67.4897 304.078 72.1457C303.325 74.4671 302.716 76.8329 302.255 79.2295C301.748 81.6222 301.417 84.051 301.125 86.4909C300.591 91.4146 300.443 96.3727 300.684 101.32Z" fill="#E63535"/>
<path d="M491.656 160.978C492.174 155.963 493.419 151.051 495.353 146.395C497.238 141.678 499.751 137.237 502.823 133.192C505.908 129.126 509.637 125.591 513.862 122.728C518.053 119.88 522.746 117.856 527.693 116.762C523.177 118.756 518.921 121.295 515.019 124.321C511.199 127.349 507.774 130.844 504.825 134.726C503.323 136.649 501.942 138.664 500.689 140.759C499.394 142.833 498.252 145.002 497.143 147.195C494.957 151.639 493.122 156.248 491.656 160.978Z" fill="#FFCC00"/>
<path d="M204.445 183.555C204.995 183.784 205.448 184.199 205.723 184.728C205.981 185.266 206.15 185.843 206.224 186.436C206.397 187.601 206.372 188.758 206.474 189.852C206.429 190.796 206.737 191.723 207.337 192.452C207.656 192.666 208.036 192.768 208.418 192.743C208.8 192.717 209.163 192.566 209.451 192.313C210.332 191.696 211.176 191.027 211.976 190.309C212.949 189.378 214.148 188.716 215.455 188.39C216.322 188.251 217.21 188.461 217.923 188.974C218.284 189.224 218.595 189.539 218.841 189.902C219.046 190.241 219.208 190.604 219.323 190.983C219.616 192.218 219.718 193.491 219.626 194.757C219.535 195.751 219.583 196.754 219.77 197.734C219.821 198.03 219.986 198.294 220.229 198.471C220.441 198.632 220.709 198.703 220.973 198.667C221.874 198.434 222.708 197.99 223.406 197.374C224.33 196.618 225.323 195.949 226.37 195.376C227.009 195.031 227.724 194.855 228.45 194.864C229.247 194.888 230.003 195.222 230.557 195.796C231.033 196.342 231.34 197.015 231.442 197.732C231.528 198.341 231.55 198.957 231.508 199.57C231.428 200.743 231.259 201.853 231.222 202.953C231.134 203.493 231.188 204.047 231.378 204.559C231.569 205.072 231.889 205.527 232.308 205.879C231.757 205.65 231.304 205.236 231.028 204.708C230.768 204.169 230.598 203.592 230.524 202.999C230.35 201.834 230.372 200.677 230.27 199.583C230.315 198.639 230.007 197.713 229.406 196.983C229.09 196.768 228.712 196.664 228.33 196.688C227.948 196.711 227.585 196.86 227.298 197.113C226.417 197.728 225.573 198.395 224.772 199.112C223.8 200.042 222.603 200.704 221.299 201.034C220.433 201.177 219.545 200.973 218.83 200.464C218.466 200.218 218.153 199.905 217.906 199.541C217.696 199.204 217.53 198.841 217.414 198.461C217.116 197.225 217.013 195.95 217.106 194.682C217.199 193.686 217.153 192.682 216.967 191.699C216.922 191.535 216.859 191.376 216.781 191.225C216.678 191.144 216.64 191.001 216.511 190.956C216.3 190.794 216.034 190.721 215.77 190.752C214.87 190.984 214.037 191.425 213.34 192.041C212.416 192.796 211.425 193.466 210.379 194.041C209.743 194.386 209.03 194.565 208.306 194.561C207.509 194.54 206.751 194.209 206.195 193.637C205.718 193.092 205.41 192.42 205.309 191.702C205.222 191.094 205.199 190.478 205.242 189.865C205.323 188.692 205.491 187.582 205.53 186.481C205.618 185.941 205.564 185.388 205.374 184.875C205.184 184.362 204.864 183.907 204.445 183.555Z" fill="#0E6BA8"/>
<path d="M325.487 127.906C325.661 128.491 325.633 129.118 325.409 129.685C325.167 130.25 324.829 130.769 324.411 131.219C323.61 132.127 322.678 132.867 321.885 133.668C321.109 134.264 320.588 135.131 320.424 136.095C320.454 136.5 320.611 136.886 320.874 137.197C321.136 137.508 321.49 137.728 321.885 137.827C322.933 138.17 324.003 138.445 325.087 138.649C326.454 138.865 327.737 139.444 328.805 140.325C329.424 140.939 329.796 141.759 329.852 142.63C329.891 143.064 329.85 143.502 329.734 143.923C329.613 144.308 329.443 144.676 329.228 145.018C328.46 146.076 327.527 147.005 326.465 147.767C325.623 148.348 324.87 149.05 324.232 149.849C324.033 150.108 323.936 150.43 323.958 150.755C323.972 151.057 324.091 151.344 324.296 151.566C325.038 152.17 325.918 152.582 326.857 152.767C328.053 153.048 329.219 153.444 330.339 153.951C330.652 154.111 330.952 154.296 331.237 154.502C331.539 154.744 331.804 155.028 332.024 155.346C332.478 155.999 332.684 156.791 332.605 157.582C332.494 158.31 332.178 158.992 331.696 159.548C331.281 160.026 330.814 160.457 330.303 160.83C329.328 161.546 328.341 162.143 327.456 162.846C326.979 163.143 326.585 163.558 326.313 164.05C326.04 164.542 325.897 165.095 325.898 165.658C325.724 165.073 325.751 164.447 325.974 163.879C326.215 163.313 326.552 162.794 326.97 162.343C327.771 161.434 328.702 160.692 329.495 159.891C330.27 159.296 330.792 158.429 330.955 157.466C330.927 157.06 330.771 156.675 330.51 156.363C330.249 156.052 329.896 155.832 329.502 155.733C328.455 155.388 327.386 155.112 326.303 154.907C324.937 154.69 323.654 154.113 322.586 153.235C322.13 152.77 321.804 152.194 321.638 151.564C321.473 150.934 321.474 150.272 321.642 149.643C321.76 149.255 321.928 148.885 322.142 148.541C322.908 147.479 323.841 146.549 324.905 145.787C325.75 145.207 326.504 144.505 327.145 143.705C327.346 143.447 327.446 143.124 327.425 142.797C327.412 142.496 327.296 142.208 327.094 141.984C326.353 141.38 325.474 140.968 324.536 140.784C323.341 140.502 322.175 140.107 321.055 139.604C320.742 139.444 320.442 139.261 320.157 139.055C319.854 138.815 319.588 138.532 319.367 138.215C318.911 137.565 318.704 136.772 318.782 135.982C318.892 135.254 319.207 134.572 319.689 134.016C320.103 133.537 320.57 133.107 321.081 132.734C322.056 132.019 323.043 131.421 323.928 130.719C324.406 130.421 324.799 130.007 325.072 129.515C325.345 129.022 325.488 128.469 325.487 127.906Z" fill="#FFCC00"/>
<path d="M384.461 175.467C384.693 174.828 385.087 174.261 385.604 173.82C386.144 173.387 386.762 173.059 387.423 172.854C388.727 172.431 390.069 172.286 391.298 171.979C392.427 171.819 393.451 171.232 394.159 170.338C394.43 169.904 394.59 169.409 394.623 168.899C394.656 168.388 394.562 167.877 394.349 167.412C393.774 166.312 393.107 165.263 392.356 164.275C391.402 163.053 390.82 161.583 390.681 160.039C390.695 159.166 390.935 158.312 391.375 157.558C391.816 156.804 392.443 156.177 393.197 155.736C394.534 155.101 395.977 154.72 397.454 154.613C398.605 154.552 399.738 154.292 400.801 153.844C401.183 153.615 401.504 153.296 401.736 152.915C401.968 152.535 402.104 152.104 402.134 151.659C402.03 150.568 401.633 149.526 400.985 148.642C400.187 147.5 399.523 146.271 399.004 144.979C398.739 144.215 398.659 143.398 398.773 142.597C398.896 141.796 399.221 141.039 399.718 140.398C400.747 139.277 402.175 138.602 403.695 138.518C405.057 138.375 406.358 138.382 407.614 138.182C408.248 138.115 408.86 137.906 409.402 137.57C409.944 137.234 410.404 136.78 410.746 136.242C410.515 136.881 410.121 137.449 409.605 137.891C409.065 138.324 408.448 138.653 407.786 138.86C406.482 139.284 405.14 139.43 403.912 139.738C402.784 139.898 401.759 140.485 401.051 141.377C400.779 141.81 400.618 142.304 400.584 142.814C400.549 143.324 400.641 143.835 400.852 144.3C401.425 145.4 402.09 146.45 402.839 147.438C403.792 148.659 404.376 150.127 404.523 151.669C404.509 152.542 404.272 153.397 403.835 154.153C403.397 154.909 402.773 155.54 402.022 155.986C400.686 156.627 399.24 157.01 397.762 157.116C396.608 157.175 395.474 157.433 394.408 157.88C394.024 158.107 393.702 158.424 393.467 158.803C393.233 159.183 393.094 159.613 393.063 160.058C393.161 161.148 393.556 162.191 394.205 163.073C395.002 164.214 395.667 165.441 396.189 166.731C396.457 167.494 396.539 168.309 396.427 169.11C396.307 169.911 395.983 170.669 395.487 171.309C394.46 172.434 393.033 173.11 391.513 173.192C390.151 173.336 388.85 173.329 387.594 173.528C386.959 173.594 386.348 173.803 385.805 174.139C385.263 174.475 384.803 174.929 384.461 175.467Z" fill="#0E6BA8"/>
<path d="M405.453 228.145C405.519 227.469 405.759 226.821 406.15 226.266C406.566 225.712 407.082 225.241 407.672 224.877C408.83 224.143 410.093 223.669 411.207 223.066C412.26 222.63 413.106 221.806 413.569 220.764C413.724 220.276 413.756 219.758 413.661 219.255C413.566 218.752 413.348 218.281 413.026 217.883C412.195 216.961 411.288 216.111 410.315 215.341C409.087 214.395 408.157 213.115 407.638 211.655C407.435 210.806 407.454 209.919 407.693 209.079C407.932 208.24 408.384 207.476 409.004 206.861C410.141 205.913 411.444 205.185 412.848 204.714C413.948 204.369 414.98 203.835 415.898 203.137C416.211 202.819 416.442 202.431 416.572 202.004C416.703 201.578 416.728 201.127 416.646 200.689C416.274 199.658 415.63 198.747 414.782 198.052C413.725 197.145 412.776 196.12 411.952 194.997C411.504 194.323 411.225 193.552 411.135 192.748C411.055 191.941 411.182 191.128 411.503 190.383C412.221 189.041 413.436 188.032 414.887 187.573C416.171 187.094 417.432 186.777 418.599 186.271C419.197 186.049 419.737 185.694 420.179 185.234C420.62 184.774 420.953 184.22 421.15 183.613C421.085 184.29 420.845 184.937 420.455 185.494C420.04 186.048 419.524 186.52 418.935 186.885C417.777 187.621 416.514 188.095 415.401 188.7C414.348 189.136 413.502 189.959 413.038 190.999C412.882 191.486 412.849 192.004 412.943 192.507C413.036 193.01 413.253 193.481 413.573 193.88C414.402 194.803 415.306 195.654 416.278 196.425C417.505 197.37 418.436 198.647 418.962 200.104C419.166 200.953 419.149 201.84 418.914 202.681C418.678 203.522 418.23 204.288 417.614 204.907C416.479 205.86 415.175 206.591 413.769 207.061C412.666 207.406 411.632 207.938 410.711 208.636C410.396 208.951 410.162 209.339 410.029 209.764C409.897 210.19 409.869 210.642 409.95 211.08C410.316 212.112 410.958 213.024 411.806 213.717C412.862 214.623 413.812 215.646 414.638 216.766C415.087 217.438 415.37 218.207 415.461 219.01C415.544 219.817 415.419 220.631 415.098 221.375C414.383 222.719 413.169 223.729 411.717 224.187C410.434 224.665 409.173 224.982 408.005 225.488C407.407 225.71 406.867 226.064 406.425 226.524C405.983 226.985 405.651 227.539 405.453 228.145Z" fill="#E6B800"/>
<path d="M271.742 228.776C272.208 229.111 272.53 229.611 272.644 230.174C272.735 230.738 272.744 231.312 272.672 231.879C272.553 233 272.267 234.07 272.103 235.113C271.835 235.969 271.883 236.893 272.238 237.717C272.637 238.191 273.217 238.242 274.122 237.854C275.054 237.406 275.962 236.909 276.843 236.366C277.914 235.652 279.144 235.211 280.425 235.083C280.867 235.071 281.306 235.158 281.71 235.337C282.115 235.516 282.474 235.782 282.762 236.118C283.058 236.449 283.28 236.839 283.413 237.263C283.515 237.632 283.569 238.014 283.575 238.397C283.527 239.607 283.311 240.804 282.934 241.955C282.616 242.863 282.415 243.808 282.336 244.768C282.335 244.927 282.35 245.085 282.381 245.241C282.449 245.322 282.438 245.448 282.528 245.492C282.638 245.654 282.793 245.706 283.065 245.732C283.955 245.637 284.813 245.348 285.579 244.884C286.578 244.332 287.623 243.865 288.701 243.49C289.361 243.261 290.067 243.196 290.758 243.302C291.151 243.372 291.523 243.529 291.848 243.761C292.172 243.993 292.441 244.295 292.635 244.645C292.944 245.279 293.056 245.991 292.957 246.69C292.874 247.27 292.74 247.842 292.557 248.399C292.199 249.465 291.782 250.458 291.475 251.47C291.25 251.943 291.154 252.467 291.198 252.989C291.242 253.511 291.424 254.011 291.725 254.44C291.258 254.105 290.935 253.606 290.82 253.043C290.728 252.479 290.717 251.904 290.788 251.337C290.906 250.216 291.19 249.145 291.354 248.102C291.622 247.246 291.573 246.322 291.218 245.498C290.823 245.021 290.244 244.967 289.342 245.352C288.41 245.798 287.501 246.293 286.621 246.834C285.551 247.547 284.324 247.989 283.045 248.121C282.603 248.135 282.164 248.052 281.759 247.876C281.354 247.7 280.994 247.436 280.703 247.104C280.404 246.774 280.178 246.384 280.039 245.961C279.936 245.591 279.88 245.209 279.872 244.824C279.915 243.612 280.129 242.413 280.509 241.261C280.83 240.352 281.032 239.405 281.112 238.444C281.115 238.284 281.101 238.124 281.069 237.968C281.002 237.881 281.015 237.755 280.924 237.712C280.816 237.548 280.659 237.498 280.393 237.465C279.504 237.559 278.647 237.847 277.883 238.31C276.885 238.862 275.842 239.329 274.765 239.707C274.107 239.937 273.403 240.005 272.714 239.905C272.32 239.836 271.948 239.681 271.622 239.45C271.296 239.219 271.026 238.919 270.831 238.571C270.521 237.937 270.408 237.225 270.506 236.526C270.587 235.945 270.721 235.373 270.906 234.817C271.265 233.751 271.681 232.757 271.99 231.746C272.215 231.273 272.311 230.749 272.268 230.227C272.224 229.705 272.043 229.204 271.742 228.776ZM229.706 57.207C229.948 57.8188 230.015 58.4863 229.897 59.1338C229.759 59.7887 229.5 60.412 229.132 60.9715C228.427 62.0905 227.53 63.0326 226.811 64.0228C226.075 64.8268 225.676 65.883 225.696 66.973C225.774 67.4476 225.976 67.8931 226.282 68.2638C226.589 68.6345 226.988 68.9172 227.44 69.083C228.575 69.4678 229.738 69.7625 230.919 69.9641C232.403 70.1909 233.793 70.8333 234.927 71.817C235.513 72.4542 235.91 73.2422 236.072 74.0924C236.235 74.9426 236.158 75.8213 235.848 76.6299C235.239 77.9222 234.401 79.0943 233.376 80.0901C232.563 80.8494 231.883 81.739 231.363 82.7222C231.217 83.1029 231.175 83.5158 231.242 83.918C231.309 84.3202 231.483 84.6972 231.744 85.0099C232.542 85.695 233.507 86.1568 234.541 86.3484C235.855 86.6289 237.134 87.0527 238.355 87.6121C239.06 87.9671 239.667 88.4905 240.121 89.136C240.574 89.7976 240.835 90.5716 240.875 91.3723C240.802 92.8509 240.149 94.2411 239.057 95.2403C238.134 96.1861 237.169 96.9888 236.355 97.9087C235.917 98.3399 235.586 98.868 235.389 99.4505C235.192 100.033 235.135 100.653 235.221 101.262C234.978 100.65 234.911 99.9829 235.028 99.335C235.165 98.6798 235.424 98.056 235.79 97.4957C236.495 96.3762 237.391 95.4328 238.109 94.442C238.845 93.6382 239.245 92.5829 239.226 91.4934C239.149 91.0191 238.948 90.5737 238.643 90.2025C238.338 89.8314 237.94 89.5476 237.489 89.3802C236.356 88.9939 235.194 88.698 234.014 88.4951C232.531 88.2684 231.141 87.6283 230.006 86.6481C229.417 86.0127 229.018 85.2262 228.851 84.3765C228.684 83.5268 228.757 82.6476 229.062 81.837C229.668 80.5409 230.505 79.366 231.533 78.37C232.348 77.6108 233.031 76.7211 233.553 75.7374C233.702 75.3571 233.746 74.9443 233.682 74.5412C233.617 74.1382 233.447 73.7596 233.188 73.4444C232.391 72.7588 231.427 72.2967 230.394 72.1052C229.081 71.8247 227.803 71.4025 226.581 70.8462C225.876 70.4942 225.268 69.9735 224.812 69.3303C224.357 68.6703 224.094 67.8965 224.055 67.0958C224.124 65.6175 224.776 64.2268 225.869 63.2287C226.791 62.2829 227.757 61.48 228.571 60.5606C229.01 60.1297 229.341 59.6016 229.538 59.0191C229.735 58.4365 229.793 57.8158 229.706 57.207Z" fill="#0E6BA8"/>
<path d="M220.522 130.082C221.741 129.819 222.855 129.2 223.723 128.303C224.591 127.407 225.173 126.273 225.396 125.046C225.619 123.819 225.474 122.553 224.978 121.408C224.481 120.263 223.657 119.292 222.608 118.616C221.56 117.94 220.334 117.59 219.087 117.61C217.84 117.631 216.626 118.02 215.601 118.73C214.575 119.44 213.783 120.439 213.324 121.599C212.866 122.759 212.762 124.029 213.025 125.249C213.395 126.874 214.387 128.29 215.788 129.194C217.189 130.097 218.889 130.416 220.522 130.082Z" fill="#FFCC00"/>
<path d="M339.585 71.8421C340.804 71.5787 341.918 70.9597 342.785 70.0632C343.653 69.1668 344.235 68.0332 344.459 66.8058C344.682 65.5784 344.536 64.3124 344.04 63.1678C343.544 62.0232 342.719 61.0515 341.671 60.3755C340.622 59.6995 339.397 59.3496 338.15 59.37C336.902 59.3904 335.689 59.7803 334.663 60.4902C333.637 61.2002 332.845 62.1984 332.387 63.3586C331.928 64.5189 331.824 65.789 332.087 67.0084C332.457 68.6341 333.449 70.0502 334.851 70.9537C336.252 71.8571 337.951 72.176 339.585 71.8421Z" fill="#0E6BA8"/>
<path d="M353.697 126.407C354.916 126.143 356.03 125.524 356.897 124.628C357.765 123.731 358.347 122.598 358.571 121.37C358.794 120.143 358.648 118.877 358.152 117.732C357.656 116.588 356.831 115.616 355.783 114.94C354.734 114.264 353.509 113.914 352.262 113.934C351.014 113.955 349.801 114.345 348.775 115.055C347.749 115.765 346.957 116.763 346.499 117.923C346.04 119.083 345.936 120.353 346.199 121.573C346.569 123.199 347.561 124.615 348.963 125.518C350.364 126.422 352.063 126.74 353.697 126.407ZM319.991 211.278C321.21 211.015 322.324 210.395 323.192 209.499C324.059 208.603 324.642 207.469 324.865 206.242C325.088 205.014 324.942 203.748 324.446 202.604C323.95 201.459 323.126 200.487 322.077 199.811C321.029 199.135 319.803 198.785 318.556 198.806C317.309 198.826 316.095 199.216 315.069 199.926C314.044 200.636 313.251 201.634 312.793 202.794C312.334 203.955 312.23 205.225 312.494 206.444C312.864 208.07 313.856 209.486 315.257 210.39C316.658 211.293 318.357 211.612 319.991 211.278ZM365.515 250.617C366.735 250.353 367.849 249.734 368.716 248.838C369.584 247.941 370.166 246.808 370.389 245.58C370.613 244.353 370.467 243.087 369.971 241.942C369.474 240.798 368.65 239.826 367.602 239.15C366.553 238.474 365.328 238.124 364.08 238.145C362.833 238.165 361.62 238.555 360.594 239.265C359.568 239.975 358.776 240.973 358.317 242.133C357.859 243.293 357.755 244.564 358.018 245.783C358.388 247.409 359.38 248.825 360.781 249.728C362.182 250.632 363.882 250.951 365.515 250.617Z" fill="#E5F3FF"/>
<path d="M326.335 280.393C327.554 280.129 328.668 279.51 329.535 278.614C330.403 277.718 330.985 276.584 331.209 275.357C331.432 274.129 331.286 272.863 330.79 271.719C330.294 270.574 329.469 269.602 328.421 268.926C327.372 268.25 326.147 267.9 324.9 267.921C323.652 267.941 322.439 268.331 321.413 269.041C320.387 269.751 319.595 270.749 319.137 271.909C318.678 273.07 318.574 274.34 318.837 275.559C319.207 277.185 320.199 278.601 321.601 279.504C323.002 280.408 324.701 280.727 326.335 280.393Z" fill="#E6B800"/>
<path d="M477.241 225.168C478.46 224.905 479.574 224.286 480.442 223.389C481.309 222.493 481.892 221.359 482.115 220.132C482.338 218.905 482.192 217.639 481.696 216.494C481.2 215.349 480.376 214.378 479.327 213.702C478.279 213.026 477.053 212.676 475.806 212.696C474.559 212.717 473.345 213.106 472.319 213.816C471.294 214.526 470.501 215.525 470.043 216.685C469.584 217.845 469.48 219.115 469.744 220.335C470.114 221.96 471.106 223.376 472.507 224.28C473.908 225.183 475.607 225.502 477.241 225.168Z" fill="#0E6BA8"/>
<path d="M492.787 129.352C494.006 129.088 495.12 128.469 495.987 127.573C496.855 126.677 497.437 125.543 497.661 124.316C497.884 123.088 497.738 121.822 497.242 120.678C496.746 119.533 495.921 118.561 494.873 117.885C493.824 117.209 492.599 116.859 491.352 116.88C490.104 116.9 488.891 117.29 487.865 118C486.839 118.71 486.047 119.708 485.589 120.868C485.13 122.029 485.026 123.299 485.29 124.518C485.66 126.144 486.651 127.56 488.053 128.463C489.454 129.367 491.153 129.686 492.787 129.352ZM175.827 222.188C177.046 221.925 178.16 221.306 179.028 220.409C179.895 219.513 180.477 218.379 180.701 217.152C180.924 215.925 180.778 214.659 180.282 213.514C179.786 212.369 178.962 211.398 177.913 210.722C176.865 210.046 175.639 209.696 174.392 209.716C173.144 209.737 171.931 210.126 170.905 210.836C169.88 211.546 169.087 212.545 168.629 213.705C168.17 214.865 168.066 216.135 168.33 217.354C168.7 218.98 169.692 220.396 171.093 221.3C172.494 222.203 174.193 222.522 175.827 222.188Z" fill="#E63535"/>
<path d="M194.774 263.258C195.994 262.995 197.108 262.376 197.975 261.479C198.843 260.583 199.425 259.449 199.648 258.222C199.872 256.995 199.726 255.729 199.23 254.584C198.733 253.439 197.909 252.468 196.86 251.792C195.812 251.116 194.587 250.766 193.339 250.786C192.092 250.807 190.879 251.196 189.853 251.906C188.827 252.616 188.035 253.615 187.576 254.775C187.118 255.935 187.014 257.205 187.277 258.425C187.647 260.05 188.639 261.466 190.04 262.37C191.441 263.273 193.141 263.592 194.774 263.258ZM285.53 109.94C282.006 114.863 279.967 120.694 279.657 126.741C274.733 123.217 268.902 121.179 262.855 120.868C266.379 115.944 268.417 110.113 268.728 104.066C273.652 107.59 279.483 109.629 285.53 109.94ZM176.729 157.02C173.205 161.944 171.167 167.775 170.856 173.822C165.933 170.298 160.102 168.259 154.055 167.949C157.579 163.025 159.617 157.194 159.928 151.147C164.852 154.671 170.682 156.709 176.729 157.02Z" fill="#0E6BA8"/>
<path d="M268.784 180.817C265.26 185.74 263.222 191.571 262.911 197.618C257.987 194.094 252.156 192.056 246.109 191.745C249.633 186.821 251.672 180.99 251.983 174.943C256.906 178.467 262.737 180.506 268.784 180.817Z" fill="#E6B800"/>
<path d="M397.604 85.7345C394.08 90.6582 392.042 96.4892 391.731 102.536C386.808 99.012 380.977 96.9737 374.93 96.6629C378.454 91.7392 380.492 85.9082 380.803 79.8613C385.727 83.3854 391.557 85.4237 397.604 85.7345Z" fill="#FFCC00"/>
<path d="M375.518 189.254C371.994 194.178 369.956 200.009 369.645 206.056C364.722 202.532 358.891 200.493 352.844 200.182C356.368 195.259 358.406 189.428 358.717 183.381C363.641 186.905 369.472 188.943 375.518 189.254Z" fill="#0E6BA8"/>
<path d="M474.222 161.729C470.698 166.652 468.659 172.483 468.348 178.53C463.425 175.006 457.594 172.968 451.547 172.657C455.071 167.733 457.109 161.902 457.42 155.855C462.344 159.38 468.175 161.418 474.222 161.729Z" fill="#E63535"/>
<path d="M538.136 165.113C534.612 170.037 532.573 175.868 532.263 181.915C527.339 178.391 521.508 176.353 515.461 176.042C518.985 171.118 521.023 165.287 521.334 159.24C526.258 162.764 532.089 164.803 538.136 165.113Z" fill="#0E6BA8"/>
<path d="M433.768 253.168C430.244 258.092 428.206 263.923 427.895 269.97C422.972 266.446 417.141 264.407 411.094 264.096C414.618 259.173 416.656 253.342 416.967 247.295C421.891 250.819 427.722 252.857 433.768 253.168Z" fill="#E6B800"/>
<path d="M253.948 257.426C250.424 262.35 248.386 268.181 248.075 274.227C243.151 270.703 237.32 268.665 231.273 268.354C234.797 263.431 236.836 257.6 237.147 251.553C242.07 255.077 247.901 257.115 253.948 257.426Z" fill="#E5F3FF"/>
</svg>
