<svg width="65" height="37" viewBox="0 0 62 34" fill="none" xmlns="http://www.w3.org/2000/svg">
<path d="M25.946 10.2415L20.4475 23.3595H16.86L14.1545 12.8892C13.99 12.2452 13.8482 12.009 13.3477 11.7377C12.5322 11.295 11.1847 10.8803 10 10.6213L10.0805 10.2415H15.8555C16.2329 10.2411 16.598 10.3757 16.8849 10.6208C17.1718 10.866 17.3616 11.2057 17.42 11.5785L18.8498 19.17L22.3812 10.2415H25.946ZM40.0037 19.0772C40.0178 15.614 35.2158 15.4232 35.249 13.8762C35.2595 13.4055 35.7075 12.905 36.6875 12.7773C37.836 12.6682 38.9927 12.8713 40.0352 13.3653L40.6303 10.5828C39.6152 10.2012 38.5402 10.0038 37.4557 10C34.101 10 31.7402 11.785 31.7192 14.3382C31.6982 16.2265 33.4045 17.2782 34.6908 17.9082C36.0138 18.5505 36.4583 18.9635 36.4513 19.5375C36.4425 20.4195 35.3978 20.8062 34.4212 20.822C32.715 20.8482 31.7262 20.3617 30.9353 19.9942L30.321 22.8677C31.1138 23.2317 32.5767 23.5502 34.094 23.5642C37.6587 23.5642 39.9915 21.8037 40.0037 19.0772ZM48.8605 23.3595H52L49.2612 10.2415H46.3633C46.0536 10.2386 45.7502 10.3289 45.4925 10.5005C45.2348 10.6721 45.0345 10.9172 44.9177 11.204L39.827 23.3595H43.39L44.0988 21.3995H48.4528L48.8605 23.3595ZM45.0752 18.7115L46.8602 13.7852L47.8892 18.7115H45.0752ZM30.7952 10.2415L27.99 23.3595H24.595L27.4037 10.2415H30.7952Z" fill="white" fill-opacity="0.51"/>
</svg>
